<svg xmlns="http://www.w3.org/2000/svg">
  <symbol id="aboutUS-hand" viewBox="0 0 43 43">
    <svg fill="none" xmlns="http://www.w3.org/2000/svg">
      <path opacity="0.15"
        d="M10.1176 40.6282C10.1176 40.9763 11.2699 41.3101 13.3211 41.5563C15.3723 41.8024 18.1542 41.9407 21.0551 41.9407C23.9559 41.9407 26.7379 41.8024 28.789 41.5563C30.8402 41.3101 31.9926 40.9763 31.9926 40.6282C31.9926 40.2801 30.8402 39.9462 28.789 39.7001C26.7379 39.454 23.9559 39.3157 21.0551 39.3157C18.1542 39.3157 15.3723 39.454 13.3211 39.7001C11.2699 39.9462 10.1176 40.2801 10.1176 40.6282Z"
        fill="#DEF0FF" />
      <path
        d="M29.3316 17.6679L29.2179 20.5204L19.4004 10.6941C19.0176 10.2892 18.4991 10.0394 17.9438 9.99263C17.3886 9.94582 16.8355 10.1052 16.3904 10.4404C16.1527 10.6328 15.9582 10.873 15.8195 11.1455C15.6808 11.418 15.601 11.7167 15.5854 12.022C15.5697 12.3274 15.6185 12.6327 15.7285 12.9179C15.8386 13.2032 16.0074 13.4621 16.2241 13.6779L14.8329 12.2866C14.4082 11.8445 13.8318 11.5797 13.2197 11.5456C12.6076 11.5115 12.0053 11.7106 11.5341 12.1029C11.2989 12.3151 11.1092 12.573 10.9767 12.8608C10.8443 13.1487 10.7717 13.4605 10.7636 13.7772C10.7554 14.094 10.8117 14.4091 10.9291 14.7034C11.0466 14.9977 11.2226 15.265 11.4466 15.4891L11.4291 15.4454C11.094 15.1034 10.657 14.8794 10.1837 14.8068C9.7104 14.7342 9.22634 14.817 8.80412 15.0429C8.51167 15.2095 8.26162 15.4414 8.07343 15.7205C7.88524 15.9995 7.76399 16.3183 7.71911 16.6519C7.67424 16.9854 7.70695 17.3249 7.81471 17.6438C7.92246 17.9627 8.10235 18.2524 8.34037 18.4904L10.9654 21.1154C10.7762 20.9265 10.5496 20.7793 10.3001 20.6832C10.0507 20.5871 9.78387 20.5443 9.51687 20.5574C9.24986 20.5706 8.98857 20.6395 8.74979 20.7597C8.511 20.8799 8.30001 21.0488 8.13037 21.2554C7.84059 21.6438 7.70209 22.1244 7.74074 22.6074C7.77938 23.0905 7.99253 23.543 8.34037 23.8804L19.3041 34.9404C20.072 35.7118 20.9854 36.323 21.9914 36.7385C22.9975 37.154 24.076 37.3654 25.1645 37.3605C26.2529 37.3556 27.3295 37.1345 28.3318 36.7101C29.3341 36.2856 30.242 35.6662 31.0029 34.8879C32.2032 33.6352 33.1333 32.1491 33.7353 30.522C34.3374 28.8949 34.5987 27.1614 34.5029 25.4291L34.1791 14.8154C34.1614 14.5771 34.0541 14.3543 33.8788 14.192C33.7034 14.0296 33.4731 13.9397 33.2341 13.9404C32.2281 13.9372 31.2599 14.3235 30.5324 15.0184C29.8049 15.7133 29.3746 16.6627 29.3316 17.6679Z"
        fill="white" />
      <path
        d="M29.2194 20.5204L19.4019 10.6941C19.0192 10.2892 18.5006 10.0394 17.9454 9.99263C17.3901 9.94582 16.8371 10.1052 16.3919 10.4404C16.1707 10.6201 15.987 10.8417 15.8514 11.0925C15.7158 11.3433 15.6309 11.6184 15.6017 11.902C15.5724 12.1856 15.5993 12.4721 15.6809 12.7453C15.7624 13.0185 15.897 13.273 16.0769 13.4941C16.1658 13.3716 16.2719 13.2626 16.3919 13.1704C16.835 12.833 17.3868 12.6707 17.942 12.7142C18.4972 12.7578 19.0169 13.0043 19.4019 13.4066L27.8544 21.8679L29.2194 20.5204ZM34.2594 17.5454L34.1807 14.8154C34.163 14.5771 34.0557 14.3543 33.8803 14.192C33.705 14.0296 33.4746 13.9397 33.2357 13.9404C32.2268 13.9397 31.2571 14.3307 30.5307 15.0309C29.8044 15.7311 29.3782 16.6859 29.3419 17.6941L29.2282 20.5466L29.3419 20.4241C29.3804 19.4166 29.8072 18.4631 30.5331 17.7633C31.2589 17.0636 32.2275 16.6719 33.2357 16.6704C33.4833 16.6677 33.7235 16.7549 33.9117 16.9158C34.0999 17.0767 34.2235 17.3004 34.2594 17.5454Z"
        fill="#DEF0FF" />
      <path
        d="M10.8516 21.0979L16.1541 26.3916M11.4466 15.4979L19.2429 23.2941M16.2241 13.6954L22.5329 20.0129M29.3316 17.6679L29.2179 20.5204L19.4004 10.6941C19.0176 10.2892 18.4991 10.0394 17.9438 9.99263C17.3886 9.94582 16.8355 10.1052 16.3904 10.4404C16.1527 10.6328 15.9582 10.873 15.8195 11.1455C15.6808 11.418 15.601 11.7167 15.5854 12.022C15.5697 12.3274 15.6185 12.6327 15.7285 12.9179C15.8386 13.2032 16.0074 13.4621 16.2241 13.6779L14.8329 12.2866C14.4082 11.8445 13.8318 11.5797 13.2197 11.5456C12.6076 11.5115 12.0053 11.7106 11.5341 12.1029C11.2989 12.3151 11.1092 12.573 10.9767 12.8608C10.8443 13.1487 10.7717 13.4605 10.7636 13.7772C10.7554 14.094 10.8117 14.4091 10.9291 14.7034C11.0466 14.9977 11.2226 15.265 11.4466 15.4891L11.4291 15.4454C11.094 15.1034 10.657 14.8794 10.1837 14.8068C9.7104 14.7342 9.22634 14.817 8.80412 15.0429C8.51167 15.2095 8.26162 15.4414 8.07343 15.7205C7.88524 15.9995 7.76399 16.3183 7.71911 16.6519C7.67424 16.9854 7.70695 17.3249 7.81471 17.6438C7.92246 17.9627 8.10235 18.2524 8.34037 18.4904L10.9654 21.1154C10.7762 20.9265 10.5496 20.7793 10.3001 20.6832C10.0507 20.5871 9.78387 20.5443 9.51687 20.5574C9.24986 20.5706 8.98857 20.6395 8.74979 20.7597C8.511 20.8799 8.30001 21.0488 8.13037 21.2554C7.84059 21.6438 7.70209 22.1244 7.74074 22.6074C7.77938 23.0905 7.99253 23.543 8.34037 23.8804L19.3041 34.9404C20.072 35.7118 20.9854 36.323 21.9914 36.7385C22.9975 37.154 24.076 37.3654 25.1645 37.3605C26.2529 37.3556 27.3295 37.1345 28.3318 36.7101C29.3341 36.2856 30.242 35.6662 31.0029 34.8879C32.2032 33.6352 33.1333 32.1491 33.7353 30.522C34.3374 28.8949 34.5987 27.1614 34.5029 25.4291L34.1791 14.8154C34.1614 14.5771 34.0541 14.3543 33.8788 14.192C33.7034 14.0296 33.4731 13.9397 33.2341 13.9404C32.2281 13.9372 31.2599 14.3235 30.5324 15.0184C29.8049 15.7133 29.3746 16.6627 29.3316 17.6679Z"
        stroke="#0A8ED9" stroke-linecap="round" stroke-linejoin="round" />
      <path
        d="M29.2182 20.521L26.0945 23.6448C25.6064 24.1324 25.2191 24.7114 24.9549 25.3487C24.6907 25.9861 24.5547 26.6692 24.5547 27.3591C24.5547 28.0491 24.6907 28.7322 24.9549 29.3696C25.2191 30.0069 25.6064 30.5859 26.0945 31.0735M21.1507 8.48103C22.5411 8.71847 23.843 9.32258 24.922 10.231C25.9912 11.1805 26.8037 12.3843 27.2845 13.731M21.6495 6.14478C23.363 6.42044 24.9708 7.15181 26.3045 8.26228C27.6271 9.42877 28.63 10.9136 29.2182 12.576M4.12325 22.026C3.9847 23.4254 4.22338 24.8363 4.8145 26.1123C5.45557 27.3886 6.40991 28.4814 7.58825 29.2885M1.7345 21.9035C1.56768 23.6345 1.86992 25.3784 2.6095 26.9523C3.40177 28.5285 4.5784 29.8796 6.03075 30.881"
        stroke="#0A8ED9" stroke-linecap="round" stroke-linejoin="round" />
    </svg>
  </symbol>

  <symbol id="faq-icon" viewBox="0 0 16 9">
    <svg fill="none" xmlns="http://www.w3.org/2000/svg">
      <path d="M1.75 1.5L8 7.75L14.25 1.5" stroke-width="2" stroke-linecap="round"
        stroke-linejoin="round" />
    </svg>
  </symbol>

  <symbol id="app-store" viewBox="0 0 392 114">
    <svg fill="none" xmlns="http://www.w3.org/2000/svg">
      <path
        d="M389.822 100.853C389.822 106.928 384.832 111.849 378.66 111.849H13.3551C7.1856 111.849 2.1778 106.928 2.1778 100.853V13.1615C2.1778 7.08913 7.1856 2.15088 13.3551 2.15088H378.657C384.832 2.15088 389.819 7.08913 389.819 13.1615L389.822 100.853Z"
        fill="none" />
      <path
        d="M377.481 2.28357C384.204 2.28357 389.673 7.65226 389.673 14.25V99.75C389.673 106.348 384.204 111.716 377.481 111.716H14.5185C7.79644 111.716 2.32659 106.348 2.32659 99.75V14.25C2.32659 7.65226 7.79644 2.28357 14.5185 2.28357H377.481ZM377.481 7.62939e-06H14.5185C6.53696 7.62939e-06 0 6.41607 0 14.25V99.75C0 107.584 6.53696 114 14.5185 114H377.481C385.463 114 392 107.584 392 99.75V14.25C392 6.41607 385.463 7.62939e-06 377.481 7.62939e-06Z"
        fill="#53A6EA" />
      <path
        d="M87.4828 56.3842C87.3986 47.1987 95.1457 42.7299 95.4999 42.5218C91.1124 36.2433 84.312 35.3854 81.9222 35.317C76.2106 34.7271 70.6704 38.6715 67.7609 38.6715C64.7933 38.6715 60.3128 35.374 55.484 35.4709C49.2701 35.565 43.4569 39.0961 40.2686 44.5795C33.6888 55.7601 38.5961 72.1903 44.9 81.2276C48.0534 85.6537 51.7382 90.5956 56.5613 90.4217C61.2798 90.2308 63.0423 87.4692 68.7365 87.4692C74.3784 87.4692 76.0335 90.4217 80.9524 90.3106C86.0164 90.2308 89.2047 85.8646 92.2478 81.3987C95.8919 76.3257 97.3554 71.3296 97.4135 71.0731C97.2944 71.0332 87.5786 67.3938 87.4828 56.3842Z"
        fill="#3698F3" />
      <path
        d="M78.191 29.3719C80.7288 26.2569 82.4652 22.0189 81.9832 17.7183C78.31 17.8779 73.7163 20.212 71.0711 23.2587C68.7307 25.9434 66.64 30.3438 67.1801 34.482C71.3063 34.7841 75.5428 32.4385 78.191 29.3719Z"
        fill="#3698F3" />
      <path
        d="M142.427 28.5258C142.427 31.8802 141.402 34.4053 139.355 36.1011C137.458 37.6657 134.764 38.4495 131.274 38.4495C129.543 38.4495 128.062 38.3754 126.822 38.2272V19.8988C128.44 19.6423 130.182 19.5112 132.063 19.5112C135.388 19.5112 137.894 20.2209 139.584 21.6402C141.477 23.2447 142.427 25.539 142.427 28.5258ZM139.218 28.6084C139.218 26.4339 138.632 24.7666 137.458 23.6038C136.285 22.4439 134.572 21.8625 132.316 21.8625C131.358 21.8625 130.542 21.9252 129.865 22.0563V35.9899C130.24 36.0469 130.925 36.0726 131.921 36.0726C134.25 36.0726 136.047 35.437 137.313 34.1659C138.579 32.8948 139.218 31.0423 139.218 28.6084Z"
        fill="#3698F3" />
      <path
        d="M159.439 31.4556C159.439 33.5218 158.838 35.2147 157.636 36.5428C156.376 37.908 154.706 38.5891 152.622 38.5891C150.612 38.5891 149.012 37.9365 147.819 36.6255C146.628 35.3173 146.033 33.6672 146.033 31.6779C146.033 29.5974 146.646 27.8902 147.877 26.565C149.108 25.2397 150.763 24.5757 152.848 24.5757C154.857 24.5757 156.472 25.2283 157.694 26.5365C158.856 27.8076 159.439 29.4492 159.439 31.4556ZM156.283 31.5525C156.283 30.3127 156.01 29.2497 155.467 28.3633C154.828 27.2917 153.92 26.7559 152.738 26.7559C151.515 26.7559 150.586 27.2917 149.947 28.3633C149.401 29.2497 149.131 30.3298 149.131 31.6066C149.131 32.8464 149.404 33.9094 149.947 34.7958C150.606 35.8674 151.524 36.4032 152.709 36.4032C153.87 36.4032 154.782 35.8588 155.438 34.7673C156.002 33.8638 156.283 32.7922 156.283 31.5525Z"
        fill="#3698F3" />
      <path
        d="M182.251 24.8491L177.968 38.284H175.18L173.406 32.4501C172.956 30.9937 172.59 29.5459 172.306 28.1095H172.251C171.986 29.5858 171.621 31.0308 171.15 32.4501L169.266 38.284H166.446L162.419 24.8491H165.546L167.094 31.236C167.468 32.7465 167.776 34.1857 168.023 35.548H168.078C168.304 34.4251 168.679 32.9944 169.208 31.2645L171.15 24.852H173.63L175.491 31.1277C175.941 32.6581 176.307 34.1316 176.589 35.5509H176.673C176.879 34.1686 177.19 32.6952 177.602 31.1277L179.263 24.852H182.251V24.8491Z"
        fill="#3698F3" />
      <path
        d="M198.027 38.2839H194.984V30.5889C194.984 28.2177 194.066 27.0321 192.225 27.0321C191.322 27.0321 190.593 27.357 190.027 28.0097C189.467 28.6623 189.182 29.4318 189.182 30.3125V38.2811H186.139V28.688C186.139 27.5081 186.101 26.2284 186.029 24.8433H188.703L188.845 26.9438H188.93C189.284 26.2911 189.812 25.7525 190.506 25.3221C191.331 24.8205 192.254 24.5669 193.265 24.5669C194.542 24.5669 195.605 24.9716 196.45 25.7838C197.501 26.7785 198.027 28.2633 198.027 30.2355V38.2839Z"
        fill="#3698F3" />
      <path d="M206.419 38.284H203.378V18.6846H206.419V38.284Z" fill="#3698F3" />
      <path
        d="M224.334 31.4556C224.334 33.5218 223.733 35.2147 222.531 36.5428C221.271 37.908 219.598 38.5891 217.516 38.5891C215.504 38.5891 213.904 37.9365 212.714 36.6255C211.523 35.3173 210.928 33.6672 210.928 31.6779C210.928 29.5974 211.541 27.8902 212.772 26.565C214.003 25.2397 215.658 24.5757 217.74 24.5757C219.752 24.5757 221.364 25.2283 222.589 26.5365C223.751 27.8076 224.334 29.4492 224.334 31.4556ZM221.175 31.5525C221.175 30.3127 220.902 29.2497 220.359 28.3633C219.723 27.2917 218.812 26.7559 217.633 26.7559C216.407 26.7559 215.478 27.2917 214.842 28.3633C214.296 29.2497 214.026 30.3298 214.026 31.6066C214.026 32.8464 214.299 33.9094 214.842 34.7958C215.501 35.8674 216.419 36.4032 217.604 36.4032C218.765 36.4032 219.674 35.8588 220.33 34.7673C220.896 33.8638 221.175 32.7922 221.175 31.5525Z"
        fill="#3698F3" />
      <path
        d="M239.062 38.2842H236.33L236.103 36.7366H236.019C235.084 37.9707 233.751 38.5891 232.02 38.5891C230.728 38.5891 229.683 38.1816 228.896 37.3722C228.182 36.6369 227.825 35.722 227.825 34.6362C227.825 32.9946 228.522 31.7434 229.924 30.877C231.324 30.0106 233.292 29.586 235.827 29.6059V29.3551C235.827 27.5853 234.881 26.7018 232.985 26.7018C231.634 26.7018 230.444 27.0352 229.416 27.6964L228.797 25.7356C230.069 24.9633 231.64 24.5757 233.493 24.5757C237.07 24.5757 238.865 26.4282 238.865 30.1332V35.0808C238.865 36.4231 238.931 37.4919 239.062 38.2842ZM235.903 33.6672V31.5952C232.546 31.5382 230.868 32.4417 230.868 34.3027C230.868 35.0038 231.059 35.5282 231.451 35.8788C231.843 36.2293 232.343 36.4032 232.938 36.4032C233.606 36.4032 234.23 36.1951 234.799 35.7819C235.371 35.3658 235.723 34.8385 235.853 34.1916C235.885 34.0462 235.903 33.8695 235.903 33.6672Z"
        fill="#3698F3" />
      <path
        d="M256.354 38.284H253.653L253.511 36.1266H253.427C252.564 37.7682 251.095 38.589 249.03 38.589C247.381 38.589 246.008 37.9534 244.919 36.6823C243.83 35.4112 243.287 33.7611 243.287 31.7347C243.287 29.5602 243.876 27.7989 245.061 26.4537C246.208 25.1997 247.613 24.5727 249.286 24.5727C251.124 24.5727 252.41 25.1797 253.142 26.3967H253.2V18.6846H256.246V34.6645C256.246 35.9727 256.281 37.1782 256.354 38.284ZM253.2 32.6182V30.3781C253.2 29.9905 253.171 29.677 253.116 29.4376C252.945 28.7194 252.576 28.1152 252.015 27.6279C251.449 27.1405 250.767 26.8954 249.98 26.8954C248.845 26.8954 247.956 27.3372 247.303 28.2235C246.655 29.1099 246.327 30.2413 246.327 31.6236C246.327 32.9517 246.638 34.029 247.262 34.8583C247.921 35.7418 248.81 36.1836 249.922 36.1836C250.921 36.1836 251.719 35.8159 252.326 35.0778C252.913 34.3966 253.2 33.5758 253.2 32.6182Z"
        fill="#3698F3" />
      <path
        d="M282.379 31.4556C282.379 33.5218 281.778 35.2147 280.576 36.5428C279.316 37.908 277.649 38.5891 275.562 38.5891C273.555 38.5891 271.955 37.9365 270.759 36.6255C269.568 35.3173 268.973 33.6672 268.973 31.6779C268.973 29.5974 269.586 27.8902 270.817 26.565C272.048 25.2397 273.703 24.5757 275.791 24.5757C277.797 24.5757 279.415 25.2283 280.634 26.5365C281.796 27.8076 282.379 29.4492 282.379 31.4556ZM279.226 31.5525C279.226 30.3127 278.953 29.2497 278.41 28.3633C277.768 27.2917 276.862 26.7559 275.678 26.7559C274.458 26.7559 273.529 27.2917 272.887 28.3633C272.341 29.2497 272.071 30.3298 272.071 31.6066C272.071 32.8464 272.344 33.9094 272.887 34.7958C273.546 35.8674 274.464 36.4032 275.649 36.4032C276.81 36.4032 277.725 35.8588 278.381 34.7673C278.941 33.8638 279.226 32.7922 279.226 31.5525Z"
        fill="#3698F3" />
      <path
        d="M298.742 38.2839H295.702V30.5889C295.702 28.2177 294.784 27.0321 292.94 27.0321C292.037 27.0321 291.308 27.357 290.745 28.0097C290.182 28.6623 289.9 29.4318 289.9 30.3125V38.2811H286.854V28.688C286.854 27.5081 286.819 26.2284 286.747 24.8433H289.418L289.56 26.9438H289.644C290.002 26.2911 290.53 25.7525 291.221 25.3221C292.049 24.8205 292.969 24.5669 293.983 24.5669C295.257 24.5669 296.32 24.9716 297.165 25.7838C298.219 26.7785 298.742 28.2633 298.742 30.2355V38.2839Z"
        fill="#3698F3" />
      <path
        d="M319.222 27.0866H315.871V33.6131C315.871 35.2718 316.466 36.1011 317.645 36.1011C318.191 36.1011 318.644 36.0555 319.001 35.9615L319.079 38.2272C318.478 38.4495 317.688 38.5607 316.716 38.5607C315.514 38.5607 314.579 38.2016 313.902 37.4834C313.223 36.7652 312.886 35.5568 312.886 33.861V27.0866H310.885V24.8493H312.886V22.3869L315.868 21.5034V24.8465H319.219V27.0866H319.222Z"
        fill="#3698F3" />
      <path
        d="M335.331 38.284H332.285V30.646C332.285 28.2378 331.368 27.0322 329.53 27.0322C328.119 27.0322 327.155 27.7305 326.626 29.127C326.536 29.4205 326.484 29.7796 326.484 30.2014V38.2812H323.444V18.6846H326.484V26.7814H326.542C327.5 25.308 328.874 24.5727 330.654 24.5727C331.914 24.5727 332.956 24.9774 333.784 25.7896C334.815 26.8014 335.331 28.3062 335.331 30.2955V38.284Z"
        fill="#3698F3" />
      <path
        d="M351.949 30.931C351.949 31.4668 351.909 31.9171 351.836 32.2847H342.71C342.75 33.6128 343.186 34.6246 344.031 35.3257C344.803 35.9527 345.799 36.2662 347.019 36.2662C348.369 36.2662 349.6 36.0553 350.709 35.6306L351.186 37.7054C349.888 38.2583 348.36 38.5348 346.592 38.5348C344.472 38.5348 342.803 37.922 341.595 36.6965C340.381 35.471 339.78 33.8266 339.78 31.7632C339.78 29.7368 340.34 28.0496 341.47 26.7044C342.649 25.268 344.243 24.5498 346.255 24.5498C348.224 24.5498 349.719 25.268 350.73 26.7044C351.546 27.8444 351.949 29.2552 351.949 30.931ZM349.046 30.1586C349.069 29.2723 348.868 28.5085 348.456 27.8644C347.928 27.035 347.123 26.6189 346.034 26.6189C345.041 26.6189 344.231 27.0236 343.613 27.8359C343.107 28.4828 342.808 29.2552 342.71 30.1586H349.046Z"
        fill="#3698F3" />
      <path
        d="M155.769 89.7862H149.175L145.563 78.6455H133.007L129.566 89.7862H123.146L135.586 51.8584H143.269L155.769 89.7862ZM144.474 73.9716L141.207 64.0678C140.862 63.0561 140.214 60.6735 139.259 56.9229H139.143C138.762 58.536 138.149 60.9185 137.307 64.0678L134.099 73.9716H144.474Z"
        fill="#3698F3" />
      <path
        d="M187.759 75.7759C187.759 80.4271 186.479 84.1036 183.918 86.8026C181.624 89.2051 178.775 90.405 175.375 90.405C171.705 90.405 169.068 89.1111 167.462 86.5233H167.346V100.93H161.156V71.4411C161.156 68.517 161.077 65.5159 160.926 62.4379H166.371L166.716 66.7728H166.832C168.897 63.5067 172.03 61.8765 176.234 61.8765C179.521 61.8765 182.265 63.1504 184.461 65.7012C186.662 68.2548 187.759 71.6121 187.759 75.7759ZM181.452 75.9982C181.452 73.3363 180.843 71.1418 179.617 69.4147C178.279 67.6135 176.481 66.7129 174.228 66.7129C172.701 66.7129 171.313 67.2145 170.073 68.2035C168.83 69.201 168.017 70.5034 167.637 72.1165C167.445 72.8689 167.349 73.4845 167.349 73.969V78.529C167.349 80.5183 167.971 82.197 169.213 83.5678C170.456 84.9387 172.071 85.6227 174.057 85.6227C176.388 85.6227 178.203 84.7392 179.501 82.9779C180.802 81.2137 181.452 78.8881 181.452 75.9982Z"
        fill="#3698F3" />
      <path
        d="M219.807 75.7759C219.807 80.4271 218.527 84.1036 215.963 86.8026C213.672 89.2051 210.823 90.405 207.423 90.405C203.753 90.405 201.116 89.1111 199.513 86.5233H199.397V100.93H193.207V71.4411C193.207 68.517 193.128 65.5159 192.977 62.4379H198.422L198.767 66.7728H198.883C200.945 63.5067 204.078 61.8765 208.286 61.8765C211.57 61.8765 214.314 63.1504 216.515 65.7012C218.707 68.2548 219.807 71.6121 219.807 75.7759ZM213.501 75.9982C213.501 73.3363 212.888 71.1418 211.663 69.4147C210.324 67.6135 208.532 66.7129 206.276 66.7129C204.746 66.7129 203.361 67.2145 202.118 68.2035C200.875 69.201 200.065 70.5034 199.685 72.1165C199.496 72.8689 199.397 73.4845 199.397 73.969V78.529C199.397 80.5183 200.019 82.197 201.256 83.5678C202.498 84.9358 204.113 85.6227 206.105 85.6227C208.437 85.6227 210.251 84.7392 211.549 82.9779C212.85 81.2137 213.501 78.8881 213.501 75.9982Z"
        fill="#3698F3" />
      <path
        d="M255.639 79.1501C255.639 82.3763 254.498 85.0011 252.207 87.0275C249.689 89.2419 246.185 90.3477 241.681 90.3477C237.523 90.3477 234.19 89.5611 231.666 87.9851L233.101 82.9206C235.819 84.5337 238.801 85.3431 242.05 85.3431C244.382 85.3431 246.196 84.8244 247.5 83.7927C248.798 82.761 249.446 81.3759 249.446 79.6488C249.446 78.1098 248.911 76.8131 247.84 75.7614C246.774 74.7098 244.994 73.7322 242.509 72.8288C235.743 70.3521 232.363 66.7241 232.363 61.9532C232.363 58.8353 233.548 56.2788 235.92 54.2895C238.284 52.2974 241.437 51.3027 245.38 51.3027C248.897 51.3027 251.818 51.9041 254.15 53.1039L252.602 58.0572C250.424 56.8944 247.962 56.313 245.206 56.313C243.028 56.313 241.327 56.8403 240.107 57.8891C239.076 58.8267 238.56 59.9696 238.56 61.3233C238.56 62.8224 239.149 64.0622 240.334 65.0369C241.365 65.9375 243.237 66.9122 245.955 67.9638C249.28 69.2777 251.722 70.8138 253.293 72.5751C254.858 74.3307 255.639 76.5281 255.639 79.1501Z"
        fill="#3698F3" />
      <path
        d="M276.107 66.9979H269.284V80.276C269.284 83.6533 270.486 85.3405 272.896 85.3405C274.002 85.3405 274.92 85.2464 275.646 85.0583L275.817 89.6725C274.597 90.1199 272.992 90.3451 271.003 90.3451C268.558 90.3451 266.647 89.6126 265.268 88.1506C263.894 86.6857 263.203 84.229 263.203 80.7776V66.9922H259.138V62.4322H263.203V57.4247L269.284 55.6235V62.4322H276.107V66.9979Z"
        fill="#3698F3" />
      <path
        d="M306.895 75.8867C306.895 80.0904 305.67 83.5418 303.225 86.2407C300.661 89.0195 297.258 90.4046 293.016 90.4046C288.927 90.4046 285.672 89.0736 283.245 86.4117C280.817 83.7498 279.603 80.3897 279.603 76.3398C279.603 72.1019 280.852 68.6306 283.358 65.9316C285.858 63.2298 289.232 61.8789 293.474 61.8789C297.563 61.8789 300.853 63.2099 303.335 65.8746C305.711 68.4596 306.895 71.7969 306.895 75.8867ZM300.472 76.0833C300.472 73.5611 299.923 71.3979 298.811 69.5939C297.513 67.4108 295.658 66.3221 293.254 66.3221C290.765 66.3221 288.875 67.4136 287.577 69.5939C286.465 71.4008 285.916 73.5981 285.916 76.1973C285.916 78.7196 286.465 80.8827 287.577 82.6839C288.916 84.867 290.786 85.9557 293.199 85.9557C295.562 85.9557 297.418 84.8442 298.756 82.6269C299.897 80.7887 300.472 78.6027 300.472 76.0833Z"
        fill="#3698F3" />
      <path
        d="M327.018 67.7817C326.405 67.6705 325.752 67.6135 325.067 67.6135C322.889 67.6135 321.205 68.4201 320.02 70.036C318.989 71.461 318.472 73.2622 318.472 75.4368V89.7865H312.285L312.343 71.0506C312.343 67.8985 312.264 65.0286 312.11 62.4408H317.503L317.729 67.6734H317.9C318.554 65.875 319.585 64.4272 320.996 63.3414C322.375 62.3638 323.865 61.8765 325.47 61.8765C326.042 61.8765 326.559 61.9164 327.018 61.9876V67.7817Z"
        fill="#3698F3" />
      <path
        d="M354.705 74.8179C354.705 75.9066 354.632 76.8243 354.478 77.5738H335.906C335.979 80.2756 336.876 82.3419 338.601 83.7669C340.166 85.0408 342.19 85.6792 344.675 85.6792C347.425 85.6792 349.934 85.2488 352.19 84.3853L353.16 88.6033C350.523 89.7319 347.411 90.2933 343.819 90.2933C339.498 90.2933 336.107 89.045 333.638 86.5513C331.176 84.0576 329.942 80.7088 329.942 76.5079C329.942 72.384 331.089 68.9497 333.386 66.2109C335.79 63.2868 339.039 61.8247 343.128 61.8247C347.144 61.8247 350.184 63.2868 352.248 66.2109C353.883 68.5336 354.705 71.4064 354.705 74.8179ZM348.802 73.2418C348.842 71.4406 348.439 69.8845 347.599 68.5707C346.528 66.8806 344.882 66.037 342.666 66.037C340.642 66.037 338.996 66.8607 337.738 68.5137C336.708 69.8275 336.095 71.4036 335.906 73.239H348.802V73.2418Z"
        fill="#3698F3" />
    </svg>
  </symbol>
</svg>