<svg xmlns="http://www.w3.org/2000/svg">
  <symbol id="aboutUS-hand" viewBox="0 0 43 43">
    <svg fill="none" xmlns="http://www.w3.org/2000/svg">
      <path opacity="0.15"
        d="M10.1176 40.6282C10.1176 40.9763 11.2699 41.3101 13.3211 41.5563C15.3723 41.8024 18.1542 41.9407 21.0551 41.9407C23.9559 41.9407 26.7379 41.8024 28.789 41.5563C30.8402 41.3101 31.9926 40.9763 31.9926 40.6282C31.9926 40.2801 30.8402 39.9462 28.789 39.7001C26.7379 39.454 23.9559 39.3157 21.0551 39.3157C18.1542 39.3157 15.3723 39.454 13.3211 39.7001C11.2699 39.9462 10.1176 40.2801 10.1176 40.6282Z"
        fill="#DEF0FF" />
      <path
        d="M29.3316 17.6679L29.2179 20.5204L19.4004 10.6941C19.0176 10.2892 18.4991 10.0394 17.9438 9.99263C17.3886 9.94582 16.8355 10.1052 16.3904 10.4404C16.1527 10.6328 15.9582 10.873 15.8195 11.1455C15.6808 11.418 15.601 11.7167 15.5854 12.022C15.5697 12.3274 15.6185 12.6327 15.7285 12.9179C15.8386 13.2032 16.0074 13.4621 16.2241 13.6779L14.8329 12.2866C14.4082 11.8445 13.8318 11.5797 13.2197 11.5456C12.6076 11.5115 12.0053 11.7106 11.5341 12.1029C11.2989 12.3151 11.1092 12.573 10.9767 12.8608C10.8443 13.1487 10.7717 13.4605 10.7636 13.7772C10.7554 14.094 10.8117 14.4091 10.9291 14.7034C11.0466 14.9977 11.2226 15.265 11.4466 15.4891L11.4291 15.4454C11.094 15.1034 10.657 14.8794 10.1837 14.8068C9.7104 14.7342 9.22634 14.817 8.80412 15.0429C8.51167 15.2095 8.26162 15.4414 8.07343 15.7205C7.88524 15.9995 7.76399 16.3183 7.71911 16.6519C7.67424 16.9854 7.70695 17.3249 7.81471 17.6438C7.92246 17.9627 8.10235 18.2524 8.34037 18.4904L10.9654 21.1154C10.7762 20.9265 10.5496 20.7793 10.3001 20.6832C10.0507 20.5871 9.78387 20.5443 9.51687 20.5574C9.24986 20.5706 8.98857 20.6395 8.74979 20.7597C8.511 20.8799 8.30001 21.0488 8.13037 21.2554C7.84059 21.6438 7.70209 22.1244 7.74074 22.6074C7.77938 23.0905 7.99253 23.543 8.34037 23.8804L19.3041 34.9404C20.072 35.7118 20.9854 36.323 21.9914 36.7385C22.9975 37.154 24.076 37.3654 25.1645 37.3605C26.2529 37.3556 27.3295 37.1345 28.3318 36.7101C29.3341 36.2856 30.242 35.6662 31.0029 34.8879C32.2032 33.6352 33.1333 32.1491 33.7353 30.522C34.3374 28.8949 34.5987 27.1614 34.5029 25.4291L34.1791 14.8154C34.1614 14.5771 34.0541 14.3543 33.8788 14.192C33.7034 14.0296 33.4731 13.9397 33.2341 13.9404C32.2281 13.9372 31.2599 14.3235 30.5324 15.0184C29.8049 15.7133 29.3746 16.6627 29.3316 17.6679Z"
        fill="white" />
      <path
        d="M29.2194 20.5204L19.4019 10.6941C19.0192 10.2892 18.5006 10.0394 17.9454 9.99263C17.3901 9.94582 16.8371 10.1052 16.3919 10.4404C16.1707 10.6201 15.987 10.8417 15.8514 11.0925C15.7158 11.3433 15.6309 11.6184 15.6017 11.902C15.5724 12.1856 15.5993 12.4721 15.6809 12.7453C15.7624 13.0185 15.897 13.273 16.0769 13.4941C16.1658 13.3716 16.2719 13.2626 16.3919 13.1704C16.835 12.833 17.3868 12.6707 17.942 12.7142C18.4972 12.7578 19.0169 13.0043 19.4019 13.4066L27.8544 21.8679L29.2194 20.5204ZM34.2594 17.5454L34.1807 14.8154C34.163 14.5771 34.0557 14.3543 33.8803 14.192C33.705 14.0296 33.4746 13.9397 33.2357 13.9404C32.2268 13.9397 31.2571 14.3307 30.5307 15.0309C29.8044 15.7311 29.3782 16.6859 29.3419 17.6941L29.2282 20.5466L29.3419 20.4241C29.3804 19.4166 29.8072 18.4631 30.5331 17.7633C31.2589 17.0636 32.2275 16.6719 33.2357 16.6704C33.4833 16.6677 33.7235 16.7549 33.9117 16.9158C34.0999 17.0767 34.2235 17.3004 34.2594 17.5454Z"
        fill="#DEF0FF" />
      <path
        d="M10.8516 21.0979L16.1541 26.3916M11.4466 15.4979L19.2429 23.2941M16.2241 13.6954L22.5329 20.0129M29.3316 17.6679L29.2179 20.5204L19.4004 10.6941C19.0176 10.2892 18.4991 10.0394 17.9438 9.99263C17.3886 9.94582 16.8355 10.1052 16.3904 10.4404C16.1527 10.6328 15.9582 10.873 15.8195 11.1455C15.6808 11.418 15.601 11.7167 15.5854 12.022C15.5697 12.3274 15.6185 12.6327 15.7285 12.9179C15.8386 13.2032 16.0074 13.4621 16.2241 13.6779L14.8329 12.2866C14.4082 11.8445 13.8318 11.5797 13.2197 11.5456C12.6076 11.5115 12.0053 11.7106 11.5341 12.1029C11.2989 12.3151 11.1092 12.573 10.9767 12.8608C10.8443 13.1487 10.7717 13.4605 10.7636 13.7772C10.7554 14.094 10.8117 14.4091 10.9291 14.7034C11.0466 14.9977 11.2226 15.265 11.4466 15.4891L11.4291 15.4454C11.094 15.1034 10.657 14.8794 10.1837 14.8068C9.7104 14.7342 9.22634 14.817 8.80412 15.0429C8.51167 15.2095 8.26162 15.4414 8.07343 15.7205C7.88524 15.9995 7.76399 16.3183 7.71911 16.6519C7.67424 16.9854 7.70695 17.3249 7.81471 17.6438C7.92246 17.9627 8.10235 18.2524 8.34037 18.4904L10.9654 21.1154C10.7762 20.9265 10.5496 20.7793 10.3001 20.6832C10.0507 20.5871 9.78387 20.5443 9.51687 20.5574C9.24986 20.5706 8.98857 20.6395 8.74979 20.7597C8.511 20.8799 8.30001 21.0488 8.13037 21.2554C7.84059 21.6438 7.70209 22.1244 7.74074 22.6074C7.77938 23.0905 7.99253 23.543 8.34037 23.8804L19.3041 34.9404C20.072 35.7118 20.9854 36.323 21.9914 36.7385C22.9975 37.154 24.076 37.3654 25.1645 37.3605C26.2529 37.3556 27.3295 37.1345 28.3318 36.7101C29.3341 36.2856 30.242 35.6662 31.0029 34.8879C32.2032 33.6352 33.1333 32.1491 33.7353 30.522C34.3374 28.8949 34.5987 27.1614 34.5029 25.4291L34.1791 14.8154C34.1614 14.5771 34.0541 14.3543 33.8788 14.192C33.7034 14.0296 33.4731 13.9397 33.2341 13.9404C32.2281 13.9372 31.2599 14.3235 30.5324 15.0184C29.8049 15.7133 29.3746 16.6627 29.3316 17.6679Z"
        stroke="#0A8ED9" stroke-linecap="round" stroke-linejoin="round" />
      <path
        d="M29.2182 20.521L26.0945 23.6448C25.6064 24.1324 25.2191 24.7114 24.9549 25.3487C24.6907 25.9861 24.5547 26.6692 24.5547 27.3591C24.5547 28.0491 24.6907 28.7322 24.9549 29.3696C25.2191 30.0069 25.6064 30.5859 26.0945 31.0735M21.1507 8.48103C22.5411 8.71847 23.843 9.32258 24.922 10.231C25.9912 11.1805 26.8037 12.3843 27.2845 13.731M21.6495 6.14478C23.363 6.42044 24.9708 7.15181 26.3045 8.26228C27.6271 9.42877 28.63 10.9136 29.2182 12.576M4.12325 22.026C3.9847 23.4254 4.22338 24.8363 4.8145 26.1123C5.45557 27.3886 6.40991 28.4814 7.58825 29.2885M1.7345 21.9035C1.56768 23.6345 1.86992 25.3784 2.6095 26.9523C3.40177 28.5285 4.5784 29.8796 6.03075 30.881"
        stroke="#0A8ED9" stroke-linecap="round" stroke-linejoin="round" />
    </svg>
  </symbol>

  <symbol id="faq-icon" viewBox="0 0 16 9">
    <svg fill="none" xmlns="http://www.w3.org/2000/svg">
      <path d="M1.75 1.5L8 7.75L14.25 1.5" stroke="#4F4F4F" stroke-width="2" stroke-linecap="round"
        stroke-linejoin="round" />
    </svg>
  </symbol>
</svg>