<svg width="124" height="125" viewBox="0 0 124 125" fill="none" xmlns="http://www.w3.org/2000/svg">
<g opacity="0.8">
<path d="M65.2903 19.7013L30.0226 32.4852C27.0692 33.5564 25.5924 34.092 24.3514 34.9463C23.2469 35.7056 22.2805 36.6479 21.4938 37.7326C20.6088 38.9526 20.0374 40.4206 18.8987 43.3458L7.49504 72.6411C5.10691 78.776 3.91271 81.8438 4.19265 84.6583C4.44288 87.1274 5.46165 89.4538 7.1201 91.3038C8.99526 93.4078 12.0637 94.6019 18.19 96.9847L70.8273 117.461C76.9535 119.844 80.0167 121.036 82.8212 120.752C85.2926 120.507 87.622 119.486 89.4774 117.835C91.5845 115.955 92.7771 112.893 95.1602 106.769L106.572 77.4516C107.711 74.5267 108.281 73.0642 108.455 71.5615C108.61 70.2333 108.536 68.8885 108.237 67.5848C107.896 66.1088 107.178 64.713 105.718 61.9312L88.3717 28.6928C85.6763 23.5256 84.3242 20.937 82.2871 19.3626C80.4943 17.9714 78.3353 17.1315 76.0678 16.9432C73.5111 16.7279 70.7879 17.7128 65.349 19.6801M65.2903 19.7013L65.349 19.6801M65.2903 19.7013C65.3099 19.6942 65.3294 19.6871 65.349 19.6801" stroke="url(#paint0_linear_1_591)" stroke-width="2" stroke-linecap="round" stroke-linejoin="round"/>
<g style="mix-blend-mode:luminosity">
<path d="M65.2903 19.7013L30.0226 32.4852C27.0692 33.5564 25.5924 34.092 24.3514 34.9463C23.2469 35.7056 22.2805 36.6479 21.4938 37.7326C20.6088 38.9526 20.0374 40.4206 18.8987 43.3458L7.49504 72.6411C5.10691 78.776 3.91271 81.8438 4.19265 84.6583C4.44288 87.1274 5.46165 89.4538 7.1201 91.3038C8.99526 93.4078 12.0637 94.6019 18.19 96.9847L70.8273 117.461C76.9535 119.844 80.0167 121.036 82.8212 120.752C85.2926 120.507 87.622 119.486 89.4774 117.835C91.5845 115.955 92.7771 112.893 95.1602 106.769L106.572 77.4516C107.711 74.5267 108.281 73.0642 108.455 71.5615C108.61 70.2333 108.536 68.8885 108.237 67.5848C107.896 66.1088 107.178 64.713 105.718 61.9312L88.3717 28.6928C85.6763 23.5256 84.3242 20.937 82.2871 19.3626C80.4943 17.9714 78.3353 17.1315 76.0678 16.9432C73.5111 16.7279 70.7879 17.7128 65.349 19.6801M65.2903 19.7013L65.349 19.6801M65.2903 19.7013C65.3099 19.6942 65.3294 19.6871 65.349 19.6801" stroke="#3698F3" stroke-width="2" stroke-linecap="round" stroke-linejoin="round"/>
</g>
<g style="mix-blend-mode:darken">
<path d="M65.2903 19.7013L30.0226 32.4852C27.0692 33.5564 25.5924 34.092 24.3514 34.9463C23.2469 35.7056 22.2805 36.6479 21.4938 37.7326C20.6088 38.9526 20.0374 40.4206 18.8987 43.3458L7.49504 72.6411C5.10691 78.776 3.91271 81.8438 4.19265 84.6583C4.44288 87.1274 5.46165 89.4538 7.1201 91.3038C8.99526 93.4078 12.0637 94.6019 18.19 96.9847L70.8273 117.461C76.9535 119.844 80.0167 121.036 82.8212 120.752C85.2926 120.507 87.622 119.486 89.4774 117.835C91.5845 115.955 92.7771 112.893 95.1602 106.769L106.572 77.4516C107.711 74.5267 108.281 73.0642 108.455 71.5615C108.61 70.2333 108.536 68.8885 108.237 67.5848C107.896 66.1088 107.178 64.713 105.718 61.9312L88.3717 28.6928C85.6763 23.5256 84.3242 20.937 82.2871 19.3626C80.4943 17.9714 78.3353 17.1315 76.0678 16.9432C73.5111 16.7279 70.7879 17.7128 65.349 19.6801M65.2903 19.7013L65.349 19.6801M65.2903 19.7013C65.3099 19.6942 65.3294 19.6871 65.349 19.6801" stroke="#3698F3" stroke-width="2" stroke-linecap="round" stroke-linejoin="round"/>
</g>
</g>
<g opacity="0.8">
<path d="M18.8987 43.3458L7.49504 72.6411C5.10691 78.776 3.91271 81.8438 4.19265 84.6583C4.44288 87.1274 5.46165 89.4538 7.1201 91.3038C8.99526 93.4078 12.0637 94.6019 18.19 96.9847L70.8273 117.461C76.9535 119.844 80.0167 121.036 82.8212 120.752C85.2925 120.507 87.622 119.486 89.4774 117.835C91.5845 115.955 92.7771 112.893 95.1602 106.769L106.572 77.4516C107.711 74.5267 108.281 73.0642 108.455 71.5615C108.61 70.2333 108.536 68.8885 108.237 67.5848C107.896 66.1088 107.178 64.713 105.718 61.9312L88.3717 28.6928C85.6763 23.5256 84.3242 20.937 82.2871 19.3626C80.4943 17.9714 78.3353 17.1315 76.0678 16.9432C73.5111 16.7279 70.7879 17.7128 65.349 19.6801L65.2903 19.7013L30.0226 32.4852C27.0692 33.5564 25.5924 34.092 24.3514 34.9463C23.2469 35.7056 22.2805 36.6479 21.4938 37.7326C20.6088 38.9526 20.0374 40.4206 18.8987 43.3458Z" fill="url(#paint1_linear_1_591)"/>
<g style="mix-blend-mode:luminosity">
<path d="M18.8987 43.3458L7.49504 72.6411C5.10691 78.776 3.91271 81.8438 4.19265 84.6583C4.44288 87.1274 5.46165 89.4538 7.1201 91.3038C8.99526 93.4078 12.0637 94.6019 18.19 96.9847L70.8273 117.461C76.9535 119.844 80.0167 121.036 82.8212 120.752C85.2925 120.507 87.622 119.486 89.4774 117.835C91.5845 115.955 92.7771 112.893 95.1602 106.769L106.572 77.4516C107.711 74.5267 108.281 73.0642 108.455 71.5615C108.61 70.2333 108.536 68.8885 108.237 67.5848C107.896 66.1088 107.178 64.713 105.718 61.9312L88.3717 28.6928C85.6763 23.5256 84.3242 20.937 82.2871 19.3626C80.4943 17.9714 78.3353 17.1315 76.0678 16.9432C73.5111 16.7279 70.7879 17.7128 65.349 19.6801L65.2903 19.7013L30.0226 32.4852C27.0692 33.5564 25.5924 34.092 24.3514 34.9463C23.2469 35.7056 22.2805 36.6479 21.4938 37.7326C20.6088 38.9526 20.0374 40.4206 18.8987 43.3458Z" fill="#3698F3"/>
</g>
<g style="mix-blend-mode:darken">
<path d="M18.8987 43.3458L7.49504 72.6411C5.10691 78.776 3.91271 81.8438 4.19265 84.6583C4.44288 87.1274 5.46165 89.4538 7.1201 91.3038C8.99526 93.4078 12.0637 94.6019 18.19 96.9847L70.8273 117.461C76.9535 119.844 80.0167 121.036 82.8212 120.752C85.2925 120.507 87.622 119.486 89.4774 117.835C91.5845 115.955 92.7771 112.893 95.1602 106.769L106.572 77.4516C107.711 74.5267 108.281 73.0642 108.455 71.5615C108.61 70.2333 108.536 68.8885 108.237 67.5848C107.896 66.1088 107.178 64.713 105.718 61.9312L88.3717 28.6928C85.6763 23.5256 84.3242 20.937 82.2871 19.3626C80.4943 17.9714 78.3353 17.1315 76.0678 16.9432C73.5111 16.7279 70.7879 17.7128 65.349 19.6801L65.2903 19.7013L30.0226 32.4852C27.0692 33.5564 25.5924 34.092 24.3514 34.9463C23.2469 35.7056 22.2805 36.6479 21.4938 37.7326C20.6088 38.9526 20.0374 40.4206 18.8987 43.3458Z" fill="#3698F3"/>
</g>
</g>
<g opacity="0.8" filter="url(#filter0_if_1_591)">
<path d="M27.6575 49.3581L18.8499 71.9843C17.0054 76.7228 16.0831 79.092 16.2995 81.2655C16.4927 83.1727 17.2794 84.9697 18.5605 86.3981C20.0086 88.0234 22.3786 88.9454 27.1102 90.7861L67.7644 106.601C72.4959 108.442 74.8617 109.362 77.028 109.142C78.9365 108.953 80.7361 108.164 82.1686 106.889C83.7963 105.438 84.7165 103.073 86.5577 98.3427L95.3723 75.6998C96.2513 73.4404 96.6912 72.3109 96.8266 71.1505C96.9451 70.1244 96.8881 69.0858 96.6575 68.0792C96.3946 66.9392 95.8397 65.8611 94.7122 63.7126L81.3147 38.041C79.2329 34.0501 78.1887 32.0509 76.6153 30.8348C75.2306 29.7603 73.5631 29.1116 71.8118 28.9662C69.8372 28.7999 67.7339 29.5607 63.5332 31.08L63.4878 31.0964L36.249 40.97C33.968 41.7974 32.8275 42.211 31.8688 42.8709C31.0159 43.4572 30.2694 44.1851 29.6618 45.0229C28.9783 45.9652 28.537 47.099 27.6575 49.3581Z" fill="url(#paint2_linear_1_591)"/>
<g style="mix-blend-mode:luminosity">
<path d="M27.6575 49.3581L18.8499 71.9843C17.0054 76.7228 16.0831 79.092 16.2995 81.2655C16.4927 83.1727 17.2794 84.9697 18.5605 86.3981C20.0086 88.0234 22.3786 88.9454 27.1102 90.7861L67.7644 106.601C72.4959 108.442 74.8617 109.362 77.028 109.142C78.9365 108.953 80.7361 108.164 82.1686 106.889C83.7963 105.438 84.7165 103.073 86.5577 98.3427L95.3723 75.6998C96.2513 73.4404 96.6912 72.3109 96.8266 71.1505C96.9451 70.1244 96.8881 69.0858 96.6575 68.0792C96.3946 66.9392 95.8397 65.8611 94.7122 63.7126L81.3147 38.041C79.2329 34.0501 78.1887 32.0509 76.6153 30.8348C75.2306 29.7603 73.5631 29.1116 71.8118 28.9662C69.8372 28.7999 67.7339 29.5607 63.5332 31.08L63.4878 31.0964L36.249 40.97C33.968 41.7974 32.8275 42.211 31.8688 42.8709C31.0159 43.4572 30.2694 44.1851 29.6618 45.0229C28.9783 45.9652 28.537 47.099 27.6575 49.3581Z" fill="#3698F3"/>
</g>
<g style="mix-blend-mode:darken">
<path d="M27.6575 49.3581L18.8499 71.9843C17.0054 76.7228 16.0831 79.092 16.2995 81.2655C16.4927 83.1727 17.2794 84.9697 18.5605 86.3981C20.0086 88.0234 22.3786 88.9454 27.1102 90.7861L67.7644 106.601C72.4959 108.442 74.8617 109.362 77.028 109.142C78.9365 108.953 80.7361 108.164 82.1686 106.889C83.7963 105.438 84.7165 103.073 86.5577 98.3427L95.3723 75.6998C96.2513 73.4404 96.6912 72.3109 96.8266 71.1505C96.9451 70.1244 96.8881 69.0858 96.6575 68.0792C96.3946 66.9392 95.8397 65.8611 94.7122 63.7126L81.3147 38.041C79.2329 34.0501 78.1887 32.0509 76.6153 30.8348C75.2306 29.7603 73.5631 29.1116 71.8118 28.9662C69.8372 28.7999 67.7339 29.5607 63.5332 31.08L63.4878 31.0964L36.249 40.97C33.968 41.7974 32.8275 42.211 31.8688 42.8709C31.0159 43.4572 30.2694 44.1851 29.6618 45.0229C28.9783 45.9652 28.537 47.099 27.6575 49.3581Z" fill="#3698F3"/>
</g>
</g>
<defs>
<filter id="filter0_if_1_591" x="15.2684" y="27.9437" width="87.6182" height="85.2305" filterUnits="userSpaceOnUse" color-interpolation-filters="sRGB">
<feFlood flood-opacity="0" result="BackgroundImageFix"/>
<feBlend mode="normal" in="SourceGraphic" in2="BackgroundImageFix" result="shape"/>
<feColorMatrix in="SourceAlpha" type="matrix" values="0 0 0 0 0 0 0 0 0 0 0 0 0 0 0 0 0 0 127 0" result="hardAlpha"/>
<feOffset dx="6" dy="4"/>
<feGaussianBlur stdDeviation="12"/>
<feComposite in2="hardAlpha" operator="arithmetic" k2="-1" k3="1"/>
<feColorMatrix type="matrix" values="0 0 0 0 0 0 0 0 0 0 0 0 0 0 0 0 0 0 0.06 0"/>
<feBlend mode="normal" in2="shape" result="effect1_innerShadow_1_591"/>
<feGaussianBlur stdDeviation="0.5" result="effect2_foregroundBlur_1_591"/>
</filter>
<linearGradient id="paint0_linear_1_591" x1="79.3561" y1="17.702" x2="44.5285" y2="107.231" gradientUnits="userSpaceOnUse">
<stop stop-color="#64A7FE"/>
<stop offset="1" stop-color="#0A8ED9"/>
</linearGradient>
<linearGradient id="paint1_linear_1_591" x1="79.3561" y1="17.702" x2="44.5285" y2="107.231" gradientUnits="userSpaceOnUse">
<stop stop-color="#64A7FE"/>
<stop offset="1" stop-color="#0A8ED9"/>
</linearGradient>
<linearGradient id="paint2_linear_1_591" x1="74.3515" y1="29.5523" x2="47.4527" y2="98.6995" gradientUnits="userSpaceOnUse">
<stop stop-color="#64A7FE"/>
<stop offset="1" stop-color="#0A8ED9"/>
</linearGradient>
</defs>
</svg>
