<svg width="590" height="1165" viewBox="0 0 590 1165" fill="none" xmlns="http://www.w3.org/2000/svg">
<g opacity="0.3" clip-path="url(#clip0_1_605)">
<g opacity="0.9">
<mask id="mask0_1_605" style="mask-type:luminance" maskUnits="userSpaceOnUse" x="-989" y="-50" width="1937" height="1937">
<path d="M948 -50L948 1887L-989 1887L-989 -50L948 -50Z" fill="white"/>
</mask>
<g mask="url(#mask0_1_605)">
<path d="M55.379 1134.43L55.379 1195.25H-215.414V1134.43H55.379Z" fill="#E6F0F5"/>
<path d="M203.029 498.559V616.716H-317.636V498.559H203.029Z" fill="#BBDCEF"/>
<path d="M234.408 524.514V603.931H199.155V524.514H234.408Z" fill="#BBDCEF"/>
<path d="M255.715 538.461V589.211H233.246V538.461H255.715Z" fill="#BBDCEF"/>
<path d="M274.311 544.659V583.399H253.004V544.659H274.311Z" fill="#BBDCEF"/>
<path d="M180.561 779.811V897.968H-340.105V779.811H180.561Z" fill="#BBDCEF"/>
<path d="M208.84 805.379V884.796H173.587V805.379H208.84Z" fill="#BBDCEF"/>
<path d="M230.147 819.712V870.462H207.677V819.712H230.147Z" fill="#BBDCEF"/>
<path d="M248.742 825.911V864.651H227.435V825.911H248.742Z" fill="#BBDCEF"/>
<path d="M345.981 951.042V1069.2H-174.685V951.042H345.981Z" fill="#E6F0F5"/>
<path d="M378.135 976.998V1056.41H342.882V976.998H378.135Z" fill="#E6F0F5"/>
<path d="M399.055 990.945V1041.69H376.586V990.945H399.055Z" fill="#E6F0F5"/>
<path d="M418.037 997.143V1035.88H396.73V997.143H418.037Z" fill="#E6F0F5"/>
<path d="M405.252 298.273V416.43L-115.413 416.43V298.273H405.252Z" fill="#E6F0F5"/>
<path d="M437.406 323.841V403.258H402.153V323.841H437.406Z" fill="#E6F0F5"/>
<path d="M458.326 338.174V388.924H435.857V338.174H458.326Z" fill="#E6F0F5"/>
<path d="M477.309 344.373V383.113H456.002V344.373H477.309Z" fill="#E6F0F5"/>
<path d="M328.159 1165.27L396.729 1104.06L328.159 1047.12H-192.119V1165.27H328.159Z" fill="#BBDCEF"/>
<path d="M93.0079 409.069V487.711H-120.062V409.069H93.0079Z" fill="#BBDCEF"/>
<path d="M13.2032 304.859L13.2032 383.501H-323.06V304.859H13.2032Z" fill="#BBDCEF"/>
<path d="M326.223 194.449V273.092L-275.797 273.092V194.449L326.223 194.449Z" fill="#BBDCEF"/>
<path d="M376.584 68.9318V138.664L-275.41 138.664V68.9318L376.584 68.9318Z" fill="#BBDCEF"/>
<path d="M25.9884 -24.4314L25.9884 36.3904L-244.804 36.3904V-24.4314L25.9884 -24.4314Z" fill="#BBDCEF"/>
<path d="M364.576 898.742L-189.794 918.112C-189.794 918.112 -232.02 919.662 -220.786 878.21C-48.3929 851.092 245.644 846.056 364.963 862.714V898.742H364.576Z" fill="#8DBBED"/>
<path d="M364.576 944.068L-202.965 923.923L-213.037 880.535C-213.037 880.535 81.7743 855.741 364.189 892.157V944.068H364.576Z" fill="#196C9B"/>
<path d="M364.576 943.681V952.979C318.088 958.79 65.5036 987.457 -221.172 951.817C-227.371 914.626 -221.172 878.211 -221.172 878.211C-221.172 878.211 85.6483 911.14 180.174 923.536C256.879 933.996 337.071 941.357 364.576 943.681Z" fill="#53A6EA"/>
<path d="M183.272 269.605V323.841H163.514V269.605H183.272Z" fill="#196C9B"/>
<path d="M161.19 262.632V338.949H93.7822V262.632H161.19Z" fill="#196C9B"/>
<path d="M94.9456 256.433V345.535H-325.771V256.433H94.9456Z" fill="#196C9B"/>
<path d="M97.2696 261.469H165.839V268.055H191.795V272.704H203.03V293.624H283.996V307.57H203.03V328.49H191.795V333.526H165.839V340.112H97.2696V349.409L-328.096 349.409V252.172L97.2696 252.172V261.469ZM170.488 321.904H179.398V317.255H170.488V321.904ZM170.488 315.318H179.398V310.669H170.488V315.318ZM170.488 308.732H179.398V304.083H170.488V308.732ZM170.488 301.759H179.398V297.11H170.488V301.759ZM170.488 295.173H179.398V290.524H170.488V295.173ZM170.488 288.587H179.398V283.939H170.488V288.587ZM170.488 281.614H179.398V276.965H170.488V281.614ZM179.398 270.38H170.488V275.028H179.398V270.38ZM122.451 268.83H133.685V263.019H122.451V268.83ZM152.28 271.542H142.208V277.353H152.28V271.542ZM122.451 277.353H133.685V271.542H122.451V277.353ZM114.315 271.542H103.081V277.353H114.315V271.542ZM152.28 280.065H142.208V285.876H152.28V280.065ZM114.315 280.065H103.081V285.876H114.315V280.065ZM152.28 288.2H142.208V294.011H152.28V288.2ZM122.451 294.011H133.685V288.2H122.451V294.011ZM114.315 288.2H103.081V294.011H114.315V288.2ZM122.451 302.534H133.685V296.723H122.451V302.534ZM152.28 305.246H142.208V311.057H152.28V305.246ZM122.451 310.669H133.685V304.858H122.451V310.669ZM152.28 313.381H142.208V319.192H152.28V313.381ZM114.315 313.381H103.081V319.192H114.315V313.381ZM152.28 321.904H142.208V327.715H152.28V321.904ZM133.685 321.904H122.451V327.715H133.685V321.904ZM133.685 335.85V330.039H122.451V335.85H133.685ZM114.315 335.85V330.039H103.081V335.85H114.315ZM-320.735 336.238V342.823H-310.275V336.238H-320.735ZM-304.464 336.238V342.823H-294.004V336.238H-304.464ZM-288.581 336.238V342.823H-278.121V336.238H-288.581ZM-272.697 336.238V342.823H-262.238V336.238H-272.697ZM-256.814 336.238V342.823H-246.354V336.238H-256.814ZM-240.543 336.238V342.823H-230.083V336.238H-240.543ZM-224.66 336.238V342.823H-214.2V336.238H-224.66ZM-208.776 336.238V342.823H-198.317V336.238H-208.776ZM-192.893 336.238V342.823L-182.433 342.823V336.238H-192.893ZM-177.01 336.238V342.823H-166.55V336.238H-177.01ZM-160.739 336.238V342.823H-150.279V336.238H-160.739ZM-144.855 336.238V342.823H-134.396V336.238H-144.855ZM-128.972 336.238V342.823H-118.512V336.238H-128.972ZM-113.089 336.238V342.823H-102.629V336.238H-113.089ZM-96.8178 336.238V342.823H-86.358V336.238H-96.8178ZM-80.9344 336.238V342.823H-70.4745V336.238H-80.9344ZM-65.051 336.238V342.823H-54.5911V336.238H-65.051ZM-49.1675 336.238V342.823H-38.7078V336.238H-49.1675ZM-32.8968 336.238V342.823H-22.437V336.238H-32.8968ZM-17.0134 336.238V342.823H-6.55356V336.238H-17.0134ZM-1.12997 336.238V342.823H9.3298V336.238H-1.12997ZM14.7534 336.238V342.823H25.2132V336.238H14.7534ZM31.0242 336.238V342.823H41.484V336.238H31.0242ZM46.9076 336.238V342.823H57.3674V336.238H46.9076ZM62.791 336.238V342.823H73.2508V336.238H62.791ZM78.6744 336.238V342.823H89.1342V336.238H78.6744ZM-320.735 327.715V334.301H-310.275V327.715H-320.735ZM-304.464 327.715V334.301H-294.004V327.715H-304.464ZM-288.581 327.715V334.301H-278.121V327.715H-288.581ZM-272.697 327.715V334.301H-262.238V327.715H-272.697ZM-256.814 327.715V334.301H-246.354V327.715H-256.814ZM-240.543 327.715V334.301H-230.083V327.715H-240.543ZM-224.66 327.715V334.301H-214.2V327.715H-224.66ZM-208.776 327.715V334.301H-198.317V327.715H-208.776ZM-192.893 327.715V334.301H-182.433V327.715H-192.893ZM-177.01 327.715V334.301H-166.55V327.715H-177.01ZM-160.739 327.715V334.301H-150.279V327.715H-160.739ZM-144.855 327.715V334.301H-134.396V327.715H-144.855ZM-128.972 327.715V334.301H-118.512V327.715H-128.972ZM-113.089 327.715V334.301H-102.629V327.715H-113.089ZM-96.8178 327.715V334.301H-86.358V327.715H-96.8178ZM-80.9344 327.715V334.301H-70.4745V327.715H-80.9344ZM-65.051 327.715V334.301H-54.5911V327.715H-65.051ZM-49.1675 327.715V334.301H-38.7078V327.715H-49.1675ZM-32.8968 327.715V334.301H-22.437V327.715H-32.8968ZM-17.0134 327.715V334.301H-6.55356V327.715H-17.0134ZM-1.12997 327.715V334.301H9.3298V327.715H-1.12997ZM14.7534 327.715V334.301H25.2132V327.715H14.7534ZM31.0242 327.715V334.301H41.484V327.715H31.0242ZM46.9076 327.715V334.301H57.3674V327.715H46.9076ZM62.791 327.715V334.301H73.2508V327.715H62.791ZM78.6744 327.715V334.301H89.1342V327.715H78.6744ZM-320.735 319.192V325.778H-310.275V319.192H-320.735ZM-304.464 319.192V325.778H-294.004V319.192H-304.464ZM-288.581 319.192V325.778H-278.121V319.192H-288.581ZM-272.697 319.192V325.778H-262.238V319.192H-272.697ZM-256.814 319.192V325.778H-246.354V319.192H-256.814ZM-240.543 319.192V325.778H-230.083V319.192H-240.543ZM-224.66 319.192V325.778H-214.2V319.192H-224.66ZM-208.776 319.192V325.778H-198.317V319.192H-208.776ZM-192.893 319.192V325.778H-182.433V319.192H-192.893ZM-177.01 319.192V325.778H-166.55V319.192H-177.01ZM-160.739 319.192V325.778H-150.279V319.192H-160.739ZM-144.855 319.192V325.778H-134.396V319.192H-144.855ZM-128.972 319.192V325.778H-118.512V319.192H-128.972ZM-113.089 319.192V325.778H-102.629V319.192H-113.089ZM-96.8178 319.192V325.778H-86.358V319.192H-96.8178ZM-80.9344 319.192V325.778H-70.4745V319.192H-80.9344ZM-65.051 319.192V325.778H-54.5911V319.192H-65.051ZM-49.1675 319.192V325.778H-38.7078V319.192H-49.1675ZM-32.8968 319.192V325.778H-22.437V319.192H-32.8968ZM-17.0134 319.192V325.778H-6.55356V319.192H-17.0134ZM-1.12997 319.192V325.778H9.3298V319.192H-1.12997ZM14.7534 319.192V325.778H25.2132V319.192H14.7534ZM31.0242 319.192V325.778H41.484V319.192H31.0242ZM46.9076 319.192V325.778H57.3674V319.192H46.9076ZM62.791 319.192V325.778H73.2508V319.192H62.791ZM78.6744 319.192V325.778H89.1342V319.192H78.6744ZM-320.735 310.669V317.255H-310.275V310.669H-320.735ZM-304.464 310.669V317.255H-294.004V310.669H-304.464ZM-288.581 310.669V317.255H-278.121V310.669H-288.581ZM-272.697 310.669V317.255H-262.238V310.669H-272.697ZM-256.814 310.669V317.255H-246.354V310.669H-256.814ZM-240.543 310.669V317.255L-230.083 317.255V310.669L-240.543 310.669ZM-224.66 310.669V317.255H-214.2V310.669H-224.66ZM-208.776 310.669V317.255H-198.317V310.669H-208.776ZM-192.893 310.669V317.255H-182.433V310.669H-192.893ZM-177.01 310.669V317.255H-166.55V310.669H-177.01ZM-160.739 310.669V317.255H-150.279V310.669H-160.739ZM-144.855 310.669V317.255H-134.396V310.669H-144.855ZM-128.972 310.669V317.255H-118.512V310.669H-128.972ZM-113.089 310.669V317.255H-102.629V310.669H-113.089ZM-96.8178 310.669V317.255H-86.358V310.669H-96.8178ZM-80.9344 310.669V317.255H-70.4745V310.669H-80.9344ZM-65.051 310.669V317.255H-54.5911V310.669H-65.051ZM-49.1675 310.669V317.255H-38.7078V310.669H-49.1675ZM-32.8968 310.669V317.255H-22.437V310.669H-32.8968ZM-17.0134 310.669V317.255H-6.55356V310.669H-17.0134ZM-1.12997 310.669V317.255H9.3298V310.669H-1.12997ZM14.7534 310.669V317.255H25.2132V310.669H14.7534ZM31.0242 310.669V317.255H41.484V310.669H31.0242ZM46.9076 310.669V317.255H57.3674V310.669H46.9076ZM62.791 310.669V317.255H73.2508V310.669H62.791ZM-320.735 302.146V308.732H-310.275V302.146H-320.735ZM-304.464 302.146V308.732H-294.004V302.146H-304.464ZM-288.581 302.146V308.732H-278.121V302.146H-288.581ZM-272.697 302.146V308.732H-262.238V302.146H-272.697ZM-256.814 302.146V308.732H-246.354V302.146H-256.814ZM-240.543 302.146V308.732L-230.083 308.732V302.146L-240.543 302.146ZM-224.66 302.146V308.732H-214.2V302.146H-224.66ZM-208.776 302.146V308.732H-198.317V302.146H-208.776ZM-192.893 302.146V308.732H-182.433V302.146H-192.893ZM-177.01 302.146V308.732H-166.55V302.146H-177.01ZM-160.739 302.146V308.732H-150.279V302.146H-160.739ZM-144.855 302.146V308.732H-134.396V302.146H-144.855ZM-128.972 302.146V308.732H-118.512V302.146H-128.972ZM-113.089 302.146V308.732H-102.629V302.146H-113.089ZM-96.8178 302.146V308.732H-86.358V302.146H-96.8178ZM-80.9344 302.146V308.732H-70.4745V302.146H-80.9344ZM-65.051 302.146V308.732H-54.5911V302.146H-65.051ZM-49.1675 302.146V308.732H-38.7078V302.146H-49.1675ZM-32.8968 302.146V308.732H-22.437V302.146H-32.8968ZM-17.0134 302.146V308.732H-6.55356V302.146H-17.0134ZM-1.12997 302.146V308.732H9.3298V302.146H-1.12997ZM14.7534 302.146V308.732H25.2132V302.146H14.7534ZM31.0242 302.146V308.732H41.484V302.146H31.0242ZM46.9076 302.146V308.732H57.3674V302.146H46.9076ZM62.791 302.146V308.732H73.2508V302.146H62.791ZM78.6744 302.146V308.732H89.1342V302.146H78.6744ZM-320.735 294.011V300.597H-310.275V294.011H-320.735ZM-304.464 294.011V300.597H-294.004V294.011H-304.464ZM-288.581 294.011V300.597H-278.121V294.011H-288.581ZM-272.697 294.011V300.597H-262.238V294.011H-272.697ZM-256.814 294.011V300.597H-246.354V294.011H-256.814ZM-240.543 294.011V300.597L-230.083 300.597V294.011L-240.543 294.011ZM-224.66 294.011V300.597H-214.2V294.011H-224.66ZM-208.776 294.011V300.597H-198.317V294.011H-208.776ZM-192.893 294.011V300.597H-182.433V294.011H-192.893ZM-177.01 294.011V300.597H-166.55V294.011H-177.01ZM-160.739 294.011V300.597H-150.279V294.011H-160.739ZM-144.855 294.011V300.597H-134.396V294.011H-144.855ZM-128.972 294.011V300.597H-118.512V294.011H-128.972ZM-113.089 294.011V300.597H-102.629V294.011H-113.089ZM-96.8178 294.011V300.597H-86.358V294.011H-96.8178ZM-80.9344 294.011V300.597H-70.4745V294.011H-80.9344ZM-65.051 294.011V300.597H-54.5911V294.011H-65.051ZM-49.1675 294.011V300.597H-38.7078V294.011H-49.1675ZM-32.8968 294.011V300.597H-22.437V294.011H-32.8968ZM-17.0134 294.011V300.597H-6.55356V294.011H-17.0134ZM-1.12997 294.011V300.597H9.3298V294.011H-1.12997ZM14.7534 294.011V300.597H25.2132V294.011H14.7534ZM31.0242 294.011V300.597H41.484V294.011H31.0242ZM46.9076 294.011V300.597H57.3674V294.011H46.9076ZM62.791 294.011V300.597H73.2508V294.011H62.791ZM78.6744 294.011V300.597H89.1342V294.011H78.6744ZM-320.735 285.488V292.074H-310.275V285.488H-320.735ZM-304.464 285.488V292.074H-294.004V285.488H-304.464ZM-288.581 285.488V292.074H-278.121V285.488H-288.581ZM-272.697 285.488V292.074H-262.238V285.488H-272.697ZM-256.814 285.488V292.074H-246.354V285.488H-256.814ZM-240.543 285.488V292.074L-230.083 292.074V285.488L-240.543 285.488ZM-224.66 285.488V292.074H-214.2V285.488H-224.66ZM-208.776 285.488V292.074H-198.317V285.488H-208.776ZM-192.893 285.488V292.074H-182.433V285.488H-192.893ZM-177.01 285.488V292.074H-166.55V285.488H-177.01ZM-160.739 285.488V292.074H-150.279V285.488H-160.739ZM-144.855 285.488V292.074H-134.396V285.488H-144.855ZM-128.972 285.488V292.074H-118.512V285.488H-128.972ZM-113.089 285.488V292.074H-102.629V285.488H-113.089ZM-96.8178 285.488V292.074H-86.358V285.488H-96.8178ZM-80.9344 285.488V292.074H-70.4745V285.488H-80.9344ZM-65.051 285.488V292.074H-54.5911V285.488H-65.051ZM-49.1675 285.488V292.074H-38.7078V285.488H-49.1675ZM-32.8968 285.488V292.074H-22.437V285.488H-32.8968ZM-17.0134 285.488V292.074H-6.55356V285.488H-17.0134ZM-1.12997 285.488V292.074H9.3298V285.488H-1.12997ZM14.7534 285.488V292.074H25.2132V285.488H14.7534ZM31.0242 285.488V292.074H41.484V285.488H31.0242ZM46.9076 285.488V292.074H57.3674V285.488H46.9076ZM62.791 285.488V292.074H73.2508V285.488H62.791ZM78.6744 285.488V292.074H89.1342V285.488H78.6744ZM-320.735 276.578V283.164H-310.275V276.578H-320.735ZM-304.464 276.578V283.164L-294.004 283.164V276.578L-304.464 276.578ZM-288.581 276.578V283.164H-278.121V276.578H-288.581ZM-272.697 276.578V283.164H-262.238V276.578H-272.697ZM-256.814 276.578V283.164H-246.354V276.578H-256.814ZM-240.543 276.578V283.164H-230.083V276.578H-240.543ZM-224.66 276.578V283.164H-214.2V276.578H-224.66ZM-208.776 276.578V283.164H-198.317V276.578H-208.776ZM-192.893 276.578V283.164H-182.433V276.578H-192.893ZM-177.01 276.578V283.164H-166.55V276.578H-177.01ZM-160.739 276.578V283.164H-150.279V276.578H-160.739ZM-144.855 276.578V283.164H-134.396V276.578H-144.855ZM-128.972 276.578V283.164H-118.512V276.578H-128.972ZM-113.089 276.578V283.164H-102.629V276.578H-113.089ZM-96.8178 276.578V283.164H-86.358V276.578H-96.8178ZM-80.9344 276.578V283.164H-70.4745V276.578H-80.9344ZM-65.051 276.578V283.164H-54.5911V276.578H-65.051ZM-49.1675 276.578V283.164H-38.7078V276.578H-49.1675ZM-32.8968 276.578V283.164H-22.437V276.578H-32.8968ZM-17.0134 276.578V283.164H-6.55356V276.578H-17.0134ZM-1.12997 276.578V283.164H9.3298V276.578H-1.12997ZM14.7534 276.578V283.164H25.2132V276.578H14.7534ZM31.0242 276.578V283.164H41.484V276.578H31.0242ZM46.9076 276.578V283.164H57.3674V276.578H46.9076ZM62.791 276.578V283.164H73.2508V276.578H62.791ZM78.6744 276.578V283.164H89.1342V276.578H78.6744ZM-320.735 268.055V274.641H-310.275V268.055H-320.735ZM-304.464 268.055V274.641L-294.004 274.641V268.055L-304.464 268.055ZM-288.581 268.055V274.641H-278.121V268.055H-288.581ZM-272.697 268.055V274.641H-262.238V268.055H-272.697ZM-256.814 268.055V274.641H-246.354V268.055H-256.814ZM-240.543 268.055V274.641H-230.083V268.055H-240.543ZM-224.66 268.055V274.641H-214.2V268.055H-224.66ZM-208.776 268.055V274.641H-198.317V268.055H-208.776ZM-192.893 268.055V274.641H-182.433V268.055H-192.893ZM-177.01 268.055V274.641H-166.55V268.055H-177.01ZM-160.739 268.055V274.641H-150.279V268.055H-160.739ZM-144.855 268.055V274.641H-134.396V268.055H-144.855ZM-128.972 268.055V274.641H-118.512V268.055H-128.972ZM-113.089 268.055V274.641H-102.629V268.055H-113.089ZM-96.8178 268.055V274.641H-86.358V268.055H-96.8178ZM-80.9344 268.055V274.641H-70.4745V268.055H-80.9344ZM-65.051 268.055V274.641H-54.5911V268.055H-65.051ZM-49.1675 268.055V274.641H-38.7078V268.055H-49.1675ZM-32.8968 268.055V274.641H-22.437V268.055H-32.8968ZM-17.0134 268.055V274.641H-6.55356V268.055H-17.0134ZM-1.12997 268.055V274.641H9.3298V268.055H-1.12997ZM14.7534 268.055V274.641H25.2132V268.055H14.7534ZM31.0242 268.055V274.641H41.484V268.055H31.0242ZM46.9076 268.055V274.641H57.3674V268.055H46.9076ZM62.791 268.055V274.641H73.2508V268.055H62.791ZM78.6744 268.055V274.641H89.1342V268.055H78.6744ZM-320.735 259.532V266.118H-310.275V259.532H-320.735ZM-304.464 259.532V266.118L-294.004 266.118V259.532L-304.464 259.532ZM-288.581 259.532V266.118H-278.121V259.532H-288.581ZM-272.697 259.532V266.118H-262.238V259.532H-272.697ZM-256.814 259.532V266.118H-246.354V259.532H-256.814ZM-240.543 259.532V266.118H-230.083V259.532H-240.543ZM-224.66 259.532V266.118H-214.2V259.532H-224.66ZM-208.776 259.532V266.118H-198.317V259.532H-208.776ZM-192.893 259.532V266.118H-182.433V259.532H-192.893ZM-177.01 259.532V266.118H-166.55V259.532H-177.01ZM-160.739 259.532V266.118H-150.279V259.532H-160.739ZM-144.855 259.532V266.118H-134.396V259.532H-144.855ZM-128.972 259.532V266.118H-118.512V259.532H-128.972ZM-113.089 259.532V266.118H-102.629V259.532H-113.089ZM-96.8178 259.532V266.118H-86.358V259.532H-96.8178ZM-80.9344 259.532V266.118H-70.4745V259.532H-80.9344ZM-65.051 259.532V266.118H-54.5911V259.532H-65.051ZM-49.1675 259.532V266.118H-38.7078V259.532H-49.1675ZM-32.8968 259.532V266.118H-22.437V259.532H-32.8968ZM-17.0134 259.532V266.118H-6.55356V259.532H-17.0134ZM-1.12997 259.532V266.118H9.3298V259.532H-1.12997ZM14.7534 259.532V266.118H25.2132V259.532H14.7534ZM31.0242 259.532V266.118H41.484V259.532H31.0242ZM46.9076 259.532V266.118H57.3674V259.532H46.9076ZM62.791 259.532V266.118H73.2508V259.532H62.791ZM78.6744 259.532V266.118H89.1342V259.532H78.6744Z" fill="#53A6EA"/>
<path d="M93.0099 997.142V1092.44H-250.614V997.142H93.0099Z" fill="#196C9B"/>
<path d="M94.5587 1095.54H-253.714V995.593H94.5587V1095.54ZM-247.516 1081.6V1088.18H-238.605V1081.6H-247.516ZM-234.344 1081.6V1088.18H-225.434V1081.6H-234.344ZM-221.172 1081.6V1088.18H-212.262V1081.6H-221.172ZM-208.001 1081.6V1088.18H-199.091V1081.6H-208.001ZM-195.216 1081.6V1088.18H-186.306V1081.6H-195.216ZM-182.045 1081.6V1088.18H-173.135V1081.6H-182.045ZM-168.873 1081.6V1088.18H-159.963V1081.6H-168.873ZM-155.702 1081.6V1088.18H-146.792V1081.6H-155.702ZM-142.917 1081.6V1088.18H-134.007V1081.6H-142.917ZM-129.746 1081.6V1088.18H-120.836V1081.6H-129.746ZM-116.574 1081.6V1088.18H-107.664V1081.6H-116.574ZM-103.403 1081.6V1088.18H-94.4925V1081.6H-103.403ZM-90.2311 1081.6V1088.18H-81.3209V1081.6H-90.2311ZM-77.4469 1081.6V1088.18H-68.5367V1081.6H-77.4469ZM-64.2752 1081.6V1088.18H-55.3651V1081.6H-64.2752ZM-51.1037 1081.6V1088.18H-42.1935V1081.6H-51.1037ZM-37.9321 1081.6V1088.18H-29.0219V1081.6H-37.9321ZM-24.7605 1081.6V1088.18H-15.8503V1081.6H-24.7605ZM-11.9763 1081.6V1088.18H-3.06607V1081.6H-11.9763ZM1.19535 1081.6V1088.18H10.1055V1081.6H1.19535ZM14.3669 1081.6V1088.18H23.2771V1081.6H14.3669ZM27.5385 1081.6V1088.18H36.4487V1081.6H27.5385ZM40.3227 1081.6V1088.18H49.2329V1081.6H40.3227ZM53.4944 1081.6V1088.18H62.4045V1081.6H53.4944ZM66.6659 1081.6V1088.18H75.5761V1081.6H66.6659ZM79.8375 1081.6V1088.18H88.7477V1081.6H79.8375ZM-247.516 1073.07V1079.66H-238.605V1073.07H-247.516ZM-234.344 1073.07V1079.66H-225.434V1073.07H-234.344ZM-221.172 1073.07V1079.66H-212.262V1073.07H-221.172ZM-208.001 1073.07V1079.66H-199.091V1073.07H-208.001ZM-195.216 1073.07V1079.66H-186.306V1073.07H-195.216ZM-182.045 1073.07V1079.66H-173.135V1073.07H-182.045ZM-168.873 1073.07V1079.66H-159.963V1073.07H-168.873ZM-155.702 1073.07V1079.66H-146.792V1073.07H-155.702ZM-142.917 1073.07V1079.66H-134.007V1073.07H-142.917ZM-129.746 1073.07V1079.66H-120.836V1073.07H-129.746ZM-116.574 1073.07V1079.66H-107.664V1073.07H-116.574ZM-103.403 1073.07V1079.66H-94.4925V1073.07H-103.403ZM-90.2311 1073.07V1079.66H-81.3209V1073.07H-90.2311ZM-77.4469 1073.07V1079.66H-68.5367V1073.07H-77.4469ZM-64.2752 1073.07V1079.66H-55.3651V1073.07H-64.2752ZM-51.1037 1073.07V1079.66H-42.1935V1073.07H-51.1037ZM-37.9321 1073.07V1079.66H-29.0219V1073.07H-37.9321ZM-24.7605 1073.07V1079.66H-15.8503V1073.07H-24.7605ZM-11.9763 1073.07V1079.66H-3.06607V1073.07H-11.9763ZM1.19535 1073.07V1079.66H10.1055V1073.07H1.19535ZM14.3669 1073.07V1079.66H23.2771V1073.07H14.3669ZM27.5385 1073.07V1079.66H36.4487V1073.07H27.5385ZM40.3227 1073.07V1079.66H49.2329V1073.07H40.3227ZM53.4944 1073.07V1079.66H62.4045V1073.07H53.4944ZM66.6659 1073.07V1079.66H75.5761V1073.07H66.6659ZM79.8375 1073.07V1079.66H88.7477V1073.07H79.8375ZM-247.516 1064.55V1071.14H-238.605V1064.55H-247.516ZM-234.344 1064.55V1071.14H-225.434V1064.55H-234.344ZM-221.172 1064.55V1071.14H-212.262V1064.55H-221.172ZM-208.001 1064.55V1071.14H-199.091V1064.55H-208.001ZM-195.216 1064.55V1071.14H-186.306V1064.55H-195.216ZM-182.045 1064.55V1071.14H-173.135V1064.55H-182.045ZM-168.873 1064.55V1071.14H-159.963V1064.55H-168.873ZM-155.702 1064.55V1071.14H-146.792V1064.55H-155.702ZM-142.917 1064.55V1071.14H-134.007V1064.55H-142.917ZM-129.746 1064.55V1071.14H-120.836V1064.55H-129.746ZM-116.574 1064.55V1071.14H-107.664V1064.55H-116.574ZM-103.403 1064.55V1071.14H-94.4925V1064.55H-103.403ZM-90.2311 1064.55V1071.14H-81.3209V1064.55H-90.2311ZM-77.4469 1064.55V1071.14H-68.5367V1064.55H-77.4469ZM-64.2752 1064.55V1071.14H-55.3651V1064.55H-64.2752ZM-51.1037 1064.55V1071.14H-42.1935V1064.55H-51.1037ZM-37.9321 1064.55V1071.14H-29.0219V1064.55H-37.9321ZM-24.7605 1064.55V1071.14H-15.8503V1064.55H-24.7605ZM-11.9763 1064.55V1071.14H-3.06607V1064.55H-11.9763ZM1.19535 1064.55V1071.14H10.1055V1064.55H1.19535ZM14.3669 1064.55V1071.14H23.2771V1064.55H14.3669ZM27.5385 1064.55V1071.14H36.4487V1064.55H27.5385ZM40.3227 1064.55V1071.14H49.2329V1064.55H40.3227ZM53.4944 1064.55V1071.14H62.4045V1064.55H53.4944ZM66.6659 1064.55V1071.14H75.5761V1064.55H66.6659ZM79.8375 1064.55V1071.14H88.7477V1064.55H79.8375ZM-247.516 1055.64V1062.23H-238.605V1055.64H-247.516ZM-234.344 1055.64V1062.23H-225.434V1055.64H-234.344ZM-221.172 1055.64V1062.23H-212.262V1055.64H-221.172ZM-208.001 1055.64V1062.23H-199.091V1055.64H-208.001ZM-195.216 1055.64V1062.23H-186.306V1055.64H-195.216ZM-182.045 1055.64V1062.23H-173.135V1055.64H-182.045ZM-168.873 1055.64V1062.23H-159.963V1055.64H-168.873ZM-155.702 1055.64V1062.23H-146.792V1055.64H-155.702ZM-142.917 1055.64V1062.23H-134.007V1055.64H-142.917ZM-129.746 1055.64V1062.23H-120.836V1055.64H-129.746ZM-116.574 1055.64V1062.23H-107.664V1055.64H-116.574ZM-103.403 1055.64V1062.23H-94.4925V1055.64H-103.403ZM-90.2311 1055.64V1062.23H-81.3209V1055.64H-90.2311ZM-77.4469 1055.64V1062.23H-68.5367V1055.64H-77.4469ZM-64.2752 1055.64V1062.23H-55.3651V1055.64H-64.2752ZM-51.1037 1055.64V1062.23H-42.1935V1055.64H-51.1037ZM-37.9321 1055.64V1062.23H-29.0219V1055.64H-37.9321ZM-24.7605 1055.64V1062.23H-15.8503V1055.64H-24.7605ZM-11.9763 1055.64V1062.23H-3.06607V1055.64H-11.9763ZM1.19535 1055.64V1062.23H10.1055V1055.64H1.19535ZM14.3669 1055.64V1062.23H23.2771V1055.64H14.3669ZM27.5385 1055.64V1062.23H36.4487V1055.64H27.5385ZM40.3227 1055.64V1062.23H49.2329V1055.64H40.3227ZM53.4944 1055.64V1062.23H62.4045V1055.64H53.4944ZM66.6659 1055.64V1062.23H75.5761V1055.64H66.6659ZM-247.516 1047.12V1053.7H-238.605V1047.12H-247.516ZM-234.344 1047.12V1053.7H-225.434V1047.12H-234.344ZM-221.172 1047.12V1053.7H-212.262V1047.12H-221.172ZM-208.001 1047.12V1053.7H-199.091V1047.12H-208.001ZM-195.216 1047.12V1053.7H-186.306V1047.12H-195.216ZM-182.045 1047.12V1053.7H-173.135V1047.12H-182.045ZM-168.873 1047.12V1053.7H-159.963V1047.12H-168.873ZM-155.702 1047.12V1053.7H-146.792V1047.12H-155.702ZM-142.917 1047.12V1053.7H-134.007V1047.12H-142.917ZM-129.746 1047.12V1053.7H-120.836V1047.12H-129.746ZM-116.574 1047.12V1053.7H-107.664V1047.12H-116.574ZM-103.403 1047.12V1053.7H-94.4925V1047.12H-103.403ZM-90.2311 1047.12V1053.7H-81.3209V1047.12H-90.2311ZM-77.4469 1047.12V1053.7H-68.5367V1047.12H-77.4469ZM-64.2752 1047.12V1053.7H-55.3651V1047.12H-64.2752ZM-51.1037 1047.12V1053.7H-42.1935V1047.12H-51.1037ZM-37.9321 1047.12V1053.7H-29.0219V1047.12H-37.9321ZM-24.7605 1047.12V1053.7H-15.8503V1047.12H-24.7605ZM-11.9763 1047.12V1053.7H-3.06607V1047.12H-11.9763ZM1.19535 1047.12V1053.7H10.1055V1047.12H1.19535ZM14.3669 1047.12V1053.7H23.2771V1047.12H14.3669ZM27.5385 1047.12V1053.7H36.4487V1047.12H27.5385ZM40.3227 1047.12V1053.7H49.2329V1047.12H40.3227ZM53.4944 1047.12V1053.7H62.4045V1047.12H53.4944ZM66.6659 1047.12V1053.7H75.5761V1047.12H66.6659ZM79.8375 1047.12V1053.7H88.7477V1047.12H79.8375ZM-247.516 1038.21V1044.79H-238.605V1038.21H-247.516ZM-234.344 1038.21V1044.79H-225.434V1038.21H-234.344ZM-221.172 1038.21V1044.79H-212.262V1038.21H-221.172ZM-208.001 1038.21V1044.79H-199.091V1038.21H-208.001ZM-195.216 1038.21V1044.79H-186.306V1038.21H-195.216ZM-182.045 1038.21V1044.79H-173.135V1038.21H-182.045ZM-168.873 1038.21V1044.79H-159.963V1038.21H-168.873ZM-155.702 1038.21V1044.79H-146.792V1038.21H-155.702ZM-142.917 1038.21V1044.79H-134.007V1038.21H-142.917ZM-129.746 1038.21V1044.79H-120.836V1038.21H-129.746ZM-116.574 1038.21V1044.79H-107.664V1038.21H-116.574ZM-103.403 1038.21V1044.79H-94.4925V1038.21H-103.403ZM-90.2311 1038.21V1044.79H-81.3209V1038.21H-90.2311ZM-77.4469 1038.21V1044.79H-68.5367V1038.21H-77.4469ZM-64.2752 1038.21V1044.79H-55.3651V1038.21H-64.2752ZM-51.1037 1038.21V1044.79H-42.1935V1038.21H-51.1037ZM-37.9321 1038.21V1044.79H-29.0219V1038.21H-37.9321ZM-24.7605 1038.21V1044.79H-15.8503V1038.21H-24.7605ZM-11.9763 1038.21V1044.79H-3.06607V1038.21H-11.9763ZM1.19535 1038.21V1044.79H10.1055V1038.21H1.19535ZM14.3669 1038.21V1044.79H23.2771V1038.21H14.3669ZM27.5385 1038.21V1044.79H36.4487V1038.21H27.5385ZM40.3227 1038.21V1044.79H49.2329V1038.21H40.3227ZM53.4944 1038.21V1044.79H62.4045V1038.21H53.4944ZM66.6659 1038.21V1044.79H75.5761V1038.21H66.6659ZM79.8375 1038.21V1044.79H88.7477V1038.21H79.8375ZM-247.516 1029.68V1036.27H-238.605V1029.68H-247.516ZM-234.344 1029.68V1036.27H-225.434V1029.68H-234.344ZM-221.172 1029.68V1036.27H-212.262V1029.68H-221.172ZM-208.001 1029.68V1036.27H-199.091V1029.68H-208.001ZM-195.216 1029.68V1036.27H-186.306V1029.68H-195.216ZM-182.045 1029.68V1036.27H-173.135V1029.68H-182.045ZM-168.873 1029.68V1036.27H-159.963V1029.68H-168.873ZM-155.702 1029.68V1036.27H-146.792V1029.68H-155.702ZM-142.917 1029.68V1036.27H-134.007V1029.68H-142.917ZM-129.746 1029.68V1036.27H-120.836V1029.68H-129.746ZM-116.574 1029.68V1036.27H-107.664V1029.68H-116.574ZM-103.403 1029.68V1036.27H-94.4925V1029.68H-103.403ZM-90.2311 1029.68V1036.27H-81.3209V1029.68H-90.2311ZM-77.4469 1029.68V1036.27H-68.5367V1029.68H-77.4469ZM-64.2752 1029.68V1036.27H-55.3651V1029.68H-64.2752ZM-51.1037 1029.68V1036.27H-42.1935V1029.68H-51.1037ZM-37.9321 1029.68V1036.27H-29.0219V1029.68H-37.9321ZM-24.7605 1029.68V1036.27H-15.8503V1029.68H-24.7605ZM-11.9763 1029.68V1036.27H-3.06607V1029.68H-11.9763ZM1.19535 1029.68V1036.27H10.1055V1029.68H1.19535ZM14.3669 1029.68V1036.27H23.2771V1029.68H14.3669ZM27.5385 1029.68V1036.27H36.4487V1029.68H27.5385ZM40.3227 1029.68V1036.27H49.2329V1029.68H40.3227ZM53.4944 1029.68V1036.27H62.4045V1029.68H53.4944ZM66.6659 1029.68V1036.27H75.5761V1029.68H66.6659ZM79.8375 1029.68V1036.27H88.7477V1029.68H79.8375ZM-247.516 1020.39V1026.97H-238.605V1020.39H-247.516ZM-234.344 1020.39V1026.97H-225.434V1020.39H-234.344ZM-221.172 1020.39V1026.97H-212.262V1020.39H-221.172ZM-208.001 1020.39V1026.97H-199.091V1020.39H-208.001ZM-195.216 1020.39V1026.97H-186.306V1020.39H-195.216ZM-182.045 1020.39V1026.97H-173.135V1020.39H-182.045ZM-168.873 1020.39V1026.97H-159.963V1020.39H-168.873ZM-155.702 1020.39V1026.97H-146.792V1020.39H-155.702ZM-142.917 1020.39V1026.97H-134.007V1020.39H-142.917ZM-129.746 1020.39V1026.97H-120.836V1020.39H-129.746ZM-116.574 1020.39V1026.97H-107.664V1020.39H-116.574ZM-103.403 1020.39V1026.97H-94.4925V1020.39H-103.403ZM-90.2311 1020.39V1026.97H-81.3209V1020.39H-90.2311ZM-77.4469 1020.39V1026.97H-68.5367V1020.39H-77.4469ZM-64.2752 1020.39V1026.97H-55.3651V1020.39H-64.2752ZM-51.1037 1020.39V1026.97H-42.1935V1020.39H-51.1037ZM-37.9321 1020.39V1026.97H-29.0219V1020.39H-37.9321ZM-24.7605 1020.39V1026.97H-15.8503V1020.39H-24.7605ZM-11.9763 1020.39V1026.97H-3.06607V1020.39H-11.9763ZM1.19535 1020.39V1026.97H10.1055V1020.39H1.19535ZM14.3669 1020.39V1026.97H23.2771V1020.39H14.3669ZM27.5385 1020.39V1026.97H36.4487V1020.39H27.5385ZM40.3227 1020.39V1026.97H49.2329V1020.39H40.3227ZM53.4944 1020.39V1026.97H62.4045V1020.39H53.4944ZM66.6659 1020.39V1026.97H75.5761V1020.39H66.6659ZM79.8375 1020.39V1026.97H88.7477V1020.39H79.8375ZM-247.516 1011.86V1018.45H-238.605V1011.86H-247.516ZM-234.344 1011.86V1018.45H-225.434V1011.86H-234.344ZM-221.172 1011.86V1018.45H-212.262V1011.86H-221.172ZM-208.001 1011.86V1018.45H-199.091V1011.86H-208.001ZM-195.216 1011.86V1018.45H-186.306V1011.86H-195.216ZM-182.045 1011.86V1018.45H-173.135V1011.86H-182.045ZM-168.873 1011.86V1018.45H-159.963V1011.86H-168.873ZM-155.702 1011.86V1018.45H-146.792V1011.86H-155.702ZM-142.917 1011.86V1018.45H-134.007V1011.86H-142.917ZM-129.746 1011.86V1018.45H-120.836V1011.86H-129.746ZM-116.574 1011.86V1018.45H-107.664V1011.86H-116.574ZM-103.403 1011.86V1018.45H-94.4925V1011.86H-103.403ZM-90.2311 1011.86V1018.45H-81.3209V1011.86H-90.2311ZM-77.4469 1011.86V1018.45H-68.5367V1011.86H-77.4469ZM-64.2752 1011.86V1018.45H-55.3651V1011.86H-64.2752ZM-51.1037 1011.86V1018.45H-42.1935V1011.86H-51.1037ZM-37.9321 1011.86V1018.45H-29.0219V1011.86H-37.9321ZM-24.7605 1011.86V1018.45H-15.8503V1011.86H-24.7605ZM-11.9763 1011.86V1018.45H-3.06607V1011.86H-11.9763ZM1.19535 1011.86V1018.45H10.1055V1011.86H1.19535ZM14.3669 1011.86V1018.45H23.2771V1011.86H14.3669ZM27.5385 1011.86V1018.45H36.4487V1011.86H27.5385ZM40.3227 1011.86V1018.45H49.2329V1011.86H40.3227ZM53.4944 1011.86V1018.45H62.4045V1011.86H53.4944ZM66.6659 1011.86V1018.45H75.5761V1011.86H66.6659ZM79.8375 1011.86V1018.45H88.7477V1011.86H79.8375ZM-247.516 1002.95V1009.54H-238.605V1002.95H-247.516ZM-234.344 1002.95V1009.54H-225.434V1002.95H-234.344ZM-221.172 1002.95V1009.54H-212.262V1002.95H-221.172ZM-208.001 1002.95V1009.54H-199.091V1002.95H-208.001ZM-195.216 1002.95V1009.54H-186.306V1002.95H-195.216ZM-182.045 1002.95V1009.54H-173.135V1002.95H-182.045ZM-168.873 1002.95V1009.54H-159.963V1002.95H-168.873ZM-155.702 1002.95V1009.54H-146.792V1002.95H-155.702ZM-142.917 1002.95V1009.54H-134.007V1002.95H-142.917ZM-129.746 1002.95V1009.54H-120.836V1002.95H-129.746ZM-116.574 1002.95V1009.54H-107.664V1002.95H-116.574ZM-103.403 1002.95V1009.54H-94.4925V1002.95H-103.403ZM-90.2311 1002.95V1009.54H-81.3209V1002.95H-90.2311ZM-77.4469 1002.95V1009.54H-68.5367V1002.95H-77.4469ZM-64.2752 1002.95V1009.54H-55.3651V1002.95H-64.2752ZM-51.1037 1002.95V1009.54H-42.1935V1002.95H-51.1037ZM-37.9321 1002.95V1009.54H-29.0219V1002.95H-37.9321ZM-24.7605 1002.95V1009.54H-15.8503V1002.95H-24.7605ZM-11.9763 1002.95V1009.54H-3.06607V1002.95H-11.9763ZM1.19535 1002.95V1009.54H10.1055V1002.95H1.19535ZM14.3669 1002.95V1009.54H23.2771V1002.95H14.3669ZM27.5385 1002.95V1009.54H36.4487V1002.95H27.5385ZM40.3227 1002.95V1009.54H49.2329V1002.95H40.3227ZM53.4944 1002.95V1009.54H62.4045V1002.95H53.4944ZM66.6659 1002.95V1009.54H75.5761V1002.95H66.6659ZM79.8375 1002.95V1009.54H88.7477V1002.95H79.8375Z" fill="#53A6EA"/>
<path d="M386.658 769.35H-311.824V556.668C-311.824 556.668 -92.1681 517.928 37.6109 554.731C167.003 591.921 292.133 650.031 331.26 699.618C370.388 749.206 386.658 769.35 386.658 769.35Z" fill="#196C9B"/>
<path d="M-312.213 566.353C-249.066 551.632 129.036 476.477 361.476 749.206H-312.213V794.532H419.586C419.586 794.532 215.426 439.286 -312.213 548.533V566.353Z" fill="#53A6EA"/>
<path d="M-312.213 689.933C20.9515 667.077 238.67 703.88 238.67 703.88C238.67 703.88 240.607 675.987 233.247 652.743C35.6726 525.288 -242.093 572.164 -312.213 586.885V689.933Z" fill="#53A6EA"/>
<path d="M-312.213 690.708C-107.278 678.311 39.9336 684.51 128.261 691.87C221.624 699.618 270.049 710.853 275.085 712.015C275.86 715.114 279.347 733.322 278.959 748.431C74.4123 709.691 -243.643 731.385 -312.213 736.809V738.358C-243.643 732.935 75.187 711.24 279.347 749.98H280.122V749.205C280.509 732.547 276.248 711.24 276.248 711.24V710.853H275.86C275.473 710.853 227.048 698.843 128.648 690.708C40.3211 683.347 -107.278 677.149 -312.213 689.546V690.708Z" fill="#53A6EA"/>
<path d="M-312.211 768.576V770.126L255.33 769.738H255.717L280.123 749.593L279.348 748.431L255.33 768.189L-312.211 768.576Z" fill="#53A6EA"/>
<path d="M393.631 769.351H590.43L564.474 776.711L402.541 782.522L393.631 769.351Z" fill="#53A6EA"/>
<path d="M230.794 651.765L226.658 652.791L220.691 628.726L224.827 627.7L230.794 651.765Z" fill="#53A6EA"/>
<path d="M212.291 639.738L208.154 640.764L202.184 616.7L206.32 615.674L212.291 639.738Z" fill="#53A6EA"/>
<path d="M195.269 631.68L191.168 632.839L183.268 604.879L187.369 603.72L195.269 631.68Z" fill="#53A6EA"/>
<path d="M176.433 626.895L172.332 628.054L164.423 600.095L168.524 598.935L176.433 626.895Z" fill="#53A6EA"/>
<path d="M156.242 615.752L152.143 616.915L144.214 588.964L148.313 587.801L156.242 615.752Z" fill="#53A6EA"/>
<path d="M137.269 608.463L133.168 609.624L125.257 581.667L129.357 580.507L137.269 608.463Z" fill="#53A6EA"/>
<path d="M117.819 600.579L113.717 601.735L105.831 573.77L109.933 572.613L117.819 600.579Z" fill="#53A6EA"/>
<path d="M99.2849 597.551L95.1837 598.709L87.2895 570.746L91.3907 569.588L99.2849 597.551Z" fill="#53A6EA"/>
<path d="M80.462 594.723L76.3617 595.884L68.45 567.927L72.5504 566.766L80.462 594.723Z" fill="#53A6EA"/>
<path d="M60.4542 587.599L56.3539 588.759L48.4451 560.802L52.5455 559.642L60.4542 587.599Z" fill="#53A6EA"/>
<path d="M40.39 584.779L36.2892 585.938L28.3833 557.979L32.4841 556.819L40.39 584.779Z" fill="#53A6EA"/>
<path d="M20.3118 579.413L16.2111 580.572L8.3081 552.612L12.4089 551.453L20.3118 579.413Z" fill="#53A6EA"/>
<path d="M1.17297 577.967L-2.92737 579.128L-10.842 551.171L-6.74161 550.01L1.17297 577.967Z" fill="#53A6EA"/>
<path d="M241.77 767.801L265.014 746.107L260.753 708.916L265.014 708.141L269.276 747.656L244.869 770.9L241.77 767.801Z" fill="#53A6EA"/>
<path d="M222.013 767.413L247.194 743.007L243.32 705.429L247.581 705.042L251.455 744.557L225.112 770.512L222.013 767.413Z" fill="#53A6EA"/>
<path d="M200.706 767.801L230.924 740.683L227.437 703.105L231.698 702.718L235.572 742.233L203.806 770.9L200.706 767.801Z" fill="#53A6EA"/>
<path d="M183.66 767.413L213.49 737.971L210.778 700.006L215.04 699.618L218.139 739.908L186.372 770.512L183.66 767.413Z" fill="#53A6EA"/>
<path d="M165.839 767.413L195.668 736.421L193.731 697.681L197.993 697.294L199.93 737.971L168.938 770.512L165.839 767.413Z" fill="#53A6EA"/>
<path d="M147.243 767.801L177.848 734.485L174.361 695.357L178.623 694.97L182.109 736.034L150.343 770.9L147.243 767.801Z" fill="#53A6EA"/>
<path d="M129.036 767.801L158.866 732.547L155.766 693.807L160.028 693.42L163.127 734.097L132.135 770.512L129.036 767.801Z" fill="#53A6EA"/>
<path d="M111.216 768.188L140.271 731.385L137.172 691.87L141.046 691.483L144.92 732.935L114.315 770.512L111.216 768.188Z" fill="#53A6EA"/>
<path d="M89.9094 769.738L121.676 730.223L118.19 690.321L122.451 689.934L125.938 731.386L93.396 772.45L89.9094 769.738Z" fill="#53A6EA"/>
<path d="M71.7005 768.188L102.305 729.061L98.8185 689.546L103.08 689.158L106.567 730.223L75.1871 770.512L71.7005 768.188Z" fill="#53A6EA"/>
<path d="M54.6566 768.188L81.3872 727.511L77.9006 687.609L82.162 687.221L85.6486 728.673L58.1432 770.512L54.6566 768.188Z" fill="#53A6EA"/>
<path d="M36.0603 768.188L62.0161 727.511L58.5295 687.609L62.7909 687.221L66.2775 728.673L39.5469 770.512L36.0603 768.188Z" fill="#53A6EA"/>
<path d="M15.5291 768.189L40.3227 724.8L36.8361 685.285L41.0975 684.898L44.5841 725.962L19.4031 770.126L15.5291 768.189Z" fill="#53A6EA"/>
<path d="M-3.84118 768.188L19.4028 726.349L17.0784 684.897H21.3398L23.6642 727.124L-0.354603 770.512L-3.84118 768.188Z" fill="#53A6EA"/>
<path d="M-24.7605 768.189L-1.90382 722.863L-5.39046 682.961L-1.12903 682.573L2.35754 723.638L-20.8865 770.126L-24.7605 768.189Z" fill="#53A6EA"/>
<path d="M282.06 694.969C277.411 694.969 273.925 681.798 273.925 665.14C273.925 648.482 277.411 635.31 282.06 635.31C286.709 635.31 290.195 648.482 290.195 665.14C290.195 681.798 286.709 694.969 282.06 694.969Z" fill="#53A6EA"/>
<path d="M222.4 763.927C222.4 763.927 229.761 800.342 230.923 807.316C231.698 814.289 228.211 829.785 218.914 838.695C212.715 838.695 208.841 836.758 208.841 836.758C208.841 836.758 195.67 770.9 193.733 765.864C191.408 761.215 222.4 763.927 222.4 763.927Z" fill="#53A6EA"/>
<path d="M37.9962 453.233V479.576H-101.468V453.233H37.9962Z" fill="#53A6EA"/>
<path d="M149.955 416.43V440.061H-119.288V416.43H149.955Z" fill="#53A6EA"/>
<path d="M208.065 436.575V472.216H-118.901V436.575H208.065Z" fill="#53A6EA"/>
<path d="M213.877 426.502V442.385H134.073V426.502H213.877Z" fill="#53A6EA"/>
<path d="M268.5 449.359V468.342H185.209V449.359H268.5Z" fill="#53A6EA"/>
<path d="M294.842 431.538V451.296H192.568V431.538H294.842Z" fill="#53A6EA"/>
<path d="M314.988 443.935V462.918H245.644V443.935H314.988Z" fill="#53A6EA"/>
<path d="M376.584 438.899V453.62H283.996V438.899H376.584Z" fill="#53A6EA"/>
<path d="M416.486 447.809V457.494H303.366V447.809H416.486Z" fill="#53A6EA"/>
<path d="M439.344 443.935V451.296H367.675V443.935H439.344Z" fill="#53A6EA"/>
<path d="M499.777 449.358V452.458H403.315V449.358H499.777Z" fill="#53A6EA"/>
<path d="M32.1856 456.719V476.089H27.1494V456.719H32.1856Z" fill="#196C9B"/>
<path d="M20.951 456.719V476.089H15.9148V456.719H20.951Z" fill="#196C9B"/>
<path d="M9.71689 456.719L9.71689 476.089H4.68068L4.68068 456.719H9.71689Z" fill="#196C9B"/>
<path d="M142.594 421.853V441.223H137.558V421.853H142.594Z" fill="#196C9B"/>
<path d="M131.359 421.853V441.223H126.323V421.853H131.359Z" fill="#196C9B"/>
<path d="M119.736 421.853V441.223H114.7V421.853H119.736Z" fill="#196C9B"/>
<path d="M108.502 421.853V441.223H103.466V421.853H108.502Z" fill="#196C9B"/>
<path d="M97.2677 421.853V441.223H92.2315V421.853H97.2677Z" fill="#196C9B"/>
<path d="M85.6466 421.853V441.223H80.6105V421.853H85.6466Z" fill="#196C9B"/>
<path d="M74.4122 421.853V441.223H69.376V421.853H74.4122Z" fill="#196C9B"/>
<path d="M63.1779 421.853V441.223H58.1416V421.853H63.1779Z" fill="#196C9B"/>
<path d="M51.5549 421.853V441.223H46.5187V421.853H51.5549Z" fill="#196C9B"/>
<path d="M40.3202 421.853V441.223H35.284V421.853H40.3202Z" fill="#196C9B"/>
<path d="M203.803 447.034V466.404H198.767V447.034H203.803Z" fill="#196C9B"/>
<path d="M192.182 447.034V466.404H187.146V447.034H192.182Z" fill="#196C9B"/>
<path d="M180.945 447.034V466.404H175.909V447.034H180.945Z" fill="#196C9B"/>
<path d="M169.324 447.034V466.404H164.288V447.034H169.324Z" fill="#196C9B"/>
<path d="M158.09 447.034V466.404H153.054V447.034H158.09Z" fill="#196C9B"/>
<path d="M146.856 447.034V466.404H141.819V447.034H146.856Z" fill="#196C9B"/>
<path d="M135.233 447.034V466.404H130.196V447.034H135.233Z" fill="#196C9B"/>
<path d="M123.998 447.034V466.404H118.962V447.034H123.998Z" fill="#196C9B"/>
<path d="M112.764 447.034V466.404H107.728V447.034H112.764Z" fill="#196C9B"/>
<path d="M101.143 447.034V466.404H96.1065V447.034H101.143Z" fill="#196C9B"/>
<path d="M309.176 447.809V459.044H304.527V447.809H309.176Z" fill="#196C9B"/>
<path d="M298.717 447.809V459.044H294.068V447.809H298.717Z" fill="#196C9B"/>
<path d="M288.256 447.809V459.044H283.607V447.809H288.256Z" fill="#196C9B"/>
<path d="M277.797 447.809V459.044H273.148V447.809H277.797Z" fill="#196C9B"/>
<path d="M267.336 447.809V459.044H262.687V447.809H267.336Z" fill="#196C9B"/>
<path d="M256.49 447.809V459.044H251.842V447.809H256.49Z" fill="#196C9B"/>
<path d="M246.029 447.809V459.044H241.381V447.809H246.029Z" fill="#196C9B"/>
<path d="M235.57 447.809V459.044H230.922V447.809H235.57Z" fill="#196C9B"/>
<path d="M86.0353 167.332L40.3221 127.817L-311.437 127.817V163.07L86.0353 167.332Z" fill="#31779E"/>
<path d="M-3.06836 167.332L40.3204 127.817L-311.439 127.817V163.07L-3.06836 167.332Z" fill="#196C9B"/>
<path d="M261.914 163.07L-311.438 163.07V246.749L173.2 246.749L261.914 163.07Z" fill="#53A6EA"/>
<path d="M181.722 224.667V175.08H234.021L181.722 224.667Z" fill="#196C9B"/>
<path d="M164.289 175.08V233.965H113.927V175.08H164.289Z" fill="#196C9B"/>
<path d="M104.242 175.08V233.965H97.2692V175.08H104.242Z" fill="#196C9B"/>
<path d="M93.7834 175.08V233.965H86.8102V175.08H93.7834Z" fill="#196C9B"/>
<path d="M83.3225 175.08V233.965H76.3493V175.08H83.3225Z" fill="#196C9B"/>
<path d="M73.2504 175.08V233.965H66.2772V175.08H73.2504Z" fill="#196C9B"/>
<path d="M62.7912 175.08L62.7912 233.965H55.818V175.08H62.7912Z" fill="#196C9B"/>
<path d="M52.719 175.08L52.719 233.965H45.7458V175.08H52.719Z" fill="#196C9B"/>
<path d="M42.258 175.08L42.258 233.965H35.2848V175.08H42.258Z" fill="#196C9B"/>
<path d="M32.1858 175.08L32.1858 233.965H25.2126L25.2126 175.08H32.1858Z" fill="#196C9B"/>
<path d="M21.7268 175.08L21.7268 233.965H14.7536L14.7536 175.08H21.7268Z" fill="#196C9B"/>
<path d="M246.805 163.071H392.08V166.557H244.868L246.805 163.071Z" fill="#53A6EA"/>
</g>
</g>
</g>
<defs>
<clipPath id="clip0_1_605">
<rect width="1165" height="590" fill="white" transform="matrix(0 -1 -1 0 590 1165)"/>
</clipPath>
</defs>
</svg>
