<svg width="562" height="881" viewBox="0 0 562 881" fill="none" xmlns="http://www.w3.org/2000/svg">
<g opacity="0.3" clip-path="url(#clip0_1_954)">
<g opacity="0.9">
<mask id="mask0_1_954" style="mask-type:luminance" maskUnits="userSpaceOnUse" x="-358" y="-334" width="1937" height="1937">
<path d="M-358 -334L-358 1603L1579 1603L1579 -334L-358 -334Z" fill="white"/>
</mask>
<g mask="url(#mask0_1_954)">
<path d="M534.621 850.426V911.248H805.414V850.426H534.621Z" fill="#E6F0F5"/>
<path d="M386.971 214.559V332.716L907.636 332.716V214.559L386.971 214.559Z" fill="#BBDCEF"/>
<path d="M355.592 240.514V319.931H390.845V240.514H355.592Z" fill="#BBDCEF"/>
<path d="M334.285 254.461V305.211H356.754V254.461H334.285Z" fill="#BBDCEF"/>
<path d="M315.689 260.659V299.399H336.996V260.659H315.689Z" fill="#BBDCEF"/>
<path d="M409.439 495.811V613.968H930.105V495.811H409.439Z" fill="#BBDCEF"/>
<path d="M381.16 521.379V600.796H416.413V521.379H381.16Z" fill="#BBDCEF"/>
<path d="M359.853 535.712V586.462H382.323V535.712H359.853Z" fill="#BBDCEF"/>
<path d="M341.258 541.911V580.651H362.565V541.911H341.258Z" fill="#BBDCEF"/>
<path d="M244.019 667.042V785.199H764.685V667.042H244.019Z" fill="#E6F0F5"/>
<path d="M211.865 692.998V772.415H247.118V692.998H211.865Z" fill="#E6F0F5"/>
<path d="M190.945 706.945V757.694H213.414V706.945H190.945Z" fill="#E6F0F5"/>
<path d="M171.963 713.143V751.883H193.27V713.143H171.963Z" fill="#E6F0F5"/>
<path d="M184.748 14.2725V132.43L705.413 132.43V14.2725L184.748 14.2725Z" fill="#E6F0F5"/>
<path d="M152.594 39.8407V119.258H187.847V39.8407H152.594Z" fill="#E6F0F5"/>
<path d="M131.674 54.1744V104.924H154.143V54.1744H131.674Z" fill="#E6F0F5"/>
<path d="M112.691 60.3731V99.1131H133.998V60.3731H112.691Z" fill="#E6F0F5"/>
<path d="M261.841 881.274L193.271 820.065L261.841 763.117H782.119V881.274H261.841Z" fill="#BBDCEF"/>
<path d="M496.992 125.069V203.711H710.062V125.069L496.992 125.069Z" fill="#BBDCEF"/>
<path d="M225.424 614.742L779.794 634.112C779.794 634.112 822.02 635.662 810.786 594.21C638.393 567.092 344.356 562.056 225.037 578.714V614.742H225.424Z" fill="#8DBBED"/>
<path d="M225.424 660.068L792.965 639.923L803.037 596.535C803.037 596.535 508.226 571.741 225.811 608.157V660.068H225.424Z" fill="#196C9B"/>
<path d="M225.424 659.681V668.979C271.912 674.79 524.496 703.457 811.172 667.817C817.371 630.626 811.172 594.211 811.172 594.211C811.172 594.211 504.352 627.14 409.826 639.536C333.121 649.996 252.929 657.357 225.424 659.681Z" fill="#53A6EA"/>
<path d="M406.728 -14.3951V39.8409H426.486V-14.3951H406.728Z" fill="#196C9B"/>
<path d="M428.81 -21.3684V54.9493L496.218 54.9493V-21.3684H428.81Z" fill="#196C9B"/>
<path d="M495.054 -27.5667V61.5353L915.771 61.5353V-27.5667L495.054 -27.5667Z" fill="#196C9B"/>
<path d="M492.73 -22.5305H424.161V-15.9447L398.205 -15.9447V-11.296H386.97V9.62373L306.004 9.62373V23.57L386.97 23.57V44.4897L398.205 44.4897V49.5259H424.161V56.1117L492.73 56.1117V65.4093L918.096 65.4093V-31.8281L492.73 -31.8281V-22.5305ZM419.512 37.9039H410.602V33.255H419.512V37.9039ZM419.512 31.318H410.602V26.6693H419.512V31.318ZM419.512 24.7323H410.602V20.0835H419.512V24.7323ZM419.512 17.759H410.602V13.1103H419.512V17.759ZM419.512 11.1733H410.602V6.52445H419.512V11.1733ZM419.512 4.58745H410.602V-0.0612793H419.512V4.58745ZM419.512 -2.3857H410.602V-7.03455H419.512V-2.3857ZM410.602 -13.6203H419.512V-8.97155H410.602V-13.6203ZM467.549 -15.17H456.315V-20.981H467.549V-15.17ZM437.72 -12.4581H447.792V-6.64713H437.72V-12.4581ZM467.549 -6.64713H456.315V-12.4581H467.549V-6.64713ZM475.685 -12.4581H486.919V-6.64713H475.685V-12.4581ZM437.72 -3.93527H447.792V1.87572H437.72V-3.93527ZM475.685 -3.93527H486.919V1.87572L475.685 1.87572V-3.93527ZM437.72 4.20003H447.792V10.011H437.72V4.20003ZM467.549 10.011H456.315V4.20003H467.549V10.011ZM475.685 4.20003L486.919 4.20003V10.011L475.685 10.011V4.20003ZM467.549 18.5339H456.315V12.7229H467.549V18.5339ZM437.72 21.2457H447.792V27.0567H437.72V21.2457ZM467.549 26.6693H456.315V20.8583H467.549V26.6693ZM437.72 29.381H447.792V35.192H437.72V29.381ZM475.685 29.381L486.919 29.381V35.192H475.685V29.381ZM437.72 37.9039H447.792V43.7149H437.72V37.9039ZM456.315 37.9039H467.549V43.7149H456.315V37.9039ZM456.315 51.8503V46.0393H467.549V51.8503L456.315 51.8503ZM475.685 51.8503V46.0393H486.919V51.8503H475.685ZM910.735 52.2377V58.8235H900.275V52.2377H910.735ZM894.464 52.2377V58.8235H884.004V52.2377H894.464ZM878.581 52.2377V58.8235H868.121V52.2377H878.581ZM862.697 52.2377V58.8235H852.237V52.2377H862.697ZM846.814 52.2377V58.8235H836.354V52.2377L846.814 52.2377ZM830.543 52.2377V58.8235H820.083V52.2377H830.543ZM814.66 52.2377V58.8235H804.2V52.2377H814.66ZM798.776 52.2377V58.8235H788.317V52.2377H798.776ZM782.893 52.2377V58.8235H772.433V52.2377H782.893ZM767.01 52.2377V58.8235H756.55V52.2377H767.01ZM750.739 52.2377V58.8235H740.279V52.2377H750.739ZM734.855 52.2377V58.8235H724.396V52.2377H734.855ZM718.972 52.2377V58.8235H708.512V52.2377H718.972ZM703.089 52.2377V58.8235H692.629V52.2377L703.089 52.2377ZM686.818 52.2377V58.8235H676.358V52.2377H686.818ZM670.934 52.2377V58.8235H660.475V52.2377H670.934ZM655.051 52.2377V58.8235H644.591V52.2377H655.051ZM639.168 52.2377V58.8235H628.708V52.2377H639.168ZM622.897 52.2377V58.8235H612.437V52.2377H622.897ZM607.013 52.2377V58.8235L596.554 58.8235V52.2377H607.013ZM591.13 52.2377V58.8235H580.67V52.2377H591.13ZM575.247 52.2377V58.8235H564.787V52.2377H575.247ZM558.976 52.2377V58.8235H548.516V52.2377H558.976ZM543.092 52.2377V58.8235H532.633V52.2377H543.092ZM527.209 52.2377V58.8235H516.749V52.2377H527.209ZM511.326 52.2377V58.8235H500.866V52.2377H511.326ZM910.735 43.7149V50.3007H900.275V43.7149H910.735ZM894.464 43.7149V50.3007H884.004V43.7149H894.464ZM878.581 43.7149V50.3007H868.121V43.7149H878.581ZM862.697 43.7149V50.3007H852.237V43.7149L862.697 43.7149ZM846.814 43.7149V50.3007L836.354 50.3007V43.7149H846.814ZM830.543 43.7149V50.3007H820.083V43.7149H830.543ZM814.66 43.7149V50.3007H804.2V43.7149H814.66ZM798.776 43.7149V50.3007H788.317V43.7149H798.776ZM782.893 43.7149V50.3007H772.433V43.7149H782.893ZM767.01 43.7149V50.3007H756.55V43.7149H767.01ZM750.739 43.7149V50.3007H740.279V43.7149H750.739ZM734.855 43.7149V50.3007H724.396V43.7149H734.855ZM718.972 43.7149V50.3007H708.512V43.7149H718.972ZM703.089 43.7149V50.3007L692.629 50.3007V43.7149H703.089ZM686.818 43.7149V50.3007H676.358V43.7149L686.818 43.7149ZM670.934 43.7149V50.3007H660.475V43.7149H670.934ZM655.051 43.7149V50.3007H644.591V43.7149H655.051ZM639.168 43.7149V50.3007H628.708V43.7149H639.168ZM622.897 43.7149V50.3007H612.437V43.7149H622.897ZM607.013 43.7149V50.3007H596.554V43.7149H607.013ZM591.13 43.7149V50.3007H580.67V43.7149H591.13ZM575.247 43.7149V50.3007H564.787V43.7149H575.247ZM558.976 43.7149V50.3007H548.516V43.7149H558.976ZM543.092 43.7149V50.3007H532.633V43.7149H543.092ZM527.209 43.7149V50.3007H516.749V43.7149H527.209ZM511.326 43.7149V50.3007H500.866V43.7149H511.326ZM910.735 35.192V41.7779H900.275V35.192H910.735ZM894.464 35.192V41.7779H884.004V35.192H894.464ZM878.581 35.192V41.7779H868.121V35.192H878.581ZM862.697 35.192V41.7779L852.237 41.7779V35.192L862.697 35.192ZM846.814 35.192V41.7779H836.354V35.192H846.814ZM830.543 35.192V41.7779H820.083V35.192H830.543ZM814.66 35.192V41.7779H804.2V35.192H814.66ZM798.776 35.192V41.7779H788.317V35.192H798.776ZM782.893 35.192V41.7779H772.433V35.192H782.893ZM767.01 35.192V41.7779H756.55V35.192H767.01ZM750.739 35.192V41.7779H740.279V35.192H750.739ZM734.855 35.192V41.7779H724.396V35.192H734.855ZM718.972 35.192V41.7779H708.512V35.192H718.972ZM703.089 35.192V41.7779H692.629V35.192H703.089ZM686.818 35.192V41.7779L676.358 41.7779V35.192L686.818 35.192ZM670.934 35.192V41.7779H660.475V35.192H670.934ZM655.051 35.192V41.7779H644.591V35.192H655.051ZM639.168 35.192V41.7779H628.708V35.192H639.168ZM622.897 35.192V41.7779H612.437V35.192H622.897ZM607.013 35.192V41.7779H596.554V35.192H607.013ZM591.13 35.192V41.7779H580.67V35.192H591.13ZM575.247 35.192V41.7779H564.787V35.192H575.247ZM558.976 35.192V41.7779H548.516V35.192H558.976ZM543.092 35.192V41.7779H532.633V35.192H543.092ZM527.209 35.192V41.7779H516.749V35.192H527.209ZM511.326 35.192V41.7779H500.866V35.192H511.326ZM910.735 26.6693V33.255H900.275V26.6693H910.735ZM894.464 26.6693V33.255H884.004V26.6693H894.464ZM878.581 26.6693V33.255H868.121V26.6693H878.581ZM862.697 26.6693V33.255H852.237V26.6693H862.697ZM846.814 26.6693V33.255H836.354V26.6693H846.814ZM830.543 26.6693V33.255L820.083 33.255V26.6693L830.543 26.6693ZM814.66 26.6693V33.255H804.2V26.6693H814.66ZM798.776 26.6693V33.255H788.317V26.6693H798.776ZM782.893 26.6693V33.255H772.433V26.6693H782.893ZM767.01 26.6693V33.255H756.55V26.6693H767.01ZM750.739 26.6693V33.255H740.279V26.6693H750.739ZM734.855 26.6693V33.255H724.396V26.6693H734.855ZM718.972 26.6693V33.255L708.512 33.255V26.6693L718.972 26.6693ZM703.089 26.6693V33.255H692.629V26.6693H703.089ZM686.818 26.6693V33.255H676.358V26.6693H686.818ZM670.934 26.6693V33.255H660.475V26.6693H670.934ZM655.051 26.6693V33.255H644.591V26.6693H655.051ZM639.168 26.6693V33.255H628.708V26.6693H639.168ZM622.897 26.6693V33.255H612.437V26.6693H622.897ZM607.013 26.6693V33.255H596.554V26.6693H607.013ZM591.13 26.6693V33.255H580.67V26.6693H591.13ZM575.247 26.6693V33.255H564.787V26.6693H575.247ZM558.976 26.6693V33.255H548.516V26.6693H558.976ZM543.092 26.6693V33.255H532.633V26.6693H543.092ZM527.209 26.6693V33.255H516.749V26.6693H527.209ZM910.735 18.1465V24.7323H900.275V18.1465H910.735ZM894.464 18.1465V24.7323H884.004V18.1465H894.464ZM878.581 18.1465V24.7323H868.121V18.1465H878.581ZM862.697 18.1465V24.7323H852.237V18.1465H862.697ZM846.814 18.1465V24.7323H836.354V18.1465H846.814ZM830.543 18.1465V24.7323L820.083 24.7323V18.1465L830.543 18.1465ZM814.66 18.1465V24.7323H804.2V18.1465H814.66ZM798.776 18.1465V24.7323H788.317V18.1465H798.776ZM782.893 18.1465V24.7323H772.433V18.1465H782.893ZM767.01 18.1465V24.7323H756.55V18.1465H767.01ZM750.739 18.1465V24.7323H740.279V18.1465H750.739ZM734.855 18.1465V24.7323H724.396V18.1465H734.855ZM718.972 18.1465V24.7323L708.512 24.7323V18.1465L718.972 18.1465ZM703.089 18.1465V24.7323H692.629V18.1465H703.089ZM686.818 18.1465V24.7323H676.358V18.1465H686.818ZM670.934 18.1465V24.7323H660.475V18.1465H670.934ZM655.051 18.1465V24.7323H644.591V18.1465H655.051ZM639.168 18.1465V24.7323H628.708V18.1465H639.168ZM622.897 18.1465V24.7323H612.437V18.1465H622.897ZM607.013 18.1465V24.7323H596.554V18.1465H607.013ZM591.13 18.1465V24.7323H580.67V18.1465H591.13ZM575.247 18.1465V24.7323H564.787V18.1465H575.247ZM558.976 18.1465V24.7323H548.516V18.1465H558.976ZM543.092 18.1465V24.7323H532.633V18.1465H543.092ZM527.209 18.1465V24.7323H516.749V18.1465H527.209ZM511.326 18.1465V24.7323H500.866V18.1465H511.326ZM910.735 10.011V16.5969H900.275V10.011H910.735ZM894.464 10.011V16.5969H884.004V10.011H894.464ZM878.581 10.011V16.5969H868.121V10.011H878.581ZM862.697 10.011V16.5969H852.237V10.011H862.697ZM846.814 10.011V16.5969H836.354V10.011H846.814ZM830.543 10.011V16.5969L820.083 16.5969V10.011L830.543 10.011ZM814.66 10.011V16.5969H804.2V10.011H814.66ZM798.776 10.011V16.5969H788.317V10.011H798.776ZM782.893 10.011V16.5969H772.433V10.011H782.893ZM767.01 10.011V16.5969H756.55V10.011H767.01ZM750.739 10.011V16.5969H740.279V10.011H750.739ZM734.855 10.011V16.5969H724.396V10.011H734.855ZM718.972 10.011V16.5969L708.512 16.5969V10.011L718.972 10.011ZM703.089 10.011V16.5969H692.629V10.011H703.089ZM686.818 10.011V16.5969H676.358V10.011H686.818ZM670.934 10.011V16.5969H660.475V10.011H670.934ZM655.051 10.011V16.5969H644.591V10.011H655.051ZM639.168 10.011V16.5969H628.708V10.011H639.168ZM622.897 10.011V16.5969H612.437V10.011H622.897ZM607.013 10.011V16.5969H596.554V10.011H607.013ZM591.13 10.011V16.5969H580.67V10.011H591.13ZM575.247 10.011V16.5969H564.787V10.011H575.247ZM558.976 10.011V16.5969H548.516V10.011H558.976ZM543.092 10.011V16.5969H532.633V10.011H543.092ZM527.209 10.011V16.5969H516.749V10.011H527.209ZM511.326 10.011V16.5969H500.866V10.011H511.326ZM910.735 1.4883V8.07403H900.275V1.4883H910.735ZM894.464 1.4883V8.07403H884.004V1.4883H894.464ZM878.581 1.4883V8.07403H868.121V1.4883H878.581ZM862.697 1.4883V8.07403H852.237V1.4883H862.697ZM846.814 1.4883V8.07403H836.354V1.4883H846.814ZM830.543 1.4883V8.07403L820.083 8.07403V1.4883L830.543 1.4883ZM814.66 1.4883V8.07403H804.2V1.4883H814.66ZM798.776 1.4883V8.07403H788.317V1.4883H798.776ZM782.893 1.4883V8.07403H772.433V1.4883H782.893ZM767.01 1.4883V8.07403H756.55V1.4883H767.01ZM750.739 1.4883V8.07403H740.279V1.4883H750.739ZM734.855 1.4883V8.07403H724.396V1.4883H734.855ZM718.972 1.4883V8.07403L708.512 8.07403V1.4883L718.972 1.4883ZM703.089 1.4883V8.07403H692.629V1.4883H703.089ZM686.818 1.4883V8.07403H676.358V1.4883H686.818ZM670.934 1.4883V8.07403H660.475V1.4883H670.934ZM655.051 1.4883V8.07403H644.591V1.4883H655.051ZM639.168 1.4883V8.07403H628.708V1.4883H639.168ZM622.897 1.4883V8.07403H612.437V1.4883H622.897ZM607.013 1.4883V8.07403H596.554V1.4883H607.013ZM591.13 1.4883V8.07403H580.67V1.4883H591.13ZM575.247 1.4883V8.07403H564.787V1.4883H575.247ZM558.976 1.4883V8.07403H548.516V1.4883H558.976ZM543.092 1.4883V8.07403H532.633V1.4883H543.092ZM527.209 1.4883V8.07403H516.749V1.4883H527.209ZM511.326 1.4883V8.07403H500.866V1.4883H511.326ZM910.735 -7.42197V-0.836121H900.275V-7.42197H910.735ZM894.464 -7.42197V-0.836121L884.004 -0.836121V-7.42197L894.464 -7.42197ZM878.581 -7.42197V-0.836121H868.121V-7.42197H878.581ZM862.697 -7.42197V-0.836121H852.237V-7.42197H862.697ZM846.814 -7.42197V-0.836121H836.354V-7.42197H846.814ZM830.543 -7.42197V-0.836121H820.083V-7.42197H830.543ZM814.66 -7.42197V-0.836121H804.2V-7.42197H814.66ZM798.776 -7.42197V-0.836121H788.317V-7.42197H798.776ZM782.893 -7.42197V-0.836121H772.433V-7.42197H782.893ZM767.01 -7.42197V-0.836121H756.55V-7.42197H767.01ZM750.739 -7.42197V-0.836121H740.279V-7.42197H750.739ZM734.855 -7.42197V-0.836121H724.396V-7.42197H734.855ZM718.972 -7.42197V-0.836121H708.512V-7.42197H718.972ZM703.089 -7.42197V-0.836121H692.629V-7.42197H703.089ZM686.818 -7.42197V-0.836121H676.358V-7.42197H686.818ZM670.934 -7.42197V-0.836121H660.475V-7.42197H670.934ZM655.051 -7.42197V-0.836121L644.591 -0.836121V-7.42197L655.051 -7.42197ZM639.168 -7.42197V-0.836121H628.708V-7.42197H639.168ZM622.897 -7.42197V-0.836121H612.437V-7.42197H622.897ZM607.013 -7.42197V-0.836121H596.554V-7.42197H607.013ZM591.13 -7.42197V-0.836121H580.67V-7.42197H591.13ZM575.247 -7.42197V-0.836121H564.787V-7.42197H575.247ZM558.976 -7.42197V-0.836121H548.516V-7.42197H558.976ZM543.092 -7.42197V-0.836121H532.633V-7.42197H543.092ZM527.209 -7.42197V-0.836121H516.749V-7.42197H527.209ZM511.326 -7.42197V-0.836121H500.866V-7.42197H511.326ZM910.735 -15.9447V-9.35897H900.275V-15.9447H910.735ZM894.464 -15.9447V-9.35897L884.004 -9.35897V-15.9447L894.464 -15.9447ZM878.581 -15.9447V-9.35897H868.121V-15.9447H878.581ZM862.697 -15.9447V-9.35897H852.237V-15.9447H862.697ZM846.814 -15.9447V-9.35897H836.354V-15.9447H846.814ZM830.543 -15.9447V-9.35897H820.083V-15.9447H830.543ZM814.66 -15.9447V-9.35897H804.2V-15.9447H814.66ZM798.776 -15.9447V-9.35897H788.317V-15.9447H798.776ZM782.893 -15.9447V-9.35897H772.433V-15.9447H782.893ZM767.01 -15.9447V-9.35897H756.55V-15.9447H767.01ZM750.739 -15.9447V-9.35897H740.279V-15.9447H750.739ZM734.855 -15.9447V-9.35897H724.396V-15.9447H734.855ZM718.972 -15.9447V-9.35897H708.512V-15.9447H718.972ZM703.089 -15.9447V-9.35897H692.629V-15.9447H703.089ZM686.818 -15.9447V-9.35897H676.358V-15.9447H686.818ZM670.934 -15.9447V-9.35897H660.475V-15.9447H670.934ZM655.051 -15.9447V-9.35897L644.591 -9.35897V-15.9447L655.051 -15.9447ZM639.168 -15.9447V-9.35897H628.708V-15.9447H639.168ZM622.897 -15.9447V-9.35897H612.437V-15.9447H622.897ZM607.013 -15.9447V-9.35897H596.554V-15.9447H607.013ZM591.13 -15.9447V-9.35897H580.67V-15.9447H591.13ZM575.247 -15.9447V-9.35897H564.787V-15.9447H575.247ZM558.976 -15.9447V-9.35897H548.516V-15.9447H558.976ZM543.092 -15.9447V-9.35897H532.633V-15.9447H543.092ZM527.209 -15.9447V-9.35897H516.749V-15.9447H527.209ZM511.326 -15.9447V-9.35897H500.866V-15.9447H511.326ZM910.735 -24.4675V-17.8817H900.275V-24.4675H910.735ZM894.464 -24.4675V-17.8817L884.004 -17.8817V-24.4675L894.464 -24.4675ZM878.581 -24.4675V-17.8817H868.121V-24.4675H878.581ZM862.697 -24.4675V-17.8817H852.237V-24.4675H862.697ZM846.814 -24.4675V-17.8817H836.354V-24.4675H846.814ZM830.543 -24.4675V-17.8817H820.083V-24.4675H830.543ZM814.66 -24.4675V-17.8817H804.2V-24.4675H814.66ZM798.776 -24.4675V-17.8817H788.317V-24.4675H798.776ZM782.893 -24.4675V-17.8817H772.433V-24.4675H782.893ZM767.01 -24.4675V-17.8817H756.55V-24.4675H767.01ZM750.739 -24.4675V-17.8817H740.279V-24.4675H750.739ZM734.855 -24.4675V-17.8817H724.396V-24.4675H734.855ZM718.972 -24.4675V-17.8817H708.512V-24.4675H718.972ZM703.089 -24.4675V-17.8817H692.629V-24.4675H703.089ZM686.818 -24.4675V-17.8817H676.358V-24.4675H686.818ZM670.934 -24.4675V-17.8817H660.475V-24.4675H670.934ZM655.051 -24.4675V-17.8817L644.591 -17.8817V-24.4675L655.051 -24.4675ZM639.168 -24.4675V-17.8817H628.708V-24.4675H639.168ZM622.897 -24.4675V-17.8817H612.437V-24.4675H622.897ZM607.013 -24.4675V-17.8817H596.554V-24.4675H607.013ZM591.13 -24.4675V-17.8817H580.67V-24.4675H591.13ZM575.247 -24.4675V-17.8817H564.787V-24.4675H575.247ZM558.976 -24.4675V-17.8817H548.516V-24.4675H558.976ZM543.092 -24.4675V-17.8817H532.633V-24.4675H543.092ZM527.209 -24.4675V-17.8817H516.749V-24.4675H527.209ZM511.326 -24.4675V-17.8817H500.866V-24.4675H511.326Z" fill="#53A6EA"/>
<path d="M496.99 713.142V808.442H840.614V713.142H496.99Z" fill="#196C9B"/>
<path d="M495.441 811.542H843.714V711.593H495.441V811.542ZM837.516 797.595V804.181H828.605V797.595H837.516ZM824.344 797.595V804.181H815.434V797.595H824.344ZM811.172 797.595V804.181H802.262V797.595H811.172ZM798.001 797.595V804.181H789.091V797.595H798.001ZM785.216 797.595V804.181H776.306V797.595H785.216ZM772.045 797.595V804.181H763.135V797.595H772.045ZM758.873 797.595V804.181H749.963V797.595H758.873ZM745.702 797.595V804.181H736.792V797.595H745.702ZM732.917 797.595V804.181H724.007V797.595H732.917ZM719.746 797.595V804.181H710.836V797.595H719.746ZM706.574 797.595V804.181H697.664V797.595H706.574ZM693.403 797.595V804.181H684.492V797.595H693.403ZM680.231 797.595V804.181H671.321V797.595H680.231ZM667.447 797.595V804.181H658.537V797.595H667.447ZM654.275 797.595V804.181H645.365V797.595H654.275ZM641.104 797.595V804.181H632.193V797.595H641.104ZM627.932 797.595V804.181H619.022V797.595H627.932ZM614.76 797.595V804.181H605.85V797.595H614.76ZM601.976 797.595V804.181H593.066V797.595H601.976ZM588.805 797.595V804.181H579.895V797.595H588.805ZM575.633 797.595V804.181H566.723V797.595H575.633ZM562.461 797.595V804.181H553.551V797.595H562.461ZM549.677 797.595V804.181H540.767V797.595H549.677ZM536.506 797.595V804.181H527.595V797.595H536.506ZM523.334 797.595V804.181H514.424V797.595H523.334ZM510.162 797.595V804.181H501.252V797.595H510.162ZM837.516 789.073V795.658H828.605V789.073H837.516ZM824.344 789.073V795.658H815.434V789.073H824.344ZM811.172 789.073V795.658H802.262V789.073H811.172ZM798.001 789.073V795.658H789.091V789.073H798.001ZM785.216 789.073V795.658H776.306V789.073H785.216ZM772.045 789.073V795.658H763.135V789.073H772.045ZM758.873 789.073V795.658H749.963V789.073H758.873ZM745.702 789.073V795.658H736.792V789.073H745.702ZM732.917 789.073V795.658H724.007V789.073H732.917ZM719.746 789.073V795.658H710.836V789.073H719.746ZM706.574 789.073V795.658H697.664V789.073H706.574ZM693.403 789.073V795.658H684.492V789.073H693.403ZM680.231 789.073V795.658H671.321V789.073H680.231ZM667.447 789.073V795.658H658.537V789.073H667.447ZM654.275 789.073V795.658H645.365V789.073H654.275ZM641.104 789.073V795.658H632.193V789.073H641.104ZM627.932 789.073V795.658H619.022V789.073H627.932ZM614.76 789.073V795.658H605.85V789.073H614.76ZM601.976 789.073V795.658H593.066V789.073H601.976ZM588.805 789.073V795.658H579.895V789.073H588.805ZM575.633 789.073V795.658H566.723V789.073H575.633ZM562.461 789.073V795.658H553.551V789.073H562.461ZM549.677 789.073V795.658H540.767V789.073H549.677ZM536.506 789.073V795.658H527.595V789.073H536.506ZM523.334 789.073V795.658H514.424V789.073H523.334ZM510.162 789.073V795.658H501.252V789.073H510.162ZM837.516 780.55V787.136H828.605V780.55H837.516ZM824.344 780.55V787.136H815.434V780.55H824.344ZM811.172 780.55V787.136H802.262V780.55H811.172ZM798.001 780.55V787.136H789.091V780.55H798.001ZM785.216 780.55V787.136H776.306V780.55H785.216ZM772.045 780.55V787.136H763.135V780.55H772.045ZM758.873 780.55V787.136H749.963V780.55H758.873ZM745.702 780.55V787.136H736.792V780.55H745.702ZM732.917 780.55V787.136H724.007V780.55H732.917ZM719.746 780.55V787.136H710.836V780.55H719.746ZM706.574 780.55V787.136H697.664V780.55H706.574ZM693.403 780.55V787.136H684.492V780.55H693.403ZM680.231 780.55V787.136H671.321V780.55H680.231ZM667.447 780.55V787.136H658.537V780.55H667.447ZM654.275 780.55V787.136H645.365V780.55H654.275ZM641.104 780.55V787.136H632.193V780.55H641.104ZM627.932 780.55V787.136H619.022V780.55H627.932ZM614.76 780.55V787.136H605.85V780.55H614.76ZM601.976 780.55V787.136H593.066V780.55H601.976ZM588.805 780.55V787.136H579.895V780.55H588.805ZM575.633 780.55V787.136H566.723V780.55H575.633ZM562.461 780.55V787.136H553.551V780.55H562.461ZM549.677 780.55V787.136H540.767V780.55H549.677ZM536.506 780.55V787.136H527.595V780.55H536.506ZM523.334 780.55V787.136H514.424V780.55H523.334ZM510.162 780.55V787.136H501.252V780.55H510.162ZM837.516 771.64V778.225H828.605V771.64H837.516ZM824.344 771.64V778.225H815.434V771.64H824.344ZM811.172 771.64V778.225H802.262V771.64H811.172ZM798.001 771.64V778.225H789.091V771.64H798.001ZM785.216 771.64V778.225H776.306V771.64H785.216ZM772.045 771.64V778.225H763.135V771.64H772.045ZM758.873 771.64V778.225H749.963V771.64H758.873ZM745.702 771.64V778.225H736.792V771.64H745.702ZM732.917 771.64V778.225H724.007V771.64H732.917ZM719.746 771.64V778.225H710.836V771.64H719.746ZM706.574 771.64V778.225H697.664V771.64H706.574ZM693.403 771.64V778.225H684.492V771.64H693.403ZM680.231 771.64V778.225H671.321V771.64H680.231ZM667.447 771.64V778.225H658.537V771.64H667.447ZM654.275 771.64V778.225H645.365V771.64H654.275ZM641.104 771.64V778.225H632.193V771.64H641.104ZM627.932 771.64V778.225H619.022V771.64H627.932ZM614.76 771.64V778.225H605.85V771.64H614.76ZM601.976 771.64V778.225H593.066V771.64H601.976ZM588.805 771.64V778.225H579.895V771.64H588.805ZM575.633 771.64V778.225H566.723V771.64H575.633ZM562.461 771.64V778.225H553.551V771.64H562.461ZM549.677 771.64V778.225H540.767V771.64H549.677ZM536.506 771.64V778.225H527.595V771.64H536.506ZM523.334 771.64V778.225H514.424V771.64H523.334ZM837.516 763.117V769.703H828.605V763.117H837.516ZM824.344 763.117V769.703H815.434V763.117H824.344ZM811.172 763.117V769.703H802.262V763.117H811.172ZM798.001 763.117V769.703H789.091V763.117H798.001ZM785.216 763.117V769.703H776.306V763.117H785.216ZM772.045 763.117V769.703H763.135V763.117H772.045ZM758.873 763.117V769.703H749.963V763.117H758.873ZM745.702 763.117V769.703H736.792V763.117H745.702ZM732.917 763.117V769.703H724.007V763.117H732.917ZM719.746 763.117V769.703H710.836V763.117H719.746ZM706.574 763.117V769.703H697.664V763.117H706.574ZM693.403 763.117V769.703H684.492V763.117H693.403ZM680.231 763.117V769.703H671.321V763.117H680.231ZM667.447 763.117V769.703H658.537V763.117H667.447ZM654.275 763.117V769.703H645.365V763.117H654.275ZM641.104 763.117V769.703H632.193V763.117H641.104ZM627.932 763.117V769.703H619.022V763.117H627.932ZM614.76 763.117V769.703H605.85V763.117H614.76ZM601.976 763.117V769.703H593.066V763.117H601.976ZM588.805 763.117V769.703H579.895V763.117H588.805ZM575.633 763.117V769.703H566.723V763.117H575.633ZM562.461 763.117V769.703H553.551V763.117H562.461ZM549.677 763.117V769.703H540.767V763.117H549.677ZM536.506 763.117V769.703H527.595V763.117H536.506ZM523.334 763.117V769.703H514.424V763.117H523.334ZM510.162 763.117V769.703H501.252V763.117H510.162ZM837.516 754.207V760.792H828.605V754.207H837.516ZM824.344 754.207V760.792H815.434V754.207H824.344ZM811.172 754.207V760.792H802.262V754.207H811.172ZM798.001 754.207V760.792H789.091V754.207H798.001ZM785.216 754.207V760.792H776.306V754.207H785.216ZM772.045 754.207V760.792H763.135V754.207H772.045ZM758.873 754.207V760.792H749.963V754.207H758.873ZM745.702 754.207V760.792H736.792V754.207H745.702ZM732.917 754.207V760.792H724.007V754.207H732.917ZM719.746 754.207V760.792H710.836V754.207H719.746ZM706.574 754.207V760.792H697.664V754.207H706.574ZM693.403 754.207V760.792H684.492V754.207H693.403ZM680.231 754.207V760.792H671.321V754.207H680.231ZM667.447 754.207V760.792H658.537V754.207H667.447ZM654.275 754.207V760.792H645.365V754.207H654.275ZM641.104 754.207V760.792H632.193V754.207H641.104ZM627.932 754.207V760.792H619.022V754.207H627.932ZM614.76 754.207V760.792H605.85V754.207H614.76ZM601.976 754.207V760.792H593.066V754.207H601.976ZM588.805 754.207V760.792H579.895V754.207H588.805ZM575.633 754.207V760.792H566.723V754.207H575.633ZM562.461 754.207V760.792H553.551V754.207H562.461ZM549.677 754.207V760.792H540.767V754.207H549.677ZM536.506 754.207V760.792H527.595V754.207H536.506ZM523.334 754.207V760.792H514.424V754.207H523.334ZM510.162 754.207V760.792H501.252V754.207H510.162ZM837.516 745.684V752.27H828.605V745.684H837.516ZM824.344 745.684V752.27H815.434V745.684H824.344ZM811.172 745.684V752.27H802.262V745.684H811.172ZM798.001 745.684V752.27H789.091V745.684H798.001ZM785.216 745.684V752.27H776.306V745.684H785.216ZM772.045 745.684V752.27H763.135V745.684H772.045ZM758.873 745.684V752.27H749.963V745.684H758.873ZM745.702 745.684V752.27H736.792V745.684H745.702ZM732.917 745.684V752.27H724.007V745.684H732.917ZM719.746 745.684V752.27H710.836V745.684H719.746ZM706.574 745.684V752.27H697.664V745.684H706.574ZM693.403 745.684V752.27H684.492V745.684H693.403ZM680.231 745.684V752.27H671.321V745.684H680.231ZM667.447 745.684V752.27H658.537V745.684H667.447ZM654.275 745.684V752.27H645.365V745.684H654.275ZM641.104 745.684V752.27H632.193V745.684H641.104ZM627.932 745.684V752.27H619.022V745.684H627.932ZM614.76 745.684V752.27H605.85V745.684H614.76ZM601.976 745.684V752.27H593.066V745.684H601.976ZM588.805 745.684V752.27H579.895V745.684H588.805ZM575.633 745.684V752.27H566.723V745.684H575.633ZM562.461 745.684V752.27H553.551V745.684H562.461ZM549.677 745.684V752.27H540.767V745.684H549.677ZM536.506 745.684V752.27H527.595V745.684H536.506ZM523.334 745.684V752.27H514.424V745.684H523.334ZM510.162 745.684V752.27H501.252V745.684H510.162ZM837.516 736.386V742.972H828.605V736.386H837.516ZM824.344 736.386V742.972H815.434V736.386H824.344ZM811.172 736.386V742.972H802.262V736.386H811.172ZM798.001 736.386V742.972H789.091V736.386H798.001ZM785.216 736.386V742.972H776.306V736.386H785.216ZM772.045 736.386V742.972H763.135V736.386H772.045ZM758.873 736.386V742.972H749.963V736.386H758.873ZM745.702 736.386V742.972H736.792V736.386H745.702ZM732.917 736.386V742.972H724.007V736.386H732.917ZM719.746 736.386V742.972H710.836V736.386H719.746ZM706.574 736.386V742.972H697.664V736.386H706.574ZM693.403 736.386V742.972H684.492V736.386H693.403ZM680.231 736.386V742.972H671.321V736.386H680.231ZM667.447 736.386V742.972H658.537V736.386H667.447ZM654.275 736.386V742.972H645.365V736.386H654.275ZM641.104 736.386V742.972H632.193V736.386H641.104ZM627.932 736.386V742.972H619.022V736.386H627.932ZM614.76 736.386V742.972H605.85V736.386H614.76ZM601.976 736.386V742.972H593.066V736.386H601.976ZM588.805 736.386V742.972H579.895V736.386H588.805ZM575.633 736.386V742.972H566.723V736.386H575.633ZM562.461 736.386V742.972H553.551V736.386H562.461ZM549.677 736.386V742.972H540.767V736.386H549.677ZM536.506 736.386V742.972H527.595V736.386H536.506ZM523.334 736.386V742.972H514.424V736.386H523.334ZM510.162 736.386V742.972H501.252V736.386H510.162ZM837.516 727.863V734.449H828.605V727.863H837.516ZM824.344 727.863V734.449H815.434V727.863H824.344ZM811.172 727.863V734.449H802.262V727.863H811.172ZM798.001 727.863V734.449H789.091V727.863H798.001ZM785.216 727.863V734.449H776.306V727.863H785.216ZM772.045 727.863V734.449H763.135V727.863H772.045ZM758.873 727.863V734.449H749.963V727.863H758.873ZM745.702 727.863V734.449H736.792V727.863H745.702ZM732.917 727.863V734.449H724.007V727.863H732.917ZM719.746 727.863V734.449H710.836V727.863H719.746ZM706.574 727.863V734.449H697.664V727.863H706.574ZM693.403 727.863V734.449H684.492V727.863H693.403ZM680.231 727.863V734.449H671.321V727.863H680.231ZM667.447 727.863V734.449H658.537V727.863H667.447ZM654.275 727.863V734.449H645.365V727.863H654.275ZM641.104 727.863V734.449H632.193V727.863H641.104ZM627.932 727.863V734.449H619.022V727.863H627.932ZM614.76 727.863V734.449H605.85V727.863H614.76ZM601.976 727.863V734.449H593.066V727.863H601.976ZM588.805 727.863V734.449H579.895V727.863H588.805ZM575.633 727.863V734.449H566.723V727.863H575.633ZM562.461 727.863V734.449H553.551V727.863H562.461ZM549.677 727.863V734.449H540.767V727.863H549.677ZM536.506 727.863V734.449H527.595V727.863H536.506ZM523.334 727.863V734.449H514.424V727.863H523.334ZM510.162 727.863V734.449H501.252V727.863H510.162ZM837.516 718.953V725.539H828.605V718.953H837.516ZM824.344 718.953V725.539H815.434V718.953H824.344ZM811.172 718.953V725.539H802.262V718.953H811.172ZM798.001 718.953V725.539H789.091V718.953H798.001ZM785.216 718.953V725.539H776.306V718.953H785.216ZM772.045 718.953V725.539H763.135V718.953H772.045ZM758.873 718.953V725.539H749.963V718.953H758.873ZM745.702 718.953V725.539H736.792V718.953H745.702ZM732.917 718.953V725.539H724.007V718.953H732.917ZM719.746 718.953V725.539H710.836V718.953H719.746ZM706.574 718.953V725.539H697.664V718.953H706.574ZM693.403 718.953V725.539H684.492V718.953H693.403ZM680.231 718.953V725.539H671.321V718.953H680.231ZM667.447 718.953V725.539H658.537V718.953H667.447ZM654.275 718.953V725.539H645.365V718.953H654.275ZM641.104 718.953V725.539H632.193V718.953H641.104ZM627.932 718.953V725.539H619.022V718.953H627.932ZM614.76 718.953V725.539H605.85V718.953H614.76ZM601.976 718.953V725.539H593.066V718.953H601.976ZM588.805 718.953V725.539H579.895V718.953H588.805ZM575.633 718.953V725.539H566.723V718.953H575.633ZM562.461 718.953V725.539H553.551V718.953H562.461ZM549.677 718.953V725.539H540.767V718.953H549.677ZM536.506 718.953V725.539H527.595V718.953H536.506ZM523.334 718.953V725.539H514.424V718.953H523.334ZM510.162 718.953V725.539H501.252V718.953H510.162Z" fill="#53A6EA"/>
<path d="M203.342 485.35L901.824 485.35V272.668C901.824 272.668 682.168 233.928 552.389 270.731C422.997 307.921 297.867 366.031 258.74 415.618C219.612 465.206 203.342 485.35 203.342 485.35Z" fill="#196C9B"/>
<path d="M902.213 282.353C839.066 267.632 460.964 192.477 228.524 465.206L902.213 465.206V510.532L170.414 510.532C170.414 510.532 374.574 155.286 902.213 264.533V282.353Z" fill="#53A6EA"/>
<path d="M902.213 405.933C569.049 383.077 351.33 419.88 351.33 419.88C351.33 419.88 349.393 391.987 356.753 368.743C554.327 241.288 832.093 288.164 902.213 302.885V405.933Z" fill="#53A6EA"/>
<path d="M902.213 406.708C697.278 394.311 550.066 400.51 461.739 407.87C368.376 415.618 319.951 426.853 314.915 428.015C314.14 431.114 310.653 449.322 311.041 464.431C515.588 425.691 833.643 447.385 902.213 452.809V454.358C833.643 448.935 514.813 427.24 310.653 465.98H309.878V465.205C309.491 448.547 313.752 427.24 313.752 427.24V426.853H314.14C314.527 426.853 362.952 414.843 461.352 406.708C549.679 399.347 697.278 393.149 902.213 405.546V406.708Z" fill="#53A6EA"/>
<path d="M902.211 484.576V486.126L334.67 485.738H334.283L309.877 465.593L310.652 464.431L334.67 484.189L902.211 484.576Z" fill="#53A6EA"/>
<path d="M196.369 485.351H-0.42981L25.526 492.711L187.459 498.522L196.369 485.351Z" fill="#53A6EA"/>
<path d="M359.206 367.765L363.342 368.791L369.309 344.726L365.173 343.7L359.206 367.765Z" fill="#53A6EA"/>
<path d="M377.709 355.738L381.846 356.764L387.816 332.7L383.68 331.674L377.709 355.738Z" fill="#53A6EA"/>
<path d="M394.731 347.68L398.832 348.839L406.732 320.879L402.631 319.72L394.731 347.68Z" fill="#53A6EA"/>
<path d="M413.567 342.895L417.668 344.054L425.577 316.095L421.476 314.935L413.567 342.895Z" fill="#53A6EA"/>
<path d="M433.758 331.752L437.857 332.915L445.786 304.964L441.687 303.801L433.758 331.752Z" fill="#53A6EA"/>
<path d="M452.732 324.463L456.832 325.624L464.744 297.667L460.643 296.507L452.732 324.463Z" fill="#53A6EA"/>
<path d="M472.181 316.579L476.283 317.735L484.169 289.77L480.067 288.613L472.181 316.579Z" fill="#53A6EA"/>
<path d="M490.715 313.551L494.816 314.709L502.711 286.746L498.609 285.588L490.715 313.551Z" fill="#53A6EA"/>
<path d="M509.538 310.723L513.639 311.884L521.55 283.927L517.45 282.766L509.538 310.723Z" fill="#53A6EA"/>
<path d="M529.546 303.599L533.646 304.759L541.555 276.802L537.455 275.642L529.546 303.599Z" fill="#53A6EA"/>
<path d="M549.61 300.779L553.711 301.938L561.617 273.979L557.516 272.819L549.61 300.779Z" fill="#53A6EA"/>
<path d="M348.23 483.801L324.986 462.107L329.247 424.916L324.986 424.141L320.724 463.656L345.131 486.9L348.23 483.801Z" fill="#53A6EA"/>
<path d="M367.987 483.413L342.806 459.007L346.68 421.429L342.419 421.042L338.545 460.557L364.888 486.512L367.987 483.413Z" fill="#53A6EA"/>
<path d="M389.294 483.801L359.076 456.683L362.563 419.105L358.302 418.718L354.428 458.233L386.194 486.9L389.294 483.801Z" fill="#53A6EA"/>
<path d="M406.34 483.413L376.51 453.971L379.222 416.006L374.96 415.618L371.861 455.908L403.628 486.512L406.34 483.413Z" fill="#53A6EA"/>
<path d="M424.161 483.413L394.332 452.421L396.269 413.681L392.007 413.294L390.07 453.971L421.062 486.512L424.161 483.413Z" fill="#53A6EA"/>
<path d="M442.757 483.801L412.152 450.485L415.639 411.357L411.377 410.97L407.891 452.034L439.657 486.9L442.757 483.801Z" fill="#53A6EA"/>
<path d="M460.964 483.801L431.134 448.547L434.234 409.807L429.972 409.42L426.873 450.097L457.865 486.512L460.964 483.801Z" fill="#53A6EA"/>
<path d="M478.784 484.188L449.729 447.385L452.828 407.87L448.954 407.483L445.08 448.935L475.685 486.512L478.784 484.188Z" fill="#53A6EA"/>
<path d="M500.091 485.738L468.324 446.223L471.81 406.321L467.549 405.934L464.062 447.386L496.604 488.45L500.091 485.738Z" fill="#53A6EA"/>
<path d="M518.299 484.188L487.695 445.061L491.181 405.546L486.92 405.158L483.433 446.223L514.813 486.512L518.299 484.188Z" fill="#53A6EA"/>
<path d="M535.343 484.188L508.613 443.511L512.099 403.609L507.838 403.221L504.351 444.673L531.857 486.512L535.343 484.188Z" fill="#53A6EA"/>
<path d="M553.94 484.188L527.984 443.511L531.471 403.609L527.209 403.221L523.723 444.673L550.453 486.512L553.94 484.188Z" fill="#53A6EA"/>
<path d="M574.471 484.189L549.677 440.8L553.164 401.285L548.903 400.898L545.416 441.962L570.597 486.126L574.471 484.189Z" fill="#53A6EA"/>
<path d="M307.94 410.969C312.589 410.969 316.075 397.798 316.075 381.14C316.075 364.482 312.589 351.31 307.94 351.31C303.291 351.31 299.805 364.482 299.805 381.14C299.805 397.798 303.291 410.969 307.94 410.969Z" fill="#53A6EA"/>
<path d="M367.6 479.927C367.6 479.927 360.239 516.342 359.077 523.316C358.302 530.289 361.789 545.785 371.086 554.695C377.285 554.695 381.159 552.758 381.159 552.758C381.159 552.758 394.33 486.9 396.267 481.864C398.592 477.215 367.6 479.927 367.6 479.927Z" fill="#53A6EA"/>
<path d="M552.004 169.233V195.576H691.468V169.233H552.004Z" fill="#53A6EA"/>
<path d="M440.045 132.43V156.061L709.288 156.061V132.43L440.045 132.43Z" fill="#53A6EA"/>
<path d="M381.935 152.575V188.216L708.901 188.216V152.575L381.935 152.575Z" fill="#53A6EA"/>
<path d="M376.123 142.502V158.385H455.927V142.502H376.123Z" fill="#53A6EA"/>
<path d="M321.5 165.359V184.342H404.791V165.359H321.5Z" fill="#53A6EA"/>
<path d="M295.158 147.538V167.296H397.432V147.538H295.158Z" fill="#53A6EA"/>
<path d="M275.012 159.935V178.918H344.356V159.935H275.012Z" fill="#53A6EA"/>
<path d="M213.416 154.899V169.62H306.004V154.899H213.416Z" fill="#53A6EA"/>
<path d="M173.514 163.809V173.494H286.634V163.809H173.514Z" fill="#53A6EA"/>
<path d="M150.656 159.935V167.296H222.325V159.935H150.656Z" fill="#53A6EA"/>
<path d="M90.2225 165.358V168.458H186.685V165.358H90.2225Z" fill="#53A6EA"/>
<path d="M557.814 172.719V192.089H562.851V172.719H557.814Z" fill="#196C9B"/>
<path d="M447.406 137.853V157.223H452.442V137.853H447.406Z" fill="#196C9B"/>
<path d="M458.641 137.853V157.223H463.677V137.853H458.641Z" fill="#196C9B"/>
<path d="M470.264 137.853V157.223H475.3V137.853H470.264Z" fill="#196C9B"/>
<path d="M481.498 137.853V157.223H486.534V137.853H481.498Z" fill="#196C9B"/>
<path d="M492.732 137.853V157.223H497.768V137.853H492.732Z" fill="#196C9B"/>
<path d="M504.353 137.853V157.223H509.39V137.853H504.353Z" fill="#196C9B"/>
<path d="M515.588 137.853V157.223H520.624V137.853H515.588Z" fill="#196C9B"/>
<path d="M526.822 137.853V157.223H531.858V137.853H526.822Z" fill="#196C9B"/>
<path d="M538.445 137.853V157.223H543.481V137.853H538.445Z" fill="#196C9B"/>
<path d="M549.68 137.853V157.223H554.716V137.853H549.68Z" fill="#196C9B"/>
<path d="M386.197 163.034V182.404H391.233V163.034H386.197Z" fill="#196C9B"/>
<path d="M397.818 163.034V182.404H402.854V163.034H397.818Z" fill="#196C9B"/>
<path d="M409.055 163.034V182.404H414.091V163.034H409.055Z" fill="#196C9B"/>
<path d="M420.676 163.034V182.404H425.712V163.034H420.676Z" fill="#196C9B"/>
<path d="M431.91 163.034V182.404H436.946V163.034H431.91Z" fill="#196C9B"/>
<path d="M443.144 163.034V182.404H448.181V163.034H443.144Z" fill="#196C9B"/>
<path d="M454.767 163.034V182.404H459.804V163.034H454.767Z" fill="#196C9B"/>
<path d="M466.002 163.034V182.404H471.038V163.034H466.002Z" fill="#196C9B"/>
<path d="M477.236 163.034V182.404H482.272V163.034H477.236Z" fill="#196C9B"/>
<path d="M488.857 163.034V182.404H493.893V163.034H488.857Z" fill="#196C9B"/>
<path d="M280.824 163.809V175.044H285.473V163.809H280.824Z" fill="#196C9B"/>
<path d="M291.283 163.809V175.044H295.932V163.809H291.283Z" fill="#196C9B"/>
<path d="M301.744 163.809V175.044H306.393V163.809H301.744Z" fill="#196C9B"/>
<path d="M312.203 163.809V175.044H316.852V163.809H312.203Z" fill="#196C9B"/>
<path d="M322.664 163.809V175.044H327.313V163.809H322.664Z" fill="#196C9B"/>
<path d="M333.51 163.809V175.044H338.158V163.809H333.51Z" fill="#196C9B"/>
<path d="M343.971 163.809V175.044H348.619V163.809H343.971Z" fill="#196C9B"/>
<path d="M354.43 163.809V175.044H359.078V163.809H354.43Z" fill="#196C9B"/>
</g>
</g>
</g>
<defs>
<clipPath id="clip0_1_954">
<rect width="881" height="568" fill="white" transform="matrix(0 -1 1 0 0 881)"/>
</clipPath>
</defs>
</svg>
