<svg width="360" height="358" viewBox="0 0 360 358" fill="none" xmlns="http://www.w3.org/2000/svg">
<g opacity="0.15" clip-path="url(#clip0_1_1670)">
<g opacity="0.9">
<mask id="mask0_1_1670" style="mask-type:luminance" maskUnits="userSpaceOnUse" x="-303" y="-357" width="715" height="715">
<path d="M412 358L-303 358L-303 -357L412 -357L412 358Z" fill="white"/>
</mask>
<g mask="url(#mask0_1_1670)">
<path d="M209.511 83.0107H165.896L165.896 -109.181H209.511L209.511 83.0107Z" fill="#BBDCEF"/>
<path d="M199.93 94.5938H170.615V81.5807H199.93V94.5938Z" fill="#BBDCEF"/>
<path d="M194.782 102.458H176.049V94.164H194.782V102.458Z" fill="#BBDCEF"/>
<path d="M192.495 109.322H178.195V101.457H192.495V109.322Z" fill="#BBDCEF"/>
<path d="M105.694 74.7168H62.0791L62.0791 -117.475H105.694L105.694 74.7168Z" fill="#BBDCEF"/>
<path d="M96.2564 85.1562H66.9414V72.1433H96.2564V85.1562Z" fill="#BBDCEF"/>
<path d="M90.9652 93.0206H72.2322V84.7266H90.9652V93.0206Z" fill="#BBDCEF"/>
<path d="M88.6772 99.8848H74.3772V92.0198H88.6772V99.8848Z" fill="#BBDCEF"/>
<path d="M42.4871 135.778H-1.12793L-1.12793 -56.4137H42.4871L42.4871 135.778Z" fill="#E6F0F5"/>
<path d="M32.9058 147.646H3.59082L3.59082 134.633H32.9058V147.646Z" fill="#E6F0F5"/>
<path d="M27.7574 155.369H9.02441V147.075H27.7574V155.369Z" fill="#E6F0F5"/>
<path d="M25.47 162.376H11.17V154.511H25.47V162.376Z" fill="#E6F0F5"/>
<path d="M283.443 157.657H239.828L239.828 -34.5348H283.443V157.657Z" fill="#E6F0F5"/>
<path d="M274.005 169.525H244.69V156.512H274.005V169.525Z" fill="#E6F0F5"/>
<path d="M268.714 177.248H249.981V168.954H268.714V177.248Z" fill="#E6F0F5"/>
<path d="M266.426 184.255H252.126V176.39H266.426V184.255Z" fill="#E6F0F5"/>
<path d="M-36.5918 129.2L-13.9978 154.511L7.0232 129.2L7.0232 -62.8492H-36.5918L-36.5918 129.2Z" fill="#BBDCEF"/>
<path d="M242.545 42.3984H213.516V-36.2516H242.545V42.3984Z" fill="#BBDCEF"/>
<path d="M281.011 12.9404L251.982 12.9404V-111.184H281.011V12.9404Z" fill="#BBDCEF"/>
<path d="M321.766 128.485H292.737V-93.7366H321.766V128.485Z" fill="#BBDCEF"/>
<path d="M368.098 147.074H342.358V-93.5948H368.098V147.074Z" fill="#BBDCEF"/>
<path d="M61.7927 142.642L54.6427 -61.991C54.6427 -61.991 54.0706 -77.578 69.3716 -73.431C79.3816 -9.79604 81.2406 98.741 75.0916 142.785H61.7927V142.642Z" fill="#8DBBED"/>
<path d="M45.0618 142.642L52.4978 -66.8528L68.5138 -70.5708C68.5138 -70.5708 77.6658 38.2522 64.2238 142.499H45.0618V142.642Z" fill="#196C9B"/>
<path d="M45.2045 142.642H41.7725C39.6275 125.482 29.0455 32.2463 42.2015 -73.5737C55.9295 -75.8617 69.3715 -73.5737 69.3715 -73.5737C69.3715 -73.5737 57.2165 39.6823 52.6405 74.5743C48.7795 102.888 46.0625 132.489 45.2045 142.642Z" fill="#53A6EA"/>
<path d="M294.024 75.7168H274.004V68.4238H294.024V75.7168Z" fill="#196C9B"/>
<path d="M296.599 67.5664H268.428V42.6844H296.599V67.5664Z" fill="#196C9B"/>
<path d="M298.886 43.1133H265.996V-112.185H298.886V43.1133Z" fill="#196C9B"/>
<path d="M297.027 43.9714V69.2825H294.596V78.8635H292.88V83.0104H285.158V112.897H280.01V83.0104H272.288V78.8635H270.429V69.2825H267.998V43.9714H264.566V-113.043H300.459V43.9714H297.027ZM274.719 70.9985V74.2875H276.435V70.9985H274.719ZM277.15 70.9985V74.2875H278.866V70.9985H277.15ZM279.581 70.9985V74.2875H281.297V70.9985H279.581ZM282.155 70.9985V74.2875H283.871V70.9985H282.155ZM284.586 70.9985V74.2875H286.302V70.9985H284.586ZM287.017 70.9985V74.2875H288.733V70.9985H287.017ZM289.591 70.9985V74.2875H291.307V70.9985H289.591ZM293.738 74.2875V70.9985H292.022V74.2875H293.738ZM294.31 53.2664V57.4135H296.455V53.2664H294.31ZM293.309 64.2775V60.5595H291.164V64.2775H293.309ZM291.164 53.2664V57.4135H293.309V53.2664H291.164ZM293.309 50.2635V46.1164H291.164V50.2635H293.309ZM290.163 64.2775V60.5595H288.018V64.2775H290.163ZM290.163 50.2635V46.1164H288.018V50.2635H290.163ZM287.16 64.2775V60.5595H285.015V64.2775H287.16ZM285.015 53.2664V57.4135H287.16V53.2664H285.015ZM287.16 50.2635V46.1164H285.015V50.2635H287.16ZM281.869 53.2664V57.4135H284.014V53.2664H281.869ZM280.868 64.2775V60.5595H278.723V64.2775H280.868ZM278.866 53.2664V57.4135H281.011V53.2664H278.866ZM277.865 64.2775V60.5595H275.72V64.2775H277.865ZM277.865 50.2635V46.1164H275.72V50.2635H277.865ZM274.719 64.2775V60.5595H272.574V64.2775H274.719ZM274.719 57.4135V53.2664H272.574V57.4135H274.719ZM269.571 57.4135H271.716V53.2664H269.571V57.4135ZM269.571 50.2635H271.716V46.1164H269.571V50.2635ZM269.428 -110.326H266.997V-106.465H269.428V-110.326ZM269.428 -104.32H266.997V-100.459H269.428V-104.32ZM269.428 -98.4566H266.997V-94.5955H269.428V-98.4566ZM269.428 -92.5936H266.997V-88.7325H269.428V-92.5936ZM269.428 -86.7305H266.997V-82.8695H269.428V-86.7305ZM269.428 -80.7245H266.997V-76.8636H269.428V-80.7245ZM269.428 -74.8616H266.997V-71.0005H269.428V-74.8616ZM269.428 -68.9986H266.997V-65.1375H269.428V-68.9986ZM269.428 -63.1355H266.997V-59.2745H269.428V-63.1355ZM269.428 -57.2725H266.997V-53.4116H269.428V-57.2725ZM269.428 -51.2666H266.997V-47.4055H269.428V-51.2666ZM269.428 -45.4035H266.997V-41.5425H269.428V-45.4035ZM269.428 -39.5405H266.997V-35.6795H269.428V-39.5405ZM269.428 -33.6775H266.997V-29.8166H269.428V-33.6775ZM269.428 -27.6716H266.997V-23.8105H269.428V-27.6716ZM269.428 -21.8085H266.997V-17.9475H269.428V-21.8085ZM269.428 -15.9455H266.997V-12.0845H269.428V-15.9455ZM269.428 -10.0825H266.997V-6.22154H269.428V-10.0825ZM269.428 -4.07654H266.997V-0.215546H269.428V-4.07654ZM269.428 1.78645H266.997V5.64747H269.428V1.78645ZM269.428 7.64946H266.997V11.5105H269.428V7.64946ZM269.428 13.5125H266.997V17.3735H269.428V13.5125ZM269.428 19.5185H266.997V23.3795H269.428V19.5185ZM269.428 25.3814H266.997V29.2425H269.428V25.3814ZM269.428 31.2445H266.997V35.1055H269.428V31.2445ZM269.428 37.1075H266.997V40.9685H269.428V37.1075ZM272.574 -110.326H270.143V-106.465H272.574V-110.326ZM272.574 -104.32H270.143V-100.459H272.574V-104.32ZM272.574 -98.4566H270.143V-94.5955H272.574V-98.4566ZM272.574 -92.5936H270.143V-88.7325H272.574V-92.5936ZM272.574 -86.7305H270.143V-82.8695H272.574V-86.7305ZM272.574 -80.7245H270.143V-76.8636H272.574V-80.7245ZM272.574 -74.8616H270.143V-71.0005H272.574V-74.8616ZM272.574 -68.9986H270.143V-65.1375H272.574V-68.9986ZM272.574 -63.1355H270.143V-59.2745H272.574V-63.1355ZM272.574 -57.2725H270.143V-53.4116H272.574V-57.2725ZM272.574 -51.2666H270.143V-47.4055H272.574V-51.2666ZM272.574 -45.4035H270.143V-41.5425H272.574V-45.4035ZM272.574 -39.5405H270.143V-35.6795H272.574V-39.5405ZM272.574 -33.6775H270.143V-29.8166H272.574V-33.6775ZM272.574 -27.6716H270.143V-23.8105H272.574V-27.6716ZM272.574 -21.8085H270.143V-17.9475H272.574V-21.8085ZM272.574 -15.9455H270.143V-12.0845H272.574V-15.9455ZM272.574 -10.0825H270.143V-6.22154H272.574V-10.0825ZM272.574 -4.07654H270.143V-0.215546H272.574V-4.07654ZM272.574 1.78645H270.143V5.64747H272.574V1.78645ZM272.574 7.64946H270.143V11.5105H272.574V7.64946ZM272.574 13.5125H270.143V17.3735H272.574V13.5125ZM272.574 19.5185H270.143V23.3795H272.574V19.5185ZM272.574 25.3814H270.143V29.2425H272.574V25.3814ZM272.574 31.2445H270.143V35.1055H272.574V31.2445ZM272.574 37.1075H270.143V40.9685H272.574V37.1075ZM275.72 -110.326H273.289V-106.465H275.72V-110.326ZM275.72 -104.32H273.289V-100.459H275.72V-104.32ZM275.72 -98.4566H273.289V-94.5955H275.72V-98.4566ZM275.72 -92.5936H273.289V-88.7325H275.72V-92.5936ZM275.72 -86.7305H273.289V-82.8695H275.72V-86.7305ZM275.72 -80.7245H273.289V-76.8636H275.72V-80.7245ZM275.72 -74.8616H273.289V-71.0005H275.72V-74.8616ZM275.72 -68.9986H273.289V-65.1375H275.72V-68.9986ZM275.72 -63.1355H273.289V-59.2745H275.72V-63.1355ZM275.72 -57.2725H273.289V-53.4116H275.72V-57.2725ZM275.72 -51.2666H273.289V-47.4055H275.72V-51.2666ZM275.72 -45.4035H273.289V-41.5425H275.72V-45.4035ZM275.72 -39.5405H273.289V-35.6795H275.72V-39.5405ZM275.72 -33.6775H273.289V-29.8166H275.72V-33.6775ZM275.72 -27.6716H273.289V-23.8105H275.72V-27.6716ZM275.72 -21.8085H273.289V-17.9475H275.72V-21.8085ZM275.72 -15.9455H273.289V-12.0845H275.72V-15.9455ZM275.72 -10.0825H273.289V-6.22154H275.72V-10.0825ZM275.72 -4.07654H273.289V-0.215546H275.72V-4.07654ZM275.72 1.78645H273.289V5.64747H275.72V1.78645ZM275.72 7.64946H273.289V11.5105H275.72V7.64946ZM275.72 13.5125H273.289V17.3735H275.72V13.5125ZM275.72 19.5185H273.289V23.3795H275.72V19.5185ZM275.72 25.3814H273.289V29.2425H275.72V25.3814ZM275.72 31.2445H273.289V35.1055H275.72V31.2445ZM275.72 37.1075H273.289V40.9685H275.72V37.1075ZM278.866 -110.326H276.435V-106.465H278.866V-110.326ZM278.866 -104.32H276.435V-100.459H278.866V-104.32ZM278.866 -98.4566H276.435V-94.5955H278.866V-98.4566ZM278.866 -92.5936H276.435V-88.7325H278.866V-92.5936ZM278.866 -86.7305H276.435V-82.8695H278.866V-86.7305ZM278.866 -80.7245H276.435V-76.8636H278.866V-80.7245ZM278.866 -74.8616H276.435V-71.0005H278.866V-74.8616ZM278.866 -68.9986H276.435V-65.1375H278.866V-68.9986ZM278.866 -63.1355H276.435V-59.2745H278.866V-63.1355ZM278.866 -57.2725H276.435V-53.4116H278.866V-57.2725ZM278.866 -51.2666H276.435V-47.4055H278.866V-51.2666ZM278.866 -45.4035H276.435V-41.5425H278.866V-45.4035ZM278.866 -39.5405H276.435V-35.6795H278.866V-39.5405ZM278.866 -33.6775H276.435V-29.8166H278.866V-33.6775ZM278.866 -27.6716H276.435V-23.8105H278.866V-27.6716ZM278.866 -21.8085H276.435V-17.9475H278.866V-21.8085ZM278.866 -15.9455H276.435V-12.0845H278.866V-15.9455ZM278.866 -10.0825H276.435V-6.22154H278.866V-10.0825ZM278.866 -4.07654H276.435V-0.215546H278.866V-4.07654ZM278.866 1.78645H276.435V5.64747H278.866V1.78645ZM278.866 7.64946H276.435V11.5105H278.866V7.64946ZM278.866 13.5125H276.435V17.3735H278.866V13.5125ZM278.866 19.5185H276.435V23.3795H278.866V19.5185ZM278.866 25.3814H276.435V29.2425H278.866V25.3814ZM278.866 31.2445H276.435V35.1055H278.866V31.2445ZM282.012 -110.326H279.581V-106.465H282.012V-110.326ZM282.012 -104.32H279.581V-100.459H282.012V-104.32ZM282.012 -98.4566H279.581V-94.5955H282.012V-98.4566ZM282.012 -92.5936H279.581V-88.7325H282.012V-92.5936ZM282.012 -86.7305H279.581V-82.8695H282.012V-86.7305ZM282.012 -80.7245H279.581V-76.8636H282.012V-80.7245ZM282.012 -74.8616H279.581V-71.0005H282.012V-74.8616ZM282.012 -68.9986H279.581V-65.1375H282.012V-68.9986ZM282.012 -63.1355H279.581V-59.2745H282.012V-63.1355ZM282.012 -57.2725H279.581V-53.4116H282.012V-57.2725ZM282.012 -51.2666H279.581V-47.4055H282.012V-51.2666ZM282.012 -45.4035H279.581V-41.5425H282.012V-45.4035ZM282.012 -39.5405H279.581V-35.6795H282.012V-39.5405ZM282.012 -33.6775H279.581V-29.8166H282.012V-33.6775ZM282.012 -27.6716H279.581V-23.8105H282.012V-27.6716ZM282.012 -21.8085H279.581V-17.9475H282.012V-21.8085ZM282.012 -15.9455H279.581V-12.0845H282.012V-15.9455ZM282.012 -10.0825H279.581V-6.22154H282.012V-10.0825ZM282.012 -4.07654H279.581V-0.215546H282.012V-4.07654ZM282.012 1.78645H279.581V5.64747H282.012V1.78645ZM282.012 7.64946H279.581V11.5105H282.012V7.64946ZM282.012 13.5125H279.581V17.3735H282.012V13.5125ZM282.012 19.5185H279.581V23.3795H282.012V19.5185ZM282.012 25.3814H279.581V29.2425H282.012V25.3814ZM282.012 31.2445H279.581V35.1055H282.012V31.2445ZM282.012 37.1075H279.581V40.9685H282.012V37.1075ZM285.015 -110.326H282.584V-106.465H285.015V-110.326ZM285.015 -104.32H282.584V-100.459H285.015V-104.32ZM285.015 -98.4566H282.584V-94.5955H285.015V-98.4566ZM285.015 -92.5936H282.584V-88.7325H285.015V-92.5936ZM285.015 -86.7305H282.584V-82.8695H285.015V-86.7305ZM285.015 -80.7245H282.584V-76.8636H285.015V-80.7245ZM285.015 -74.8616H282.584V-71.0005H285.015V-74.8616ZM285.015 -68.9986H282.584V-65.1375H285.015V-68.9986ZM285.015 -63.1355H282.584V-59.2745H285.015V-63.1355ZM285.015 -57.2725H282.584V-53.4116H285.015V-57.2725ZM285.015 -51.2666H282.584V-47.4055H285.015V-51.2666ZM285.015 -45.4035H282.584V-41.5425H285.015V-45.4035ZM285.015 -39.5405H282.584V-35.6795H285.015V-39.5405ZM285.015 -33.6775H282.584V-29.8166H285.015V-33.6775ZM285.015 -27.6716H282.584V-23.8105H285.015V-27.6716ZM285.015 -21.8085H282.584V-17.9475H285.015V-21.8085ZM285.015 -15.9455H282.584V-12.0845H285.015V-15.9455ZM285.015 -10.0825H282.584V-6.22154H285.015V-10.0825ZM285.015 -4.07654H282.584V-0.215546H285.015V-4.07654ZM285.015 1.78645H282.584V5.64747H285.015V1.78645ZM285.015 7.64946H282.584V11.5105H285.015V7.64946ZM285.015 13.5125H282.584V17.3735H285.015V13.5125ZM285.015 19.5185H282.584V23.3795H285.015V19.5185ZM285.015 25.3814H282.584V29.2425H285.015V25.3814ZM285.015 31.2445H282.584V35.1055H285.015V31.2445ZM285.015 37.1075H282.584V40.9685H285.015V37.1075ZM288.161 -110.326H285.73V-106.465H288.161V-110.326ZM288.161 -104.32H285.73V-100.459H288.161V-104.32ZM288.161 -98.4566H285.73V-94.5955H288.161V-98.4566ZM288.161 -92.5936H285.73V-88.7325H288.161V-92.5936ZM288.161 -86.7305H285.73V-82.8695H288.161V-86.7305ZM288.161 -80.7245H285.73V-76.8636H288.161V-80.7245ZM288.161 -74.8616H285.73V-71.0005H288.161V-74.8616ZM288.161 -68.9986H285.73V-65.1375H288.161V-68.9986ZM288.161 -63.1355H285.73V-59.2745H288.161V-63.1355ZM288.161 -57.2725H285.73V-53.4116H288.161V-57.2725ZM288.161 -51.2666H285.73V-47.4055H288.161V-51.2666ZM288.161 -45.4035H285.73V-41.5425H288.161V-45.4035ZM288.161 -39.5405H285.73V-35.6795H288.161V-39.5405ZM288.161 -33.6775H285.73V-29.8166H288.161V-33.6775ZM288.161 -27.6716H285.73V-23.8105H288.161V-27.6716ZM288.161 -21.8085H285.73V-17.9475H288.161V-21.8085ZM288.161 -15.9455H285.73V-12.0845H288.161V-15.9455ZM288.161 -10.0825H285.73V-6.22154H288.161V-10.0825ZM288.161 -4.07654H285.73V-0.215546H288.161V-4.07654ZM288.161 1.78645H285.73V5.64747H288.161V1.78645ZM288.161 7.64946H285.73V11.5105H288.161V7.64946ZM288.161 13.5125H285.73V17.3735H288.161V13.5125ZM288.161 19.5185H285.73V23.3795H288.161V19.5185ZM288.161 25.3814H285.73V29.2425H288.161V25.3814ZM288.161 31.2445H285.73V35.1055H288.161V31.2445ZM288.161 37.1075H285.73V40.9685H288.161V37.1075ZM291.45 -110.326H289.019V-106.465H291.45V-110.326ZM291.45 -104.32H289.019V-100.459H291.45V-104.32ZM291.45 -98.4566H289.019V-94.5955H291.45V-98.4566ZM291.45 -92.5936H289.019V-88.7325H291.45V-92.5936ZM291.45 -86.7305H289.019V-82.8695H291.45V-86.7305ZM291.45 -80.7245H289.019V-76.8636H291.45V-80.7245ZM291.45 -74.8616H289.019V-71.0005H291.45V-74.8616ZM291.45 -68.9986H289.019V-65.1375H291.45V-68.9986ZM291.45 -63.1355H289.019V-59.2745H291.45V-63.1355ZM291.45 -57.2725H289.019V-53.4116H291.45V-57.2725ZM291.45 -51.2666H289.019V-47.4055H291.45V-51.2666ZM291.45 -45.4035H289.019V-41.5425H291.45V-45.4035ZM291.45 -39.5405H289.019V-35.6795H291.45V-39.5405ZM291.45 -33.6775H289.019V-29.8166H291.45V-33.6775ZM291.45 -27.6716H289.019V-23.8105H291.45V-27.6716ZM291.45 -21.8085H289.019V-17.9475H291.45V-21.8085ZM291.45 -15.9455H289.019V-12.0845H291.45V-15.9455ZM291.45 -10.0825H289.019V-6.22154H291.45V-10.0825ZM291.45 -4.07654H289.019V-0.215546H291.45V-4.07654ZM291.45 1.78645H289.019V5.64747H291.45V1.78645ZM291.45 7.64946H289.019V11.5105H291.45V7.64946ZM291.45 13.5125H289.019V17.3735H291.45V13.5125ZM291.45 19.5185H289.019V23.3795H291.45V19.5185ZM291.45 25.3814H289.019V29.2425H291.45V25.3814ZM291.45 31.2445H289.019V35.1055H291.45V31.2445ZM291.45 37.1075H289.019V40.9685H291.45V37.1075ZM294.596 -110.326H292.165V-106.465H294.596V-110.326ZM294.596 -104.32H292.165V-100.459H294.596V-104.32ZM294.596 -98.4566H292.165V-94.5955H294.596V-98.4566ZM294.596 -92.5936H292.165V-88.7325H294.596V-92.5936ZM294.596 -86.7305H292.165V-82.8695H294.596V-86.7305ZM294.596 -80.7245H292.165V-76.8636H294.596V-80.7245ZM294.596 -74.8616H292.165V-71.0005H294.596V-74.8616ZM294.596 -68.9986H292.165V-65.1375H294.596V-68.9986ZM294.596 -63.1355H292.165V-59.2745H294.596V-63.1355ZM294.596 -57.2725H292.165V-53.4116H294.596V-57.2725ZM294.596 -51.2666H292.165V-47.4055H294.596V-51.2666ZM294.596 -45.4035H292.165V-41.5425H294.596V-45.4035ZM294.596 -39.5405H292.165V-35.6795H294.596V-39.5405ZM294.596 -33.6775H292.165V-29.8166H294.596V-33.6775ZM294.596 -27.6716H292.165V-23.8105H294.596V-27.6716ZM294.596 -21.8085H292.165V-17.9475H294.596V-21.8085ZM294.596 -15.9455H292.165V-12.0845H294.596V-15.9455ZM294.596 -10.0825H292.165V-6.22154H294.596V-10.0825ZM294.596 -4.07654H292.165V-0.215546H294.596V-4.07654ZM294.596 1.78645H292.165V5.64747H294.596V1.78645ZM294.596 7.64946H292.165V11.5105H294.596V7.64946ZM294.596 13.5125H292.165V17.3735H294.596V13.5125ZM294.596 19.5185H292.165V23.3795H294.596V19.5185ZM294.596 25.3814H292.165V29.2425H294.596V25.3814ZM294.596 31.2445H292.165V35.1055H294.596V31.2445ZM294.596 37.1075H292.165V40.9685H294.596V37.1075ZM297.742 -110.326H295.311V-106.465H297.742V-110.326ZM297.742 -104.32H295.311V-100.459H297.742V-104.32ZM297.742 -98.4566H295.311V-94.5955H297.742V-98.4566ZM297.742 -92.5936H295.311V-88.7325H297.742V-92.5936ZM297.742 -86.7305H295.311V-82.8695H297.742V-86.7305ZM297.742 -80.7245H295.311V-76.8636H297.742V-80.7245ZM297.742 -74.8616H295.311V-71.0005H297.742V-74.8616ZM297.742 -68.9986H295.311V-65.1375H297.742V-68.9986ZM297.742 -63.1355H295.311V-59.2745H297.742V-63.1355ZM297.742 -57.2725H295.311V-53.4116H297.742V-57.2725ZM297.742 -51.2666H295.311V-47.4055H297.742V-51.2666ZM297.742 -45.4035H295.311V-41.5425H297.742V-45.4035ZM297.742 -39.5405H295.311V-35.6795H297.742V-39.5405ZM297.742 -33.6775H295.311V-29.8166H297.742V-33.6775ZM297.742 -27.6716H295.311V-23.8105H297.742V-27.6716ZM297.742 -21.8085H295.311V-17.9475H297.742V-21.8085ZM297.742 -15.9455H295.311V-12.0845H297.742V-15.9455ZM297.742 -10.0825H295.311V-6.22154H297.742V-10.0825ZM297.742 -4.07654H295.311V-0.215546H297.742V-4.07654ZM297.742 1.78645H295.311V5.64747H297.742V1.78645ZM297.742 7.64946H295.311V11.5105H297.742V7.64946ZM297.742 13.5125H295.311V17.3735H297.742V13.5125ZM297.742 19.5185H295.311V23.3795H297.742V19.5185ZM297.742 25.3814H295.311V29.2425H297.742V25.3814ZM297.742 31.2445H295.311V35.1055H297.742V31.2445ZM297.742 37.1075H295.311V40.9685H297.742V37.1075Z" fill="#53A6EA"/>
<path d="M371.387 6.79297L349.365 6.79297V-92.878H371.387V6.79297Z" fill="#196C9B"/>
<path d="M348.65 7.36426V-93.7367H371.816V7.36426L348.65 7.36426ZM351.796 -91.8778H350.223V-89.3037H351.796V-91.8778ZM351.796 -88.1597H350.223V-85.5858H351.796V-88.1597ZM351.796 -84.2987H350.223V-81.7247H351.796V-84.2987ZM351.796 -80.5808H350.223V-78.0067H351.796V-80.5808ZM351.796 -76.7197H350.223V-74.1458H351.796V-76.7197ZM351.796 -73.0017H350.223V-70.4277H351.796V-73.0017ZM351.796 -69.1408H350.223V-66.5667H351.796V-69.1408ZM351.796 -65.2797H350.223V-62.7058H351.796V-65.2797ZM351.796 -61.5617H350.223V-58.9878H351.796V-61.5617ZM351.796 -57.7008H350.223V-55.2697H351.796V-57.7008ZM351.796 -53.9828H350.223V-51.4087H351.796V-53.9828ZM351.796 -50.1217H350.223V-47.5478H351.796V-50.1217ZM351.796 -46.4037H350.223V-43.8297H351.796V-46.4037ZM351.796 -42.5428H350.223V-39.9687H351.796V-42.5428ZM351.796 -38.8247H350.223V-36.2508H351.796V-38.8247ZM351.796 -34.9637H350.223V-32.3897H351.796V-34.9637ZM351.796 -31.1028H350.223V-28.5287H351.796V-31.1028ZM351.796 -27.3847H350.223V-24.8108H351.796V-27.3847ZM351.796 -23.5237H350.223V-20.9497H351.796V-23.5237ZM351.796 -19.8058H350.223V-17.2317H351.796V-19.8058ZM351.796 -15.9447H350.223V-13.3708H351.796V-15.9447ZM351.796 -12.2267H350.223V-9.65275H351.796V-12.2267ZM351.796 -8.36576H350.223V-5.79174H351.796V-8.36576ZM351.796 -4.64775H350.223V-2.07375H351.796V-4.64775ZM351.796 -0.786737H350.223V1.78724H351.796V-0.786737ZM351.796 3.07426H350.223V5.64826H351.796V3.07426ZM353.798 -91.8778H352.225V-89.3037H353.798V-91.8778ZM353.798 -88.1597H352.225V-85.5858H353.798V-88.1597ZM353.798 -84.2987H352.225V-81.7247H353.798V-84.2987ZM353.798 -80.5808H352.225V-78.0067H353.798V-80.5808ZM353.798 -76.7197H352.225V-74.1458H353.798V-76.7197ZM353.798 -73.0017H352.225V-70.4277H353.798V-73.0017ZM353.798 -69.1408H352.225V-66.5667H353.798V-69.1408ZM353.798 -65.2797H352.225V-62.7058H353.798V-65.2797ZM353.798 -61.5617H352.225V-58.9878H353.798V-61.5617ZM353.798 -57.7008H352.225V-55.2697H353.798V-57.7008ZM353.798 -53.9828H352.225V-51.4087H353.798V-53.9828ZM353.798 -50.1217H352.225V-47.5478H353.798V-50.1217ZM353.798 -46.4037H352.225V-43.8297H353.798V-46.4037ZM353.798 -42.5428H352.225V-39.9687H353.798V-42.5428ZM353.798 -38.8247H352.225V-36.2508H353.798V-38.8247ZM353.798 -34.9637H352.225V-32.3897H353.798V-34.9637ZM353.798 -31.1028H352.225V-28.5287H353.798V-31.1028ZM353.798 -27.3847H352.225V-24.8108H353.798V-27.3847ZM353.798 -23.5237H352.225V-20.9497H353.798V-23.5237ZM353.798 -19.8058H352.225V-17.2317H353.798V-19.8058ZM353.798 -15.9447H352.225V-13.3708H353.798V-15.9447ZM353.798 -12.2267H352.225V-9.65275H353.798V-12.2267ZM353.798 -8.36576H352.225V-5.79174H353.798V-8.36576ZM353.798 -4.64775H352.225V-2.07375H353.798V-4.64775ZM353.798 -0.786737H352.225V1.78724L353.798 1.78724V-0.786737ZM353.798 3.07426L352.225 3.07426V5.64826H353.798V3.07426ZM355.943 -91.8778H354.37V-89.3037H355.943V-91.8778ZM355.943 -88.1597H354.37V-85.5858H355.943V-88.1597ZM355.943 -84.2987H354.37V-81.7247H355.943V-84.2987ZM355.943 -80.5808H354.37V-78.0067H355.943V-80.5808ZM355.943 -76.7197H354.37V-74.1458H355.943V-76.7197ZM355.943 -73.0017H354.37V-70.4277H355.943V-73.0017ZM355.943 -69.1408H354.37V-66.5667H355.943V-69.1408ZM355.943 -65.2797H354.37V-62.7058H355.943V-65.2797ZM355.943 -61.5617H354.37V-58.9878H355.943V-61.5617ZM355.943 -57.7008H354.37V-55.2697H355.943V-57.7008ZM355.943 -53.9828H354.37V-51.4087H355.943V-53.9828ZM355.943 -50.1217H354.37V-47.5478H355.943V-50.1217ZM355.943 -46.4037H354.37V-43.8297H355.943V-46.4037ZM355.943 -42.5428H354.37V-39.9687H355.943V-42.5428ZM355.943 -38.8247H354.37V-36.2508H355.943V-38.8247ZM355.943 -34.9637H354.37V-32.3897H355.943V-34.9637ZM355.943 -31.1028H354.37V-28.5287H355.943V-31.1028ZM355.943 -27.3847H354.37V-24.8108H355.943V-27.3847ZM355.943 -23.5237H354.37V-20.9497H355.943V-23.5237ZM355.943 -19.8058H354.37V-17.2317H355.943V-19.8058ZM355.943 -15.9447H354.37V-13.3708H355.943V-15.9447ZM355.943 -12.2267H354.37V-9.65275H355.943V-12.2267ZM355.943 -8.36576H354.37V-5.79174H355.943V-8.36576ZM355.943 -4.64775H354.37V-2.07375H355.943V-4.64775ZM355.943 -0.786737H354.37V1.78724H355.943V-0.786737ZM355.943 3.07426H354.37V5.64826H355.943V3.07426ZM357.945 -91.8778H356.372V-89.3037H357.945V-91.8778ZM357.945 -88.1597H356.372V-85.5858H357.945V-88.1597ZM357.945 -84.2987H356.372V-81.7247H357.945V-84.2987ZM357.945 -80.5808H356.372V-78.0067H357.945V-80.5808ZM357.945 -76.7197H356.372V-74.1458H357.945V-76.7197ZM357.945 -73.0017H356.372V-70.4277H357.945V-73.0017ZM357.945 -69.1408H356.372V-66.5667H357.945V-69.1408ZM357.945 -65.2797H356.372V-62.7058H357.945V-65.2797ZM357.945 -61.5617H356.372V-58.9878H357.945V-61.5617ZM357.945 -57.7008H356.372V-55.2697H357.945V-57.7008ZM357.945 -53.9828H356.372V-51.4087H357.945V-53.9828ZM357.945 -50.1217H356.372V-47.5478H357.945V-50.1217ZM357.945 -46.4037H356.372V-43.8297H357.945V-46.4037ZM357.945 -42.5428H356.372V-39.9687H357.945V-42.5428ZM357.945 -38.8247H356.372V-36.2508H357.945V-38.8247ZM357.945 -34.9637H356.372V-32.3897H357.945V-34.9637ZM357.945 -31.1028H356.372V-28.5287H357.945V-31.1028ZM357.945 -27.3847H356.372V-24.8108H357.945V-27.3847ZM357.945 -23.5237H356.372V-20.9497H357.945V-23.5237ZM357.945 -19.8058H356.372V-17.2317H357.945V-19.8058ZM357.945 -15.9447H356.372V-13.3708H357.945V-15.9447ZM357.945 -12.2267H356.372V-9.65275H357.945V-12.2267ZM357.945 -8.36576L356.372 -8.36576V-5.79174L357.945 -5.79174V-8.36576ZM357.945 -4.64775L356.372 -4.64775V-2.07375L357.945 -2.07375V-4.64775ZM357.945 -0.786737L356.372 -0.786737V1.78724H357.945V-0.786737ZM359.947 -91.8778H358.374V-89.3037H359.947V-91.8778ZM359.947 -88.1597H358.374V-85.5858H359.947V-88.1597ZM359.947 -84.2987H358.374V-81.7247H359.947V-84.2987ZM359.947 -80.5808H358.374V-78.0067H359.947V-80.5808ZM359.947 -76.7197H358.374V-74.1458H359.947V-76.7197ZM359.947 -73.0017H358.374V-70.4277H359.947V-73.0017ZM359.947 -69.1408H358.374V-66.5667H359.947V-69.1408ZM359.947 -65.2797H358.374V-62.7058H359.947V-65.2797ZM359.947 -61.5617H358.374V-58.9878H359.947V-61.5617ZM359.947 -57.7008H358.374V-55.2697H359.947V-57.7008ZM359.947 -53.9828H358.374V-51.4087H359.947V-53.9828ZM359.947 -50.1217H358.374V-47.5478H359.947V-50.1217ZM359.947 -46.4037H358.374V-43.8297H359.947V-46.4037ZM359.947 -42.5428H358.374V-39.9687H359.947V-42.5428ZM359.947 -38.8247H358.374V-36.2508H359.947V-38.8247ZM359.947 -34.9637H358.374V-32.3897H359.947V-34.9637ZM359.947 -31.1028H358.374V-28.5287H359.947V-31.1028ZM359.947 -27.3847H358.374V-24.8108H359.947V-27.3847ZM359.947 -23.5237H358.374V-20.9497H359.947V-23.5237ZM359.947 -19.8058H358.374V-17.2317H359.947V-19.8058ZM359.947 -15.9447H358.374V-13.3708H359.947V-15.9447ZM359.947 -12.2267H358.374V-9.65275H359.947V-12.2267ZM359.947 -8.36576H358.374V-5.79174H359.947V-8.36576ZM359.947 -4.64775H358.374V-2.07375H359.947V-4.64775ZM359.947 -0.786737H358.374V1.78724H359.947V-0.786737ZM359.947 3.07426H358.374V5.64826H359.947V3.07426ZM361.949 -91.8778H360.376V-89.3037H361.949V-91.8778ZM361.949 -88.1597H360.376V-85.5858H361.949V-88.1597ZM361.949 -84.2987H360.376V-81.7247H361.949V-84.2987ZM361.949 -80.5808H360.376V-78.0067H361.949V-80.5808ZM361.949 -76.7197H360.376V-74.1458H361.949V-76.7197ZM361.949 -73.0017H360.376V-70.4277H361.949V-73.0017ZM361.949 -69.1408H360.376V-66.5667H361.949V-69.1408ZM361.949 -65.2797H360.376V-62.7058H361.949V-65.2797ZM361.949 -61.5617H360.376V-58.9878H361.949V-61.5617ZM361.949 -57.7008H360.376V-55.2697H361.949V-57.7008ZM361.949 -53.9828H360.376V-51.4087H361.949V-53.9828ZM361.949 -50.1217H360.376V-47.5478H361.949V-50.1217ZM361.949 -46.4037H360.376V-43.8297H361.949V-46.4037ZM361.949 -42.5428H360.376V-39.9687H361.949V-42.5428ZM361.949 -38.8247H360.376V-36.2508H361.949V-38.8247ZM361.949 -34.9637H360.376V-32.3897H361.949V-34.9637ZM361.949 -31.1028H360.376V-28.5287H361.949V-31.1028ZM361.949 -27.3847H360.376V-24.8108H361.949V-27.3847ZM361.949 -23.5237H360.376V-20.9497H361.949V-23.5237ZM361.949 -19.8058H360.376V-17.2317H361.949V-19.8058ZM361.949 -15.9447H360.376V-13.3708H361.949V-15.9447ZM361.949 -12.2267H360.376V-9.65275H361.949V-12.2267ZM361.949 -8.36576H360.376V-5.79174H361.949V-8.36576ZM361.949 -4.64775H360.376V-2.07375H361.949V-4.64775ZM361.949 -0.786737H360.376V1.78724H361.949V-0.786737ZM361.949 3.07426H360.376V5.64826L361.949 5.64826V3.07426ZM363.951 -91.8778H362.378V-89.3037H363.951V-91.8778ZM363.951 -88.1597H362.378V-85.5858H363.951V-88.1597ZM363.951 -84.2987H362.378V-81.7247H363.951V-84.2987ZM363.951 -80.5808H362.378V-78.0067H363.951V-80.5808ZM363.951 -76.7197H362.378V-74.1458H363.951V-76.7197ZM363.951 -73.0017H362.378V-70.4277H363.951V-73.0017ZM363.951 -69.1408H362.378V-66.5667H363.951V-69.1408ZM363.951 -65.2797H362.378V-62.7058H363.951V-65.2797ZM363.951 -61.5617H362.378V-58.9878H363.951V-61.5617ZM363.951 -57.7008H362.378V-55.2697H363.951V-57.7008ZM363.951 -53.9828H362.378V-51.4087H363.951V-53.9828ZM363.951 -50.1217H362.378V-47.5478H363.951V-50.1217ZM363.951 -46.4037H362.378V-43.8297H363.951V-46.4037ZM363.951 -42.5428H362.378V-39.9687H363.951V-42.5428ZM363.951 -38.8247H362.378V-36.2508H363.951V-38.8247ZM363.951 -34.9637H362.378V-32.3897H363.951V-34.9637ZM363.951 -31.1028H362.378V-28.5287H363.951V-31.1028ZM363.951 -27.3847H362.378V-24.8108H363.951V-27.3847ZM363.951 -23.5237H362.378V-20.9497H363.951V-23.5237ZM363.951 -19.8058H362.378V-17.2317H363.951V-19.8058ZM363.951 -15.9447H362.378V-13.3708H363.951V-15.9447ZM363.951 -12.2267H362.378V-9.65275H363.951V-12.2267ZM363.951 -8.36576H362.378V-5.79174H363.951V-8.36576ZM363.951 -4.64775H362.378V-2.07375H363.951V-4.64775ZM363.951 -0.786737H362.378V1.78724H363.951V-0.786737ZM363.951 3.07426H362.378V5.64826H363.951V3.07426ZM365.953 -91.8778H364.38V-89.3037H365.953V-91.8778ZM365.953 -88.1597H364.38V-85.5858H365.953V-88.1597ZM365.953 -84.2987H364.38V-81.7247H365.953V-84.2987ZM365.953 -80.5808H364.38V-78.0067H365.953V-80.5808ZM365.953 -76.7197H364.38V-74.1458H365.953V-76.7197ZM365.953 -73.0017H364.38V-70.4277H365.953V-73.0017ZM365.953 -69.1408H364.38V-66.5667H365.953V-69.1408ZM365.953 -65.2797H364.38V-62.7058H365.953V-65.2797ZM365.953 -61.5617H364.38V-58.9878H365.953V-61.5617ZM365.953 -57.7008H364.38V-55.2697H365.953V-57.7008ZM365.953 -53.9828H364.38V-51.4087H365.953V-53.9828ZM365.953 -50.1217H364.38V-47.5478H365.953V-50.1217ZM365.953 -46.4037H364.38V-43.8297H365.953V-46.4037ZM365.953 -42.5428H364.38V-39.9687H365.953V-42.5428ZM365.953 -38.8247H364.38V-36.2508H365.953V-38.8247ZM365.953 -34.9637H364.38V-32.3897H365.953V-34.9637ZM365.953 -31.1028H364.38V-28.5287H365.953V-31.1028ZM365.953 -27.3847H364.38V-24.8108H365.953V-27.3847ZM365.953 -23.5237H364.38V-20.9497H365.953V-23.5237ZM365.953 -19.8058H364.38V-17.2317H365.953V-19.8058ZM365.953 -15.9447H364.38V-13.3708H365.953V-15.9447ZM365.953 -12.2267H364.38V-9.65275H365.953V-12.2267ZM365.953 -8.36576H364.38V-5.79174H365.953V-8.36576ZM365.953 -4.64775H364.38V-2.07375H365.953V-4.64775ZM365.953 -0.786737H364.38V1.78724H365.953V-0.786737ZM365.953 3.07426H364.38V5.64826H365.953V3.07426ZM368.098 -91.8778H366.525V-89.3037H368.098V-91.8778ZM368.098 -88.1597H366.525V-85.5858H368.098V-88.1597ZM368.098 -84.2987H366.525V-81.7247H368.098V-84.2987ZM368.098 -80.5808H366.525V-78.0067H368.098V-80.5808ZM368.098 -76.7197H366.525V-74.1458H368.098V-76.7197ZM368.098 -73.0017H366.525V-70.4277H368.098V-73.0017ZM368.098 -69.1408H366.525V-66.5667H368.098V-69.1408ZM368.098 -65.2797H366.525V-62.7058H368.098V-65.2797ZM368.098 -61.5617H366.525V-58.9878H368.098V-61.5617ZM368.098 -57.7008H366.525V-55.2697H368.098V-57.7008ZM368.098 -53.9828H366.525V-51.4087H368.098V-53.9828ZM368.098 -50.1217H366.525V-47.5478H368.098V-50.1217ZM368.098 -46.4037H366.525V-43.8297H368.098V-46.4037ZM368.098 -42.5428H366.525V-39.9687H368.098V-42.5428ZM368.098 -38.8247H366.525V-36.2508H368.098V-38.8247ZM368.098 -34.9637H366.525V-32.3897H368.098V-34.9637ZM368.098 -31.1028H366.525V-28.5287H368.098V-31.1028ZM368.098 -27.3847H366.525V-24.8108H368.098V-27.3847ZM368.098 -23.5237H366.525V-20.9497H368.098V-23.5237ZM368.098 -19.8058H366.525V-17.2317H368.098V-19.8058ZM368.098 -15.9447H366.525V-13.3708H368.098V-15.9447ZM368.098 -12.2267H366.525V-9.65275H368.098V-12.2267ZM368.098 -8.36576H366.525V-5.79174H368.098V-8.36576ZM368.098 -4.64775H366.525V-2.07375H368.098V-4.64775ZM368.098 -0.786737H366.525V1.78724H368.098V-0.786737ZM368.098 3.07426H366.525V5.64826H368.098V3.07426ZM370.1 -91.8778H368.527V-89.3037H370.1V-91.8778ZM370.1 -88.1597H368.527V-85.5858H370.1V-88.1597ZM370.1 -84.2987H368.527V-81.7247H370.1V-84.2987ZM370.1 -80.5808H368.527V-78.0067H370.1V-80.5808ZM370.1 -76.7197H368.527V-74.1458H370.1V-76.7197ZM370.1 -73.0017H368.527V-70.4277H370.1V-73.0017ZM370.1 -69.1408H368.527V-66.5667H370.1V-69.1408ZM370.1 -65.2797H368.527V-62.7058H370.1V-65.2797ZM370.1 -61.5617H368.527V-58.9878H370.1V-61.5617ZM370.1 -57.7008H368.527V-55.2697H370.1V-57.7008ZM370.1 -53.9828H368.527V-51.4087H370.1V-53.9828ZM370.1 -50.1217H368.527V-47.5478H370.1V-50.1217ZM370.1 -46.4037H368.527V-43.8297H370.1V-46.4037ZM370.1 -42.5428H368.527V-39.9687H370.1V-42.5428ZM370.1 -38.8247H368.527V-36.2508H370.1V-38.8247ZM370.1 -34.9637H368.527V-32.3897H370.1V-34.9637ZM370.1 -31.1028H368.527V-28.5287H370.1V-31.1028ZM370.1 -27.3847H368.527V-24.8108H370.1V-27.3847ZM370.1 -23.5237H368.527V-20.9497H370.1V-23.5237ZM370.1 -19.8058H368.527V-17.2317H370.1V-19.8058ZM370.1 -15.9447H368.527V-13.3708H370.1V-15.9447ZM370.1 -12.2267H368.527V-9.65275H370.1V-12.2267ZM370.1 -8.36576H368.527V-5.79174H370.1V-8.36576ZM370.1 -4.64775H368.527V-2.07375H370.1V-4.64775ZM370.1 -0.786737H368.527V1.78724H370.1V-0.786737ZM370.1 3.07426H368.527V5.64826H370.1V3.07426Z" fill="#53A6EA"/>
<path d="M25.471 42.3994H-9.70703L-9.70703 -84.4416H25.471L25.471 42.3994Z" fill="#196C9B"/>
<path d="M-10.8516 42.9707L-10.8516 -85.5863H26.0424L26.0424 42.9707L-10.8516 42.9707ZM-5.70358 -83.2983H-8.13457V-80.0093H-5.70358V-83.2983ZM-5.70358 -78.4363H-8.13457L-8.13457 -75.1473H-5.70358L-5.70358 -78.4363ZM-5.70358 -73.5743H-8.13457V-70.2853H-5.70358V-73.5743ZM-5.70358 -68.7123H-8.13457V-65.4233H-5.70358L-5.70358 -68.7123ZM-5.70358 -63.9933H-8.13457V-60.7043H-5.70358V-63.9933ZM-5.70358 -59.1313H-8.13457V-55.8423H-5.70358V-59.1313ZM-5.70358 -54.2693H-8.13457L-8.13457 -50.9803H-5.70358V-54.2693ZM-5.70358 -49.4073H-8.13457V-46.1183H-5.70358V-49.4073ZM-5.70358 -44.6883H-8.13457V-41.3993H-5.70358L-5.70358 -44.6883ZM-5.70358 -39.8263H-8.13457L-8.13457 -36.5373H-5.70358V-39.8263ZM-5.70358 -34.9643H-8.13457V-31.6753H-5.70358L-5.70358 -34.9643ZM-5.70358 -30.1023H-8.13457V-26.8133H-5.70358V-30.1023ZM-5.70358 -25.2403H-8.13457V-21.9513H-5.70358L-5.70358 -25.2403ZM-5.70358 -20.5213H-8.13457L-8.13457 -17.2323H-5.70358V-20.5213ZM-5.70358 -15.6593H-8.13457V-12.3703H-5.70358L-5.70358 -15.6593ZM-5.70358 -10.7973H-8.13457V-7.5083H-5.70358V-10.7973ZM-5.70358 -5.9353H-8.13457L-8.13457 -2.64629H-5.70358V-5.9353ZM-5.70358 -1.0733H-8.13457V2.2157H-5.70358V-1.0733ZM-5.70358 3.6457H-8.13457V6.93471H-5.70358V3.6457ZM-5.70358 8.50771H-8.13457V11.7967H-5.70358L-5.70358 8.50771ZM-5.70358 13.3697H-8.13457V16.6587H-5.70358V13.3697ZM-5.70358 18.2317H-8.13457L-8.13457 21.5207H-5.70358L-5.70358 18.2317ZM-5.70358 22.9507H-8.13457V26.2397H-5.70358V22.9507ZM-5.70358 27.8127H-8.13457V31.1017H-5.70358L-5.70358 27.8127ZM-5.70358 32.6747H-8.13457V35.9637H-5.70358V32.6747ZM-5.70358 37.5367H-8.13457V40.8257H-5.70358L-5.70358 37.5367ZM-2.55756 -83.2983H-4.98858V-80.0093H-2.55756V-83.2983ZM-2.55756 -78.4363H-4.98858L-4.98858 -75.1473H-2.55756V-78.4363ZM-2.55756 -73.5743H-4.98858V-70.2853H-2.55756L-2.55756 -73.5743ZM-2.55756 -68.7123H-4.98858L-4.98858 -65.4233H-2.55756V-68.7123ZM-2.55756 -63.9933H-4.98858V-60.7043H-2.55756V-63.9933ZM-2.55756 -59.1313H-4.98858V-55.8423H-2.55756V-59.1313ZM-2.55756 -54.2693H-4.98858V-50.9803H-2.55756V-54.2693ZM-2.55756 -49.4073H-4.98858V-46.1183H-2.55756V-49.4073ZM-2.55756 -44.6883H-4.98858L-4.98858 -41.3993H-2.55756V-44.6883ZM-2.55756 -39.8263H-4.98858V-36.5373H-2.55756L-2.55756 -39.8263ZM-2.55756 -34.9643H-4.98858L-4.98858 -31.6753H-2.55756V-34.9643ZM-2.55756 -30.1023H-4.98858V-26.8133H-2.55756V-30.1023ZM-2.55756 -25.2403H-4.98858L-4.98858 -21.9513H-2.55756V-25.2403ZM-2.55756 -20.5213H-4.98858V-17.2323H-2.55756L-2.55756 -20.5213ZM-2.55756 -15.6593H-4.98858L-4.98858 -12.3703H-2.55756V-15.6593ZM-2.55756 -10.7973H-4.98858V-7.5083H-2.55756V-10.7973ZM-2.55756 -5.9353H-4.98858V-2.64629H-2.55756V-5.9353ZM-2.55756 -1.0733H-4.98858V2.2157H-2.55756V-1.0733ZM-2.55756 3.6457H-4.98858V6.93471H-2.55756V3.6457ZM-2.55756 8.50771H-4.98858L-4.98858 11.7967H-2.55756V8.50771ZM-2.55756 13.3697H-4.98858V16.6587H-2.55756L-2.55756 13.3697ZM-2.55756 18.2317H-4.98858L-4.98858 21.5207H-2.55756V18.2317ZM-2.55756 22.9507H-4.98858V26.2397H-2.55756V22.9507ZM-2.55756 27.8127H-4.98858L-4.98858 31.1017H-2.55756V27.8127ZM-2.55756 32.6747H-4.98858V35.9637H-2.55756L-2.55756 32.6747ZM-2.55756 37.5367H-4.98858L-4.98858 40.8257H-2.55756V37.5367ZM0.588438 -83.2983H-1.84256V-80.0093H0.588438V-83.2983ZM0.588438 -78.4363H-1.84256V-75.1473H0.588438V-78.4363ZM0.588438 -73.5743H-1.84256L-1.84256 -70.2853H0.588438L0.588438 -73.5743ZM0.588438 -68.7123H-1.84256V-65.4233H0.588438V-68.7123ZM0.588438 -63.9933H-1.84256V-60.7043H0.588438V-63.9933ZM0.588438 -59.1313H-1.84256V-55.8423H0.588438V-59.1313ZM0.588438 -54.2693H-1.84256V-50.9803H0.588438V-54.2693ZM0.588438 -49.4073H-1.84256V-46.1183H0.588438V-49.4073ZM0.588438 -44.6883H-1.84256V-41.3993H0.588438V-44.6883ZM0.588438 -39.8263H-1.84256L-1.84256 -36.5373H0.588438L0.588438 -39.8263ZM0.588438 -34.9643H-1.84256V-31.6753H0.588438V-34.9643ZM0.588438 -30.1023H-1.84256V-26.8133H0.588438V-30.1023ZM0.588438 -25.2403H-1.84256V-21.9513H0.588438V-25.2403ZM0.588438 -20.5213H-1.84256L-1.84256 -17.2323H0.588438L0.588438 -20.5213ZM0.588438 -15.6593H-1.84256V-12.3703H0.588438V-15.6593ZM0.588438 -10.7973H-1.84256V-7.5083H0.588438V-10.7973ZM0.588438 -5.9353H-1.84256V-2.64629H0.588438V-5.9353ZM0.588438 -1.0733H-1.84256V2.2157H0.588438V-1.0733ZM0.588438 3.6457H-1.84256V6.93471H0.588438V3.6457ZM0.588438 8.50771H-1.84256V11.7967H0.588438V8.50771ZM0.588438 13.3697H-1.84256L-1.84256 16.6587H0.588438L0.588438 13.3697ZM0.588438 18.2317H-1.84256V21.5207H0.588438V18.2317ZM0.588438 22.9507H-1.84256V26.2397H0.588438V22.9507ZM0.588438 27.8127H-1.84256V31.1017H0.588438V27.8127ZM0.588438 32.6747H-1.84256L-1.84256 35.9637H0.588438L0.588438 32.6747ZM0.588438 37.5367H-1.84256V40.8257H0.588438V37.5367ZM3.87744 -83.2983H1.44643V-80.0093H3.87744V-83.2983ZM3.87744 -78.4363H1.44643V-75.1473H3.87744V-78.4363ZM3.87744 -73.5743H1.44643L1.44643 -70.2853H3.87744L3.87744 -73.5743ZM3.87744 -68.7123H1.44643V-65.4233H3.87744V-68.7123ZM3.87744 -63.9933H1.44643V-60.7043H3.87744V-63.9933ZM3.87744 -59.1313H1.44643V-55.8423H3.87744V-59.1313ZM3.87744 -54.2693H1.44643V-50.9803H3.87744V-54.2693ZM3.87744 -49.4073H1.44643V-46.1183H3.87744V-49.4073ZM3.87744 -44.6883H1.44643V-41.3993H3.87744V-44.6883ZM3.87744 -39.8263H1.44643L1.44643 -36.5373H3.87744L3.87744 -39.8263ZM3.87744 -34.9643H1.44643V-31.6753H3.87744V-34.9643ZM3.87744 -30.1023H1.44643V-26.8133H3.87744V-30.1023ZM3.87744 -25.2403H1.44643V-21.9513H3.87744V-25.2403ZM3.87744 -20.5213H1.44643L1.44643 -17.2323H3.87744L3.87744 -20.5213ZM3.87744 -15.6593H1.44643V-12.3703H3.87744V-15.6593ZM3.87744 -10.7973H1.44643V-7.5083H3.87744V-10.7973ZM3.87744 -5.9353H1.44643V-2.64629H3.87744V-5.9353ZM3.87744 -1.0733H1.44643V2.2157H3.87744V-1.0733ZM3.87744 3.6457H1.44643V6.93471H3.87744V3.6457ZM3.87744 8.50771H1.44643V11.7967H3.87744V8.50771ZM3.87744 13.3697H1.44643L1.44643 16.6587H3.87744L3.87744 13.3697ZM3.87744 18.2317H1.44643V21.5207H3.87744V18.2317ZM3.87744 22.9507H1.44643V26.2397H3.87744V22.9507ZM3.87744 27.8127H1.44643V31.1017H3.87744V27.8127ZM3.87744 32.6747H1.44643L1.44643 35.9637H3.87744L3.87744 32.6747ZM7.02344 -83.2983H4.59244V-80.0093H7.02344L7.02344 -83.2983ZM7.02344 -78.4363H4.59244V-75.1473H7.02344V-78.4363ZM7.02344 -73.5743H4.59244L4.59244 -70.2853H7.02344V-73.5743ZM7.02344 -68.7123H4.59244V-65.4233H7.02344V-68.7123ZM7.02344 -63.9933H4.59244V-60.7043H7.02344V-63.9933ZM7.02344 -59.1313H4.59244V-55.8423H7.02344V-59.1313ZM7.02344 -54.2693H4.59244V-50.9803H7.02344V-54.2693ZM7.02344 -49.4073H4.59244V-46.1183H7.02344L7.02344 -49.4073ZM7.02344 -44.6883H4.59244V-41.3993H7.02344V-44.6883ZM7.02344 -39.8263H4.59244L4.59244 -36.5373H7.02344V-39.8263ZM7.02344 -34.9643H4.59244V-31.6753H7.02344V-34.9643ZM7.02344 -30.1023H4.59244V-26.8133H7.02344V-30.1023ZM7.02344 -25.2403H4.59244V-21.9513H7.02344V-25.2403ZM7.02344 -20.5213H4.59244L4.59244 -17.2323H7.02344V-20.5213ZM7.02344 -15.6593H4.59244V-12.3703H7.02344V-15.6593ZM7.02344 -10.7973H4.59244V-7.5083H7.02344L7.02344 -10.7973ZM7.02344 -5.9353H4.59244V-2.64629H7.02344V-5.9353ZM7.02344 -1.0733H4.59244V2.2157H7.02344V-1.0733ZM7.02344 3.6457H4.59244V6.93471H7.02344V3.6457ZM7.02344 8.50771H4.59244V11.7967L7.02344 11.7967V8.50771ZM7.02344 13.3697L4.59244 13.3697L4.59244 16.6587L7.02344 16.6587V13.3697ZM7.02344 18.2317L4.59244 18.2317V21.5207L7.02344 21.5207V18.2317ZM7.02344 22.9507L4.59244 22.9507V26.2397L7.02344 26.2397L7.02344 22.9507ZM7.02344 27.8127H4.59244V31.1017H7.02344V27.8127ZM7.02344 32.6747H4.59244L4.59244 35.9637H7.02344V32.6747ZM7.02344 37.5367H4.59244V40.8257H7.02344V37.5367ZM10.3124 -83.2983H7.88143L7.88143 -80.0093H10.3124L10.3124 -83.2983ZM10.3124 -78.4363H7.88143V-75.1473H10.3124V-78.4363ZM10.3124 -73.5743H7.88143V-70.2853H10.3124V-73.5743ZM10.3124 -68.7123H7.88143V-65.4233H10.3124V-68.7123ZM10.3124 -63.9933H7.88143V-60.7043H10.3124V-63.9933ZM10.3124 -59.1313H7.88143V-55.8423H10.3124V-59.1313ZM10.3124 -54.2693H7.88143V-50.9803H10.3124V-54.2693ZM10.3124 -49.4073H7.88143L7.88143 -46.1183H10.3124L10.3124 -49.4073ZM10.3124 -44.6883H7.88143V-41.3993H10.3124V-44.6883ZM10.3124 -39.8263H7.88143V-36.5373H10.3124V-39.8263ZM10.3124 -34.9643H7.88143V-31.6753H10.3124V-34.9643ZM10.3124 -30.1023H7.88143V-26.8133H10.3124V-30.1023ZM10.3124 -25.2403H7.88143V-21.9513H10.3124V-25.2403ZM10.3124 -20.5213H7.88143V-17.2323H10.3124V-20.5213ZM10.3124 -15.6593H7.88143V-12.3703H10.3124V-15.6593ZM10.3124 -10.7973H7.88143L7.88143 -7.5083H10.3124L10.3124 -10.7973ZM10.3124 -5.9353H7.88143V-2.64629H10.3124V-5.9353ZM10.3124 -1.0733H7.88143V2.2157H10.3124V-1.0733ZM10.3124 3.6457H7.88143V6.93471H10.3124V3.6457ZM10.3124 8.50771H7.88143V11.7967H10.3124V8.50771ZM10.3124 13.3697H7.88143V16.6587H10.3124V13.3697ZM10.3124 18.2317H7.88143V21.5207H10.3124V18.2317ZM10.3124 22.9507H7.88143L7.88143 26.2397H10.3124L10.3124 22.9507ZM10.3124 27.8127H7.88143V31.1017H10.3124V27.8127ZM10.3124 32.6747H7.88143V35.9637H10.3124V32.6747ZM10.3124 37.5367H7.88143V40.8257H10.3124V37.5367ZM13.4584 -83.2983H11.0274L11.0274 -80.0093H13.4584L13.4584 -83.2983ZM13.4584 -78.4363H11.0274V-75.1473H13.4584V-78.4363ZM13.4584 -73.5743H11.0274V-70.2853H13.4584V-73.5743ZM13.4584 -68.7123H11.0274V-65.4233H13.4584V-68.7123ZM13.4584 -63.9933H11.0274V-60.7043H13.4584V-63.9933ZM13.4584 -59.1313H11.0274V-55.8423H13.4584V-59.1313ZM13.4584 -54.2693H11.0274V-50.9803H13.4584V-54.2693ZM13.4584 -49.4073H11.0274L11.0274 -46.1183H13.4584L13.4584 -49.4073ZM13.4584 -44.6883H11.0274V-41.3993H13.4584V-44.6883ZM13.4584 -39.8263H11.0274V-36.5373H13.4584V-39.8263ZM13.4584 -34.9643H11.0274V-31.6753H13.4584V-34.9643ZM13.4584 -30.1023H11.0274V-26.8133H13.4584V-30.1023ZM13.4584 -25.2403H11.0274V-21.9513H13.4584V-25.2403ZM13.4584 -20.5213H11.0274V-17.2323H13.4584V-20.5213ZM13.4584 -15.6593H11.0274V-12.3703H13.4584V-15.6593ZM13.4584 -10.7973H11.0274L11.0274 -7.5083H13.4584L13.4584 -10.7973ZM13.4584 -5.9353H11.0274V-2.64629H13.4584V-5.9353ZM13.4584 -1.0733H11.0274V2.2157H13.4584V-1.0733ZM13.4584 3.6457H11.0274V6.93471H13.4584V3.6457ZM13.4584 8.50771H11.0274V11.7967H13.4584V8.50771ZM13.4584 13.3697H11.0274V16.6587H13.4584V13.3697ZM13.4584 18.2317H11.0274V21.5207H13.4584V18.2317ZM13.4584 22.9507H11.0274L11.0274 26.2397H13.4584L13.4584 22.9507ZM13.4584 27.8127H11.0274V31.1017H13.4584V27.8127ZM13.4584 32.6747H11.0274V35.9637H13.4584V32.6747ZM13.4584 37.5367H11.0274V40.8257H13.4584V37.5367ZM16.8904 -83.2983H14.4594L14.4594 -80.0093H16.8904L16.8904 -83.2983ZM16.8904 -78.4363H14.4594V-75.1473H16.8904V-78.4363ZM16.8904 -73.5743H14.4594V-70.2853H16.8904V-73.5743ZM16.8904 -68.7123H14.4594V-65.4233H16.8904V-68.7123ZM16.8904 -63.9933H14.4594V-60.7043H16.8904V-63.9933ZM16.8904 -59.1313H14.4594V-55.8423H16.8904V-59.1313ZM16.8904 -54.2693H14.4594V-50.9803H16.8904V-54.2693ZM16.8904 -49.4073H14.4594L14.4594 -46.1183H16.8904L16.8904 -49.4073ZM16.8904 -44.6883H14.4594V-41.3993H16.8904V-44.6883ZM16.8904 -39.8263H14.4594V-36.5373H16.8904V-39.8263ZM16.8904 -34.9643H14.4594V-31.6753H16.8904V-34.9643ZM16.8904 -30.1023H14.4594V-26.8133H16.8904V-30.1023ZM16.8904 -25.2403H14.4594V-21.9513H16.8904V-25.2403ZM16.8904 -20.5213H14.4594V-17.2323H16.8904V-20.5213ZM16.8904 -15.6593H14.4594V-12.3703H16.8904V-15.6593ZM16.8904 -10.7973H14.4594L14.4594 -7.5083H16.8904L16.8904 -10.7973ZM16.8904 -5.9353H14.4594V-2.64629H16.8904V-5.9353ZM16.8904 -1.0733H14.4594V2.2157H16.8904V-1.0733ZM16.8904 3.6457H14.4594V6.93471H16.8904V3.6457ZM16.8904 8.50771H14.4594V11.7967H16.8904V8.50771ZM16.8904 13.3697H14.4594V16.6587H16.8904V13.3697ZM16.8904 18.2317H14.4594V21.5207H16.8904V18.2317ZM16.8904 22.9507H14.4594L14.4594 26.2397H16.8904L16.8904 22.9507ZM16.8904 27.8127L14.4594 27.8127V31.1017L16.8904 31.1017V27.8127ZM16.8904 32.6747H14.4594V35.9637H16.8904V32.6747ZM16.8904 37.5367H14.4594V40.8257H16.8904V37.5367ZM20.0364 -83.2983H17.6054L17.6054 -80.0093H20.0364L20.0364 -83.2983ZM20.0364 -78.4363H17.6054V-75.1473H20.0364V-78.4363ZM20.0364 -73.5743H17.6054V-70.2853H20.0364V-73.5743ZM20.0364 -68.7123H17.6054V-65.4233H20.0364V-68.7123ZM20.0364 -63.9933H17.6054V-60.7043H20.0364V-63.9933ZM20.0364 -59.1313H17.6054V-55.8423H20.0364V-59.1313ZM20.0364 -54.2693H17.6054V-50.9803H20.0364V-54.2693ZM20.0364 -49.4073H17.6054L17.6054 -46.1183H20.0364L20.0364 -49.4073ZM20.0364 -44.6883H17.6054V-41.3993H20.0364V-44.6883ZM20.0364 -39.8263H17.6054V-36.5373H20.0364V-39.8263ZM20.0364 -34.9643H17.6054V-31.6753H20.0364V-34.9643ZM20.0364 -30.1023H17.6054V-26.8133H20.0364V-30.1023ZM20.0364 -25.2403H17.6054V-21.9513H20.0364V-25.2403ZM20.0364 -20.5213H17.6054V-17.2323H20.0364V-20.5213ZM20.0364 -15.6593H17.6054V-12.3703H20.0364V-15.6593ZM20.0364 -10.7973H17.6054L17.6054 -7.5083H20.0364L20.0364 -10.7973ZM20.0364 -5.9353H17.6054V-2.64629H20.0364V-5.9353ZM20.0364 -1.0733H17.6054V2.2157H20.0364V-1.0733ZM20.0364 3.6457H17.6054V6.93471H20.0364V3.6457ZM20.0364 8.50771H17.6054V11.7967H20.0364V8.50771ZM20.0364 13.3697H17.6054V16.6587H20.0364V13.3697ZM20.0364 18.2317H17.6054V21.5207H20.0364V18.2317ZM20.0364 22.9507H17.6054L17.6054 26.2397H20.0364L20.0364 22.9507ZM20.0364 27.8127H17.6054V31.1017H20.0364V27.8127ZM20.0364 32.6747H17.6054V35.9637H20.0364V32.6747ZM20.0364 37.5367H17.6054V40.8257H20.0364V37.5367ZM23.3254 -83.2983H20.8944L20.8944 -80.0093H23.3254V-83.2983ZM23.3254 -78.4363H20.8944V-75.1473H23.3254V-78.4363ZM23.3254 -73.5743H20.8944V-70.2853H23.3254V-73.5743ZM23.3254 -68.7123H20.8944V-65.4233H23.3254V-68.7123ZM23.3254 -63.9933H20.8944V-60.7043H23.3254V-63.9933ZM23.3254 -59.1313H20.8944V-55.8423H23.3254V-59.1313ZM23.3254 -54.2693H20.8944V-50.9803H23.3254V-54.2693ZM23.3254 -49.4073H20.8944L20.8944 -46.1183H23.3254V-49.4073ZM23.3254 -44.6883H20.8944V-41.3993H23.3254V-44.6883ZM23.3254 -39.8263H20.8944V-36.5373H23.3254V-39.8263ZM23.3254 -34.9643H20.8944V-31.6753H23.3254V-34.9643ZM23.3254 -30.1023H20.8944V-26.8133H23.3254V-30.1023ZM23.3254 -25.2403H20.8944V-21.9513H23.3254V-25.2403ZM23.3254 -20.5213H20.8944V-17.2323H23.3254V-20.5213ZM23.3254 -15.6593H20.8944V-12.3703H23.3254V-15.6593ZM23.3254 -10.7973H20.8944L20.8944 -7.5083H23.3254V-10.7973ZM23.3254 -5.9353H20.8944V-2.64629H23.3254V-5.9353ZM23.3254 -1.0733H20.8944V2.2157H23.3254V-1.0733ZM23.3254 3.6457H20.8944V6.93471H23.3254V3.6457ZM23.3254 8.50771H20.8944V11.7967H23.3254V8.50771ZM23.3254 13.3697H20.8944V16.6587H23.3254V13.3697ZM23.3254 18.2317H20.8944V21.5207H23.3254V18.2317ZM23.3254 22.9507H20.8944L20.8944 26.2397H23.3254V22.9507ZM23.3254 27.8127H20.8944V31.1017H23.3254V27.8127ZM23.3254 32.6747H20.8944V35.9637H23.3254V32.6747ZM23.3254 37.5367H20.8944V40.8257H23.3254V37.5367Z" fill="#53A6EA"/>
<path d="M109.554 150.793L109.554 -107.036H188.061C188.061 -107.036 202.361 -25.955 188.776 21.95C175.048 69.712 153.598 115.901 135.294 130.344C116.99 144.787 109.554 150.793 109.554 150.793Z" fill="#196C9B"/>
<path d="M184.487 -107.18C189.921 -83.8707 217.663 55.6973 116.991 141.497L116.991 -107.18H100.26L100.26 162.947C100.26 162.947 231.391 87.5863 191.065 -107.18H184.487Z" fill="#53A6EA"/>
<path d="M138.869 -107.179C147.306 15.801 133.721 96.1669 133.721 96.1669C133.721 96.1669 144.017 96.8819 152.597 94.1649C199.644 21.2349 182.341 -81.296 176.907 -107.179H138.869Z" fill="#53A6EA"/>
<path d="M138.584 -107.18C143.16 -31.5325 140.872 22.8075 138.155 55.4115C135.295 89.8745 131.148 107.749 130.719 109.608C129.575 109.894 122.854 111.181 117.277 111.038C131.577 35.5345 123.569 -81.8685 121.567 -107.18H120.995C122.997 -81.8685 131.005 35.8205 116.705 111.181V111.467H116.991C123.14 111.61 131.005 110.037 131.005 110.037H131.148V109.894C131.148 109.751 135.581 91.8765 138.584 55.5545C141.301 22.9505 143.589 -31.5325 139.013 -107.18H138.584Z" fill="#53A6EA"/>
<path d="M109.84 -107.179H109.268L109.411 102.316V102.459L116.847 111.468L117.276 111.182L109.983 102.316L109.84 -107.179Z" fill="#53A6EA"/>
<path d="M109.555 153.367V226.011L106.838 216.43L104.693 156.656L109.555 153.367Z" fill="#53A6EA"/>
<path d="M152.958 93.2602L152.58 91.7334L161.463 89.5305L161.841 91.0573L152.958 93.2602Z" fill="#53A6EA"/>
<path d="M157.398 86.4291L157.019 84.9023L165.902 82.6985L166.281 84.2253L157.398 86.4291Z" fill="#53A6EA"/>
<path d="M160.373 80.1455L159.945 78.6318L170.266 75.7157L170.693 77.2294L160.373 80.1455Z" fill="#53A6EA"/>
<path d="M162.139 73.1934L161.711 71.6797L172.031 68.7604L172.46 70.274L162.139 73.1934Z" fill="#53A6EA"/>
<path d="M166.252 65.7398L165.823 64.2266L176.14 61.2997L176.57 62.8129L166.252 65.7398Z" fill="#53A6EA"/>
<path d="M168.942 58.7364L168.514 57.2229L178.834 54.3024L179.262 55.816L168.942 58.7364Z" fill="#53A6EA"/>
<path d="M171.853 51.557L171.427 50.043L181.749 47.1322L182.176 48.6462L171.853 51.557Z" fill="#53A6EA"/>
<path d="M172.971 44.7158L172.544 43.202L182.865 40.288L183.293 41.8018L172.971 44.7158Z" fill="#53A6EA"/>
<path d="M174.014 37.7676L173.586 36.254L183.905 33.3336L184.334 34.8472L174.014 37.7676Z" fill="#53A6EA"/>
<path d="M176.645 30.3818L176.217 28.8683L186.536 25.9489L186.964 27.4625L176.645 30.3818Z" fill="#53A6EA"/>
<path d="M177.686 22.9756L177.258 21.4619L187.578 18.5436L188.006 20.0573L177.686 22.9756Z" fill="#53A6EA"/>
<path d="M179.666 15.5645L179.238 14.0508L189.559 11.1336L189.987 12.6473L179.666 15.5645Z" fill="#53A6EA"/>
<path d="M180.2 8.5L179.771 6.98645L190.091 4.06496L190.519 5.57851L180.2 8.5Z" fill="#53A6EA"/>
<path d="M181.105 1.94124L180.677 0.427689L190.996 -2.4938L191.425 -0.980253L181.105 1.94124Z" fill="#53A6EA"/>
<path d="M110.127 97.3109L118.135 105.891L131.863 104.318L132.149 105.891L117.563 107.464L108.983 98.4549L110.127 97.3109Z" fill="#53A6EA"/>
<path d="M110.27 90.0179L119.279 99.3129L133.15 97.8829L133.293 99.4559L118.707 100.886L109.126 91.1619L110.27 90.0179Z" fill="#53A6EA"/>
<path d="M110.127 82.1534L120.137 93.3074L134.008 92.0204L134.151 93.5934L119.565 95.0234L108.983 83.2974L110.127 82.1534Z" fill="#53A6EA"/>
<path d="M110.27 75.8609L121.138 86.8719L135.152 85.8709L135.295 87.4439L120.423 88.5879L109.126 76.8619L110.27 75.8609Z" fill="#53A6EA"/>
<path d="M110.27 69.2822L121.71 80.2932L136.01 79.5782L136.153 81.1512L121.138 81.8662L109.126 70.4262L110.27 69.2822Z" fill="#53A6EA"/>
<path d="M110.127 62.4181L122.425 73.7151L136.868 72.4281L137.011 74.0011L121.853 75.2881L108.983 63.5621L110.127 62.4181Z" fill="#53A6EA"/>
<path d="M110.127 55.6973L123.14 66.7083L137.44 65.5643L137.583 67.1373L122.568 68.2812L109.126 56.8413L110.127 55.6973Z" fill="#53A6EA"/>
<path d="M109.984 49.1196L123.569 59.8446L138.155 58.7005L138.298 60.1305L122.997 61.5605L109.126 50.2636L109.984 49.1196Z" fill="#53A6EA"/>
<path d="M109.412 41.2549L123.998 52.9809L138.727 51.6939L138.87 53.2669L123.569 54.5539L108.411 42.5419L109.412 41.2549Z" fill="#53A6EA"/>
<path d="M109.984 34.5335L124.427 45.8305L139.013 44.5435L139.156 46.1165L123.998 47.4035L109.126 35.8205L109.984 34.5335Z" fill="#53A6EA"/>
<path d="M109.984 28.2416L124.999 38.1087L139.728 36.8216L139.871 38.3946L124.57 39.6816L109.126 29.5287L109.984 28.2416Z" fill="#53A6EA"/>
<path d="M109.984 21.3773L124.999 30.9583L139.728 29.6712L139.871 31.2443L124.57 32.5312L109.126 22.6643L109.984 21.3773Z" fill="#53A6EA"/>
<path d="M109.983 13.7994L125.999 22.9514L140.585 21.6644L140.728 23.2374L125.57 24.5244L109.268 15.2294L109.983 13.7994Z" fill="#53A6EA"/>
<path d="M109.984 6.64897L125.428 15.229L140.729 14.371V15.944L125.142 16.802L109.126 7.93596L109.984 6.64897Z" fill="#53A6EA"/>
<path d="M109.983 -1.0725L126.714 7.36451L141.443 6.0775L141.586 7.65051L126.428 8.9375L109.268 0.3575L109.983 -1.0725Z" fill="#53A6EA"/>
<path d="M109.84 -7.65086L125.713 -0.786854L141.443 -1.64486V-0.0718541L125.427 0.786133L109.268 -6.22086L109.84 -7.65086Z" fill="#53A6EA"/>
<path d="M137.01 112.183C137.01 110.467 141.872 109.18 148.021 109.18C154.17 109.18 159.032 110.467 159.032 112.183C159.032 113.899 154.17 115.186 148.021 115.186C141.872 115.186 137.01 113.899 137.01 112.183Z" fill="#53A6EA"/>
<path d="M111.557 90.1611C111.557 90.1611 98.1148 92.8781 95.5408 93.3071C92.9668 93.5931 87.2468 92.3061 83.9578 88.8741C83.9578 86.5861 84.6728 85.1561 84.6728 85.1561C84.6728 85.1561 108.983 80.2941 110.842 79.5791C112.558 78.7211 111.557 90.1611 111.557 90.1611Z" fill="#53A6EA"/>
<path d="M226.243 22.0927H216.519V-29.3873H226.243V22.0927Z" fill="#53A6EA"/>
<path d="M244.26 6.07715L235.251 6.07715V-43.8298H244.26V6.07715Z" fill="#53A6EA"/>
<path d="M239.828 63.4198H231.104V-35.9652H239.828V63.4198Z" fill="#53A6EA"/>
<path d="M232.391 84.8691H219.235V-35.8229H232.391V84.8691Z" fill="#53A6EA"/>
<path d="M236.109 87.0146H230.246V57.5566H236.109V87.0146Z" fill="#53A6EA"/>
<path d="M227.672 107.178H220.665V76.4327H227.672V107.178Z" fill="#53A6EA"/>
<path d="M234.251 116.901H226.958V79.1494H234.251V116.901Z" fill="#53A6EA"/>
<path d="M229.675 124.338H222.668V98.7409H229.675V124.338Z" fill="#53A6EA"/>
<path d="M231.534 147.075H226.1V112.898H231.534V147.075Z" fill="#53A6EA"/>
<path d="M228.245 161.804H224.67V120.048H228.245V161.804Z" fill="#53A6EA"/>
<path d="M229.675 170.241H226.958V143.786H229.675V170.241Z" fill="#53A6EA"/>
<path d="M227.672 192.549H226.528V156.942H227.672V192.549Z" fill="#53A6EA"/>
<path d="M242.401 3.07422L235.251 3.07422V1.21521L242.401 1.21521V3.07422Z" fill="#196C9B"/>
<path d="M224.956 19.9482H217.806V18.0892H224.956V19.9482Z" fill="#196C9B"/>
<path d="M224.956 15.8008H217.806V13.9418H224.956V15.8008Z" fill="#196C9B"/>
<path d="M224.956 11.6544H217.806V9.79541H224.956V11.6544Z" fill="#196C9B"/>
<path d="M224.956 7.36403L217.806 7.36403V5.50502L224.956 5.50502V7.36403Z" fill="#196C9B"/>
<path d="M224.956 3.2168L217.806 3.2168V1.35781L224.956 1.35781V3.2168Z" fill="#196C9B"/>
<path d="M237.826 60.7021H230.676V58.8431H237.826V60.7021Z" fill="#196C9B"/>
<path d="M237.826 56.5557H230.676V54.6967H237.826V56.5557Z" fill="#196C9B"/>
<path d="M237.826 52.2649H230.676V50.4058H237.826V52.2649Z" fill="#196C9B"/>
<path d="M237.826 48.1179H230.676V46.2589H237.826V48.1179Z" fill="#196C9B"/>
<path d="M237.826 43.9707H230.676V42.1117H237.826V43.9707Z" fill="#196C9B"/>
<path d="M237.826 39.6816H230.676V37.8227H237.826V39.6816Z" fill="#196C9B"/>
<path d="M237.826 35.5342H230.676V33.6752H237.826V35.5342Z" fill="#196C9B"/>
<path d="M237.826 31.3875H230.676V29.5285H237.826V31.3875Z" fill="#196C9B"/>
<path d="M237.826 27.0967H230.676V25.2377H237.826V27.0967Z" fill="#196C9B"/>
<path d="M237.826 22.9501H230.676V21.0911H237.826V22.9501Z" fill="#196C9B"/>
<path d="M228.531 83.2969H221.381V81.4379H228.531V83.2969Z" fill="#196C9B"/>
<path d="M228.531 79.0068H221.381V77.1479H228.531V79.0068Z" fill="#196C9B"/>
<path d="M228.531 74.8596H221.381V73.0006H228.531V74.8596Z" fill="#196C9B"/>
<path d="M228.531 70.5703H221.381V68.7113H228.531V70.5703Z" fill="#196C9B"/>
<path d="M228.531 66.4229H221.381V64.5639H228.531V66.4229Z" fill="#196C9B"/>
<path d="M228.531 62.2764H221.381V60.4174H228.531V62.2764Z" fill="#196C9B"/>
<path d="M228.531 57.9854H221.381V56.1263H228.531V57.9854Z" fill="#196C9B"/>
<path d="M228.531 53.8388H221.381V51.9798H228.531V53.8388Z" fill="#196C9B"/>
<path d="M228.531 49.6914H221.381V47.8324H228.531V49.6914Z" fill="#196C9B"/>
<path d="M228.531 45.4022H221.381V43.5432H228.531V45.4022Z" fill="#196C9B"/>
<path d="M228.245 122.193H224.098V120.477H228.245V122.193Z" fill="#196C9B"/>
<path d="M228.245 118.332H224.098V116.616H228.245V118.332Z" fill="#196C9B"/>
<path d="M228.245 114.471H224.098V112.755H228.245V114.471Z" fill="#196C9B"/>
<path d="M228.245 110.61H224.098V108.894H228.245V110.61Z" fill="#196C9B"/>
<path d="M228.245 106.748H224.098V105.032H228.245V106.748Z" fill="#196C9B"/>
<path d="M228.245 102.745H224.098V101.029H228.245V102.745Z" fill="#196C9B"/>
<path d="M228.245 98.883H224.098V97.167H228.245V98.883Z" fill="#196C9B"/>
<path d="M228.245 95.0227H224.098V93.3067H228.245V95.0227Z" fill="#196C9B"/>
<path d="M331.777 39.8252L346.363 22.9512V-106.893H333.35L331.777 39.8252Z" fill="#31779E"/>
<path d="M331.777 6.93517L346.363 22.9512V-106.893H333.35L331.777 6.93517Z" fill="#196C9B"/>
<path d="M333.35 104.747V-106.893H302.462V72.0001L333.35 104.747Z" fill="#53A6EA"/>
<path d="M310.613 75.1462H328.917V94.4512L310.613 75.1462Z" fill="#196C9B"/>
<path d="M328.917 68.7109H307.181V50.1209H328.917V68.7109Z" fill="#196C9B"/>
<path d="M328.917 46.5459H307.181V43.9719H328.917V46.5459Z" fill="#196C9B"/>
<path d="M328.917 42.6855H307.181V40.1115H328.917V42.6855Z" fill="#196C9B"/>
<path d="M328.917 38.8242H307.181V36.2502H328.917V38.8242Z" fill="#196C9B"/>
<path d="M328.917 35.1055H307.181V32.5315H328.917V35.1055Z" fill="#196C9B"/>
<path d="M328.917 31.2451L307.181 31.2451V28.6711L328.917 28.6711V31.2451Z" fill="#196C9B"/>
<path d="M328.917 27.5272L307.181 27.5272V24.9532L328.917 24.9532V27.5272Z" fill="#196C9B"/>
<path d="M328.917 23.666L307.181 23.666V21.092L328.917 21.092V23.666Z" fill="#196C9B"/>
<path d="M328.917 19.9482L307.181 19.9482V17.3742L328.917 17.3742V19.9482Z" fill="#196C9B"/>
<path d="M328.917 16.0871L307.181 16.0871V13.5131L328.917 13.5131V16.0871Z" fill="#196C9B"/>
<path d="M328.917 7.22089L307.181 7.22089V4.64689L328.917 4.64689V7.22089Z" fill="#196C9B"/>
<path d="M328.917 3.36054L307.181 3.36054V0.786538L328.917 0.786538V3.36054Z" fill="#196C9B"/>
<path d="M333.349 99.1699V152.795H332.062V98.4549L333.349 99.1699Z" fill="#53A6EA"/>
</g>
</g>
</g>
<defs>
<clipPath id="clip0_1_1670">
<rect width="370" height="364" fill="white" transform="matrix(1 0 0 -1 -10 358)"/>
</clipPath>
</defs>
</svg>
